<?xml version="1.0" encoding="utf-8"?>
<!-- Generator: Adobe Illustrator 17.0.0, SVG Export Plug-In . SVG Version: 6.00 Build 0)  -->
<!DOCTYPE svg PUBLIC "-//W3C//DTD SVG 1.1//EN" "http://www.w3.org/Graphics/SVG/1.1/DTD/svg11.dtd">
<svg version="1.1" id="Layer_1" xmlns="http://www.w3.org/2000/svg" xmlns:xlink="http://www.w3.org/1999/xlink" x="0px" y="0px"
	 width="16px" height="16px" viewBox="0 0 16 16" enable-background="new 0 0 16 16" xml:space="preserve">
<g id="XMLID_1_">
	<g id="XMLID_2_">
		<path id="XMLID_144_" fill="#EB8C23" d="M70.841,16.925c-0.207,0-0.414-0.079-0.572-0.237c-0.316-0.316-0.316-0.828,0-1.144
			l8.328-8.328l-8.571-8.571c-0.316-0.316-0.316-0.828,0-1.144c0.316-0.316,0.828-0.316,1.144,0l9.143,9.143
			c0.316,0.316,0.316,0.828,0,1.144l-8.9,8.9C71.255,16.846,71.048,16.925,70.841,16.925z"/>
	</g>
	<g id="XMLID_3_">
		<path id="XMLID_143_" fill="#EB8C23" d="M70.706,11.895c-0.207,0-0.414-0.079-0.572-0.237c-0.316-0.316-0.316-0.828,0-1.144
			L73.5,7.148l-3.473-3.473c-0.316-0.316-0.316-0.828,0-1.144c0.316-0.316,0.828-0.316,1.144,0l4.046,4.045
			c0.152,0.152,0.237,0.357,0.237,0.572c0,0.214-0.085,0.42-0.237,0.572l-3.938,3.938C71.12,11.816,70.913,11.895,70.706,11.895z"/>
	</g>
	<g id="XMLID_6_">
		<path id="XMLID_142_" fill="#EB8C23" d="M74.644,7.957H59.433c-0.447,0-0.809-0.362-0.809-0.809c0-0.447,0.362-0.809,0.809-0.809
			h15.211c0.447,0,0.809,0.362,0.809,0.809C75.453,7.595,75.091,7.957,74.644,7.957z"/>
	</g>
</g>
<g id="XMLID_10_">
	<g id="XMLID_7_">
		<path id="XMLID_147_" fill="#EB8C23" d="M8.945,14.143c-0.129,0-0.259-0.049-0.357-0.148c-0.197-0.197-0.197-0.517,0-0.715
			l5.204-5.204L8.436,2.72c-0.197-0.197-0.197-0.517,0-0.715c0.197-0.197,0.517-0.197,0.715,0l5.713,5.714
			c0.197,0.197,0.197,0.517,0,0.715l-5.562,5.562C9.203,14.094,9.074,14.143,8.945,14.143z"/>
	</g>
	<g id="XMLID_8_">
		<path id="XMLID_146_" fill="#EB8C23" d="M5.197,14.143c-0.129,0-0.259-0.049-0.357-0.148c-0.197-0.197-0.197-0.517,0-0.715
			l5.204-5.204L4.688,2.72c-0.197-0.197-0.197-0.517,0-0.715c0.197-0.197,0.517-0.197,0.715,0l5.714,5.714
			c0.197,0.197,0.197,0.517,0,0.715l-5.562,5.562C5.456,14.094,5.326,14.143,5.197,14.143z"/>
	</g>
	<g id="XMLID_9_">
		<path id="XMLID_145_" fill="#EB8C23" d="M1.452,14.143c-0.129,0-0.259-0.049-0.357-0.148c-0.197-0.197-0.197-0.517,0-0.715
			l5.204-5.204L0.943,2.72c-0.197-0.197-0.197-0.517,0-0.715c0.197-0.197,0.517-0.197,0.715,0l5.714,5.714
			c0.197,0.197,0.197,0.517,0,0.715L1.81,13.995C1.711,14.094,1.581,14.143,1.452,14.143z"/>
	</g>
</g>
</svg>
