<?xml version="1.0" encoding="utf-8"?>
<!-- Generator: Adobe Illustrator 17.0.0, SVG Export Plug-In . SVG Version: 6.00 Build 0)  -->
<!DOCTYPE svg PUBLIC "-//W3C//DTD SVG 1.1//EN" "http://www.w3.org/Graphics/SVG/1.1/DTD/svg11.dtd">
<svg version="1.1" id="Layer_1" xmlns="http://www.w3.org/2000/svg" xmlns:xlink="http://www.w3.org/1999/xlink" x="0px" y="0px"
	 width="760px" height="520px" viewBox="0 0 760 520" enable-background="new 0 0 760 520" xml:space="preserve">
<g>
	<g>
		<g>
			<g>
				<path fill="#F5F5F5" d="M153.267,501.387c-1.469-1.26-4.747-5.252-2.219-9.897c0.927-1.702,2.895-2.545,4.676-3.295
					c1.782-0.75,3.654-1.402,5.128-2.656c2.78-2.365,3.547-6.294,5.392-9.45c2.118-3.622,6.073-6.336,10.251-6.146
					c4.784,0.217,8.774,4.125,10.583,8.58c1.809,4.455,1.872,9.402,1.909,14.213c0.021,2.66-0.097,5.659-2.051,7.456
					c-1.801,1.657-4.512,1.677-6.953,1.602c-8.715-0.268-17.43-0.536-26.144-0.803"/>
			</g>
		</g>
	</g>
	<g>
		<g>
			<g>
				<g>
					<path fill="#E1E1E1" d="M203.271,429.493h-68.756l12.385,73.851c0.542,3.226,2.875,5.712,5.87,6.575
						c0.079,0.025,0.161,0.043,0.241,0.066c0.205,0.052,0.402,0.122,0.612,0.158c0.453,0.094,0.922,0.142,1.398,0.161
						c0.004,0.023,0.008,0.048,0.011,0.071l0.335-0.053c0.001,0,0.002,0,0.002,0h30.643c0.577,0,1.139-0.059,1.684-0.168
						c3.619-0.56,6.515-3.464,6.956-7.218l5.971-50.885l0.269-2.023h-0.032l2.364-20.152L203.271,429.493z M190.3,476.602h-7.056
						l0.712-21.433h8.175L190.3,476.602z M192.816,455.168h6.755l-2.515,21.433h-6.072L192.816,455.168z M172.658,500.362
						l-0.429-18.62h10.161l-0.619,18.62H172.658z M161.673,481.742h9.873l0.429,18.62h-8.855L161.673,481.742z M162.436,500.362
						h-8.278c-0.787-5.027-1.81-11.561-2.918-18.62h9.749L162.436,500.362z M161.274,476.602l-1.666-21.433h11.326l0.494,21.433
						H161.274z M172.111,476.602l-0.494-21.433h11.656l-0.712,21.433H172.111z M171.499,450.028l-0.457-19.849h13.062l-0.659,19.849
						H171.499z M170.816,450.028h-11.608l-1.543-19.849h12.693L170.816,450.028z M158.524,450.028h-12.281
						c-0.435-2.741-0.847-5.337-1.22-7.671c-1.281-8.025-1.763-11.043-2.03-12.178h13.988L158.524,450.028z M158.924,455.168
						l1.666,21.433h-10.157c-0.342-2.175-0.688-4.375-1.034-6.576c-0.796-5.06-1.593-10.118-2.342-14.857H158.924z M149.743,476.602
						h-6.635l-3.595-21.433h6.853C147.413,461.792,148.574,469.164,149.743,476.602z M150.55,481.742
						c1.011,6.443,2.007,12.797,2.918,18.62h-6.375l-3.123-18.62H150.55z M182.455,500.362l0.618-18.62h6.788l-1.591,18.62H182.455z
						 M184.127,450.028l0.659-19.849h9.48l-1.696,19.849H184.127z M142.343,430.179c0.272,1.435,1.527,9.245,3.209,19.849h-6.901
						l-3.329-19.849H142.343z M194.269,500.362h-5.314l1.591-18.62h5.908L194.269,500.362z M200.175,450.028h-6.919l1.696-19.849
						h7.552L200.175,450.028z"/>
				</g>
			</g>
		</g>
	</g>
</g>
<g>
	<g>
		<g>
			<g>
				<rect x="528.588" y="115.126" fill="#FAFAFA" width="92.67" height="82.908"/>
			</g>
		</g>
		<g>
			<g>
				<g>
					<path fill="#E1E1E1" d="M621.258,198.034c0,0-0.016-0.531-0.023-1.539c-0.006-1.017-0.014-2.505-0.024-4.442
						c-0.013-3.893-0.031-9.582-0.054-16.829c-0.026-14.486-0.063-35.185-0.108-60.097l0.21,0.21
						c-26.688,0.011-58.538,0.024-92.661,0.038h-0.008l0.248-0.247c-0.011,30.163-0.021,58.546-0.03,82.908l-0.218-0.218
						c27.645,0.046,50.784,0.084,67.026,0.11c8.126,0.025,14.524,0.044,18.904,0.057c2.182,0.011,3.859,0.02,5.005,0.026
						c0.561,0.005,0.989,0.01,1.29,0.012C621.104,198.025,621.258,198.034,621.258,198.034s-0.138,0.008-0.42,0.012
						c-0.296,0.003-0.716,0.007-1.267,0.012c-1.136,0.006-2.798,0.014-4.962,0.025c-4.369,0.013-10.75,0.033-18.855,0.058
						c-16.276,0.027-39.463,0.065-67.166,0.11l-0.218,0v-0.218c-0.009-24.362-0.019-52.745-0.03-82.908v-0.248h0.248h0.008
						c34.123,0.014,65.973,0.027,92.661,0.038h0.211l0,0.21c-0.045,24.967-0.082,45.712-0.108,60.23
						c-0.023,7.227-0.042,12.901-0.054,16.782c-0.011,1.92-0.019,3.394-0.024,4.402
						C621.273,197.533,621.258,198.034,621.258,198.034z"/>
				</g>
			</g>
		</g>
	</g>
	<g>
		<g>
			<g>
				<ellipse fill="#E1E1E1" cx="553.227" cy="129.857" rx="10.894" ry="0.248"/>
			</g>
		</g>
	</g>
	<g>
		<g>
			<g>
				<path fill="#E1E1E1" d="M603.387,136.082c0,0.137-13.4,0.248-29.927,0.248c-16.532,0-29.93-0.111-29.93-0.248
					c0-0.137,13.397-0.247,29.93-0.247C589.986,135.834,603.387,135.945,603.387,136.082z"/>
			</g>
		</g>
	</g>
	<g>
		<g>
			<rect x="542.493" y="146.627" fill="#E1E1E1" width="3.904" height="3.904"/>
		</g>
	</g>
	<g>
		<g>
			<rect x="552.103" y="146.627" fill="#E1E1E1" width="3.904" height="3.904"/>
		</g>
	</g>
	<g>
		<g>
			<rect x="561.891" y="146.45" fill="#E1E1E1" width="3.904" height="3.904"/>
		</g>
	</g>
	<g>
		<g>
			<rect x="571.324" y="146.627" fill="#E1E1E1" width="3.904" height="3.904"/>
		</g>
	</g>
	<g>
		<g>
			<rect x="580.934" y="146.627" fill="#E1E1E1" width="3.904" height="3.904"/>
		</g>
	</g>
	<g>
		<g>
			<rect x="590.544" y="146.627" fill="#E1E1E1" width="3.904" height="3.904"/>
		</g>
	</g>
	<g>
		<g>
			<rect x="600.154" y="146.627" fill="#ECECEC" width="3.904" height="3.904"/>
		</g>
	</g>
	<g>
		<g>
			<rect x="542.493" y="154.927" fill="#ECECEC" width="3.904" height="3.904"/>
		</g>
	</g>
	<g>
		<g>
			<rect x="552.103" y="154.927" fill="#E1E1E1" width="3.904" height="3.904"/>
		</g>
	</g>
	<g>
		<g>
			<rect x="561.713" y="154.927" fill="#ECECEC" width="3.904" height="3.904"/>
		</g>
	</g>
	<g>
		<g>
			<rect x="571.324" y="154.927" fill="#E1E1E1" width="3.904" height="3.904"/>
		</g>
	</g>
	<g>
		<g>
			<rect x="580.934" y="154.927" fill="#E1E1E1" width="3.904" height="3.904"/>
		</g>
	</g>
	<g>
		<g>
			<rect x="590.721" y="154.749" fill="#E1E1E1" width="3.904" height="3.904"/>
		</g>
	</g>
	<g>
		<g>
			<rect x="600.154" y="154.927" fill="#E1E1E1" width="3.904" height="3.904"/>
		</g>
	</g>
	<g>
		<g>
			<rect x="542.493" y="163.227" fill="#E1E1E1" width="3.904" height="3.904"/>
		</g>
	</g>
	<g>
		<g>
			<rect x="552.28" y="163.05" fill="#E1E1E1" width="3.904" height="3.904"/>
		</g>
	</g>
	<g>
		<g>
			<rect x="561.713" y="163.227" fill="#E1E1E1" width="3.904" height="3.904"/>
		</g>
	</g>
	<g>
		<g>
			<rect x="571.324" y="163.227" fill="#ECECEC" width="3.904" height="3.904"/>
		</g>
	</g>
	<g>
		<g>
			<rect x="580.934" y="163.227" fill="#E1E1E1" width="3.904" height="3.904"/>
		</g>
	</g>
	<g>
		<g>
			<rect x="590.544" y="163.227" fill="#E1E1E1" width="3.904" height="3.904"/>
		</g>
	</g>
	<g>
		<g>
			<rect x="600.154" y="163.227" fill="#E1E1E1" width="3.904" height="3.904"/>
		</g>
	</g>
	<g>
		<g>
			<rect x="542.493" y="171.527" fill="#E1E1E1" width="3.904" height="3.904"/>
		</g>
	</g>
	<g>
		<g>
			<rect x="552.103" y="171.527" fill="#E1E1E1" width="3.904" height="3.904"/>
		</g>
	</g>
	<g>
		<g>
			<rect x="561.713" y="171.527" fill="#E1E1E1" width="3.904" height="3.904"/>
		</g>
	</g>
	<g>
		<g>
			<rect x="571.501" y="171.35" fill="#E1E1E1" width="3.904" height="3.904"/>
		</g>
	</g>
	<g>
		<g>
			<rect x="580.934" y="171.527" fill="#E1E1E1" width="3.904" height="3.904"/>
		</g>
	</g>
	<g>
		<g>
			<rect x="590.544" y="171.527" fill="#ECECEC" width="3.904" height="3.904"/>
		</g>
	</g>
	<g>
		<g>
			<rect x="600.154" y="171.527" fill="#E1E1E1" width="3.904" height="3.904"/>
		</g>
	</g>
	<g>
		<g>
			<rect x="542.493" y="179.827" fill="#E1E1E1" width="3.904" height="3.904"/>
		</g>
	</g>
	<g>
		<g>
			<rect x="552.103" y="179.827" fill="#ECECEC" width="3.904" height="3.904"/>
		</g>
	</g>
	<g>
		<g>
			<rect x="561.713" y="179.827" fill="#E1E1E1" width="3.904" height="3.904"/>
		</g>
	</g>
	<g>
		<g>
			<rect x="571.324" y="179.827" fill="#E1E1E1" width="3.904" height="3.904"/>
		</g>
	</g>
	<g>
		<g>
			<rect x="580.934" y="179.827" fill="#E1E1E1" width="3.904" height="3.904"/>
		</g>
	</g>
	<g>
		<g>
			<rect x="590.721" y="179.65" fill="#E1E1E1" width="3.904" height="3.904"/>
		</g>
	</g>
	<g>
		<g>
			<rect x="600.154" y="179.827" fill="#E1E1E1" width="3.904" height="3.904"/>
		</g>
	</g>
</g>
<g>
	<g>
		<g>
			<g>
				<circle fill="#E1E1E1" cx="570.045" cy="56.136" r="33.771"/>
			</g>
		</g>
	</g>
	<g>
		<g>
			<g>
				<circle fill="#FFFFFF" cx="570.397" cy="55.797" r="30.561"/>
			</g>
		</g>
	</g>
	<g>
		<g>
			<g>
				<g>
					<g>
						<g>
							<g>
								<g>
									<g>
										<g>
											<path fill="#ECECEC" d="M539.527,53.963c0,0,0.009,0.17,0.01,0.499c-0.001,0.34-0.003,0.827-0.005,1.462
												c-0.002,0.322-0.005,0.681-0.008,1.077c0.015,0.396,0.071,0.827,0.109,1.294c0.043,0.468,0.089,0.971,0.138,1.509
												c0.028,0.541,0.191,1.099,0.29,1.699c0.383,2.406,1.306,5.281,2.859,8.366c1.568,3.073,3.909,6.331,7.202,9.182
												c0.414,0.353,0.833,0.71,1.256,1.071c0.444,0.335,0.915,0.646,1.378,0.975c0.475,0.313,0.92,0.685,1.433,0.96
												c0.507,0.285,1.019,0.574,1.536,0.865c0.259,0.144,0.519,0.29,0.781,0.436c0.274,0.121,0.55,0.242,0.827,0.364
												c0.554,0.244,1.113,0.491,1.677,0.739c0.571,0.231,1.174,0.396,1.767,0.6c0.602,0.179,1.188,0.433,1.82,0.54
												c1.25,0.262,2.509,0.606,3.831,0.701c0.657,0.066,1.316,0.174,1.985,0.207c0.671,0.009,1.347,0.019,2.027,0.028
												c0.34-0.001,0.682,0.023,1.024,0.001c0.342-0.03,0.684-0.06,1.028-0.09c0.687-0.068,1.383-0.102,2.075-0.198
												c1.371-0.278,2.785-0.46,4.148-0.927l1.037-0.305c0.173-0.052,0.348-0.098,0.52-0.157l0.505-0.204
												c0.674-0.272,1.352-0.546,2.034-0.822c0.667-0.307,1.312-0.674,1.975-1.01c0.325-0.18,0.67-0.328,0.982-0.534
												l0.943-0.614c1.296-0.77,2.451-1.763,3.654-2.714c0.552-0.533,1.106-1.068,1.663-1.606l0.418-0.404l0.381-0.441
												l0.76-0.889l0.763-0.893l0.68-0.964l0.68-0.97l0.341-0.487c0.104-0.169,0.197-0.344,0.296-0.516
												c0.391-0.692,0.783-1.386,1.177-2.084c0.324-0.732,0.65-1.467,0.976-2.205c1.196-2.997,1.945-6.214,2.207-9.521
												c0.174-3.314-0.147-6.603-0.94-9.732c-0.227-0.774-0.454-1.546-0.679-2.314c-0.3-0.743-0.598-1.483-0.895-2.22
												l-0.225-0.551l-0.275-0.527l-0.547-1.051l-0.548-1.045l-0.64-0.985l-0.637-0.981l-0.32-0.487l-0.362-0.455
												c-0.482-0.606-0.962-1.21-1.439-1.81c-1.069-1.1-2.084-2.237-3.269-3.17l-0.854-0.732
												c-0.283-0.245-0.605-0.437-0.904-0.658c-0.613-0.42-1.204-0.868-1.826-1.26c-0.64-0.362-1.277-0.723-1.909-1.081
												l-0.474-0.268c-0.162-0.081-0.33-0.149-0.495-0.223l-0.988-0.438c-1.291-0.641-2.668-1.006-3.992-1.461
												c-0.674-0.186-1.36-0.311-2.032-0.468c-0.337-0.075-0.673-0.149-1.008-0.223c-0.336-0.067-0.679-0.087-1.016-0.133
												c-0.676-0.08-1.347-0.158-2.014-0.237c-0.668-0.054-1.335-0.033-1.995-0.054c-1.323-0.079-2.616,0.098-3.89,0.194
												c-0.641,0.023-1.256,0.199-1.876,0.297c-0.615,0.125-1.234,0.209-1.831,0.364c-0.592,0.173-1.179,0.344-1.76,0.514
												c-0.291,0.085-0.58,0.169-0.868,0.253c-0.279,0.11-0.556,0.22-0.831,0.33c-0.551,0.221-1.096,0.44-1.636,0.657
												c-0.545,0.206-1.035,0.516-1.546,0.764c-0.503,0.266-1.01,0.512-1.494,0.787c-0.467,0.303-0.929,0.602-1.386,0.898
												c-3.637,2.396-6.384,5.32-8.34,8.162c-1.943,2.855-3.234,5.584-3.928,7.919c-0.176,0.583-0.411,1.114-0.509,1.647
												c-0.119,0.527-0.23,1.02-0.334,1.478c-0.099,0.458-0.21,0.879-0.277,1.269c-0.049,0.392-0.093,0.749-0.133,1.068
												c-0.081,0.63-0.143,1.113-0.186,1.45C539.558,53.796,539.527,53.963,539.527,53.963s0.008-0.168,0.04-0.496
												c0.035-0.339,0.086-0.824,0.152-1.456c0.035-0.321,0.074-0.679,0.117-1.073c0.061-0.392,0.168-0.814,0.262-1.276
												c0.099-0.461,0.206-0.957,0.32-1.487c0.094-0.536,0.324-1.071,0.496-1.658c0.678-2.352,1.957-5.103,3.897-7.987
												c1.953-2.87,4.706-5.826,8.363-8.254c0.459-0.3,0.924-0.603,1.394-0.909c0.487-0.278,0.997-0.528,1.503-0.798
												c0.515-0.252,1.008-0.566,1.557-0.775c0.543-0.22,1.093-0.443,1.648-0.667c0.278-0.111,0.557-0.223,0.838-0.335
												c0.29-0.085,0.582-0.172,0.874-0.258c0.586-0.173,1.177-0.347,1.774-0.523c0.601-0.158,1.226-0.245,1.846-0.372
												c0.625-0.101,1.245-0.279,1.892-0.305c1.286-0.101,2.591-0.281,3.926-0.205c0.666,0.019,1.34-0.003,2.014,0.05
												c0.673,0.078,1.351,0.156,2.033,0.235c0.34,0.045,0.686,0.066,1.026,0.132c0.338,0.074,0.677,0.149,1.018,0.223
												c0.679,0.157,1.372,0.283,2.053,0.47c1.338,0.456,2.73,0.824,4.035,1.469l0.999,0.441c0.166,0.075,0.336,0.144,0.5,0.225
												l0.479,0.27c0.64,0.361,1.283,0.725,1.931,1.09c0.628,0.395,1.227,0.846,1.847,1.271
												c0.303,0.222,0.629,0.417,0.914,0.664l0.864,0.738c1.198,0.942,2.226,2.089,3.306,3.201
												c0.483,0.607,0.969,1.216,1.457,1.828l0.366,0.46l0.324,0.492l0.645,0.991l0.647,0.995l0.555,1.056l0.554,1.062
												l0.278,0.533l0.228,0.557c0.301,0.745,0.603,1.493,0.906,2.245c0.228,0.777,0.458,1.557,0.688,2.34
												c0.804,3.164,1.129,6.49,0.952,9.84c-0.264,3.343-1.022,6.597-2.233,9.627c-0.331,0.746-0.66,1.489-0.988,2.229
												c-0.399,0.705-0.796,1.407-1.191,2.106c-0.1,0.174-0.195,0.351-0.299,0.522l-0.345,0.492l-0.688,0.98l-0.689,0.973
												l-0.772,0.902l-0.769,0.898l-0.386,0.445l-0.423,0.408c-0.563,0.543-1.124,1.084-1.682,1.622
												c-1.217,0.961-2.385,1.963-3.696,2.74l-0.953,0.619c-0.316,0.208-0.664,0.358-0.993,0.538
												c-0.67,0.34-1.322,0.709-1.997,1.018c-0.69,0.277-1.375,0.553-2.057,0.828l-0.51,0.205
												c-0.173,0.059-0.35,0.105-0.525,0.158l-1.048,0.307c-1.378,0.469-2.806,0.651-4.192,0.929
												c-0.699,0.096-1.403,0.13-2.096,0.197c-0.347,0.03-0.694,0.059-1.038,0.088c-0.345,0.022-0.691-0.003-1.034-0.003
												c-0.687-0.011-1.369-0.022-2.046-0.033c-0.675-0.035-1.341-0.145-2.003-0.213c-1.334-0.099-2.604-0.448-3.865-0.716
												c-0.638-0.11-1.23-0.367-1.836-0.549c-0.598-0.207-1.206-0.375-1.782-0.61c-0.569-0.252-1.132-0.502-1.69-0.75
												c-0.279-0.124-0.557-0.247-0.833-0.37c-0.264-0.148-0.526-0.295-0.787-0.441c-0.521-0.295-1.036-0.588-1.546-0.877
												c-0.517-0.279-0.965-0.655-1.442-0.972c-0.466-0.334-0.94-0.649-1.386-0.988c-0.426-0.366-0.847-0.727-1.263-1.084
												c-3.309-2.885-5.651-6.176-7.213-9.277c-1.547-3.112-2.456-6.008-2.82-8.428c-0.094-0.604-0.252-1.165-0.276-1.709
												c-0.044-0.54-0.085-1.046-0.123-1.516c-0.033-0.469-0.083-0.902-0.093-1.299c0.009-0.397,0.017-0.756,0.025-1.08
												c0.017-0.636,0.03-1.123,0.039-1.464C539.513,54.131,539.527,53.963,539.527,53.963z"/>
										</g>
									</g>
								</g>
							</g>
						</g>
					</g>
				</g>
			</g>
		</g>
	</g>
	<g>
		<g>
			<g>
				<g>
					<g>
						<g>
							<g>
								<g>
									<g>
										<g>
											<path fill="#E1E1E1" d="M584.318,56.634c0,0.025-0.385,0.05-1.086,0.072c-0.769,0.016-1.772,0.036-2.988,0.06
												c-2.536,0.035-6.068,0.059-10.055,0.065l-0.197,0l0-0.197c-0.001-0.638-0.001-1.311-0.002-1.994
												c0-4.454,0.022-8.485,0.058-11.403c0.026-1.407,0.047-2.571,0.063-3.455c0.024-0.816,0.05-1.267,0.077-1.267
												c0.027,0,0.054,0.451,0.078,1.267c0.016,0.884,0.037,2.049,0.063,3.455c0.036,2.918,0.058,6.949,0.058,11.403
												c-0.001,0.683-0.001,1.355-0.002,1.994l-0.197-0.197c3.987,0.006,7.52,0.03,10.055,0.065
												c1.216,0.025,2.219,0.045,2.988,0.06C583.933,56.584,584.318,56.608,584.318,56.634z"/>
										</g>
									</g>
								</g>
							</g>
						</g>
					</g>
				</g>
			</g>
		</g>
		<g>
			<g>
				<g>
					<g>
						<g>
							<g>
								<g>
									<g>
										<g>
											<ellipse fill="#E1E1E1" cx="570.282" cy="32.578" rx="0.199" ry="2.582"/>
										</g>
									</g>
								</g>
							</g>
						</g>
					</g>
				</g>
			</g>
		</g>
		<g>
			<g>
				<g>
					<g>
						<g>
							<g>
								<g>
									<g>
										<g>
											
												<ellipse transform="matrix(0.7071 -0.7071 0.7071 0.7071 145.1976 422.4161)" fill="#E1E1E1" cx="582.49" cy="35.942" rx="2.545" ry="0.199"/>
										</g>
									</g>
								</g>
							</g>
						</g>
					</g>
				</g>
			</g>
		</g>
		<g>
			<g>
				<g>
					<g>
						<g>
							<g>
								<g>
									<g>
										<g>
											<path fill="#E1E1E1" d="M592.48,43.09c0.05,0.1-0.925,0.687-2.118,1.414c-1.196,0.725-2.165,1.32-2.231,1.23
												c-0.063-0.087,0.813-0.835,2.024-1.569C591.365,43.427,592.433,42.994,592.48,43.09z"/>
										</g>
									</g>
								</g>
							</g>
						</g>
					</g>
				</g>
			</g>
		</g>
		<g>
			<g>
				<g>
					<g>
						<g>
							<g>
								<g>
									<g>
										<g>
											<ellipse fill="#E1E1E1" cx="593.759" cy="56.367" rx="3.521" ry="0.199"/>
										</g>
									</g>
								</g>
							</g>
						</g>
					</g>
				</g>
			</g>
		</g>
		<g>
			<g>
				<g>
					<g>
						<g>
							<g>
								<g>
									<g>
										<g>
											<ellipse fill="#E1E1E1" cx="545.124" cy="55.898" rx="3.326" ry="0.199"/>
										</g>
									</g>
								</g>
							</g>
						</g>
					</g>
				</g>
			</g>
		</g>
		<g>
			<g>
				<g>
					<g>
						<g>
							<g>
								<g>
									<g>
										<g>
											<path fill="#E1E1E1" d="M551.903,65.782c0.072,0.083-1.053,1.104-2.513,2.28c-1.46,1.176-2.697,2.058-2.763,1.97
												c-0.066-0.088,1.059-1.109,2.513-2.28C550.594,66.582,551.831,65.7,551.903,65.782z"/>
										</g>
									</g>
								</g>
							</g>
						</g>
					</g>
				</g>
			</g>
		</g>
		<g>
			<g>
				<g>
					<g>
						<g>
							<g>
								<g>
									<g>
										<g>
											<path fill="#E1E1E1" d="M560.423,73.427c0.092,0.067-0.743,1.35-1.71,2.965c-0.972,1.613-1.713,2.951-1.815,2.902
												c-0.096-0.045,0.492-1.476,1.474-3.107C559.35,74.554,560.338,73.363,560.423,73.427z"/>
										</g>
									</g>
								</g>
							</g>
						</g>
					</g>
				</g>
			</g>
		</g>
		<g>
			<g>
				<g>
					<g>
						<g>
							<g>
								<g>
									<g>
										<g>
											<ellipse fill="#E1E1E1" cx="570.282" cy="79.765" rx="0.199" ry="3.521"/>
										</g>
									</g>
								</g>
							</g>
						</g>
					</g>
				</g>
			</g>
		</g>
		<g>
			<g>
				<g>
					<g>
						<g>
							<g>
								<g>
									<g>
										<g>
											<path fill="#E1E1E1" d="M585.462,78.595c-0.056,0.089-1.434-0.703-2.903-1.989c-1.474-1.281-2.447-2.538-2.367-2.605
												c0.086-0.076,1.177,1.045,2.628,2.305C584.266,77.571,585.526,78.499,585.462,78.595z"/>
										</g>
									</g>
								</g>
							</g>
						</g>
					</g>
				</g>
			</g>
		</g>
		<g>
			<g>
				<g>
					<g>
						<g>
							<g>
								<g>
									<g>
										<g>
											
												<ellipse transform="matrix(0.7071 0.7071 -0.7071 0.7071 221.5235 -397.3414)" fill="#E1E1E1" cx="590.394" cy="68.731" rx="3.099" ry="0.199"/>
										</g>
									</g>
								</g>
							</g>
						</g>
					</g>
				</g>
			</g>
		</g>
		<g>
			<g>
				<g>
					<g>
						<g>
							<g>
								<g>
									<g>
										<g>
											
												<ellipse transform="matrix(0.7071 0.7071 -0.7071 0.7071 192.4729 -375.6382)" fill="#E1E1E1" cx="549.663" cy="44.511" rx="2.711" ry="0.199"/>
										</g>
									</g>
								</g>
							</g>
						</g>
					</g>
				</g>
			</g>
		</g>
		<g>
			<g>
				<g>
					<g>
						<g>
							<g>
								<g>
									<g>
										<g>
											
												<ellipse transform="matrix(0.7087 0.7055 -0.7055 0.7087 187.5888 -383.7394)" fill="#E1E1E1" cx="558.489" cy="35.294" rx="2.656" ry="0.199"/>
										</g>
									</g>
								</g>
							</g>
						</g>
					</g>
				</g>
			</g>
		</g>
	</g>
	<g>
		<g>
			<g>
				<path fill="#F5F5F5" d="M543.032,56.097c0-16.268,12.712-29.563,28.745-30.503c-0.602-0.035-1.206-0.058-1.817-0.058
					c-16.878,0-30.561,13.683-30.561,30.561c0,16.878,13.683,30.561,30.561,30.561c0.611,0,1.215-0.023,1.817-0.058
					C555.745,85.659,543.032,72.365,543.032,56.097z"/>
			</g>
		</g>
	</g>
</g>
<g>
	<g>
		<g>
			<g>
				<rect x="143.875" y="28.878" fill="#E1E1E1" width="86.037" height="135.969"/>
			</g>
		</g>
	</g>
	<g>
		<g>
			<g>
				<rect x="146.193" y="31.432" fill="#F5F5F5" width="81.108" height="131.179"/>
			</g>
		</g>
	</g>
	<g>
		<g>
			<g>
				<g>
					<rect x="186.747" y="39.074" fill="#FFFFFF" width="32.342" height="50.185"/>
				</g>
			</g>
		</g>
		<g>
			<g>
				<g>
					<circle fill="#E1E1E1" cx="203.431" cy="43.511" r="1.207"/>
				</g>
			</g>
		</g>
	</g>
	<g>
		<g>
			<g>
				<g>
					<rect x="154.154" y="103.226" fill="#FFFFFF" width="32.342" height="50.185"/>
				</g>
			</g>
		</g>
		<g>
			<g>
				<g>
					<circle fill="#E1E1E1" cx="170.838" cy="107.663" r="1.207"/>
				</g>
			</g>
		</g>
	</g>
	<g>
		<g>
			<g>
				<g>
					<rect x="153.716" y="39.074" fill="#FFFFFF" width="27.621" height="39.189"/>
				</g>
			</g>
		</g>
		<g>
			<g>
				<g>
					<circle fill="#E1E1E1" cx="167.526" cy="42.633" r="1.003"/>
				</g>
			</g>
		</g>
	</g>
	<g>
		<g>
			<g>
				<g>
					
						<rect x="191.442" y="105.531" transform="matrix(0.9937 -0.1121 0.1121 0.9937 -11.4529 23.844)" fill="#FFFFFF" width="29.727" height="16.47"/>
				</g>
			</g>
		</g>
		<g>
			<g>
				<g>
					<circle fill="#E1E1E1" cx="205.732" cy="108.686" r="1.023"/>
				</g>
			</g>
		</g>
	</g>
	<g>
		<g>
			<g>
				<g>
					<ellipse fill="#E1E1E1" cx="170.838" cy="114.673" rx="11.342" ry="0.241"/>
				</g>
			</g>
		</g>
	</g>
	<g>
		<g>
			<g>
				<g>
					<ellipse fill="#E1E1E1" cx="170.838" cy="118.264" rx="11.342" ry="0.241"/>
				</g>
			</g>
		</g>
	</g>
	<g>
		<g>
			<g>
				<g>
					<ellipse fill="#E1E1E1" cx="170.838" cy="121.854" rx="11.342" ry="0.241"/>
				</g>
			</g>
		</g>
	</g>
	<g>
		<g>
			<g>
				<g>
					<ellipse fill="#E1E1E1" cx="170.838" cy="125.445" rx="11.342" ry="0.241"/>
				</g>
			</g>
		</g>
	</g>
	<g>
		<g>
			<g>
				<g>
					<ellipse fill="#E1E1E1" cx="170.838" cy="129.035" rx="11.342" ry="0.241"/>
				</g>
			</g>
		</g>
	</g>
	<g>
		<g>
			<g>
				<g>
					<ellipse fill="#E1E1E1" cx="170.838" cy="132.626" rx="11.342" ry="0.241"/>
				</g>
			</g>
		</g>
	</g>
	<g>
		<g>
			<g>
				<g>
					<ellipse fill="#E1E1E1" cx="170.838" cy="136.217" rx="11.342" ry="0.241"/>
				</g>
			</g>
		</g>
	</g>
	<g>
		<g>
			<g>
				<g>
					
						<ellipse transform="matrix(0.9902 -0.1397 0.1397 0.9902 -13.6845 29.9076)" fill="#E1E1E1" cx="206.153" cy="112.412" rx="11.342" ry="0.241"/>
				</g>
			</g>
		</g>
	</g>
	<g>
		<g>
			<g>
				<g>
					
						<ellipse transform="matrix(0.9902 -0.1397 0.1397 0.9902 -13.9939 29.9928)" fill="#E1E1E1" cx="206.604" cy="114.657" rx="11.342" ry="0.241"/>
				</g>
			</g>
		</g>
	</g>
	<g>
		<g>
			<g>
				<g>
					
						<ellipse transform="matrix(0.9902 -0.1397 0.1397 0.9902 -14.2797 30.0707)" fill="#E1E1E1" cx="207.015" cy="116.731" rx="11.342" ry="0.241"/>
				</g>
			</g>
		</g>
	</g>
	<g>
		<g>
			<g>
				<g>
					<ellipse fill="#E1E1E1" cx="203.431" cy="49.572" rx="12.814" ry="0.241"/>
				</g>
			</g>
		</g>
	</g>
	<g>
		<g>
			<g>
				<g>
					<ellipse fill="#E1E1E1" cx="203.431" cy="51.707" rx="12.814" ry="0.241"/>
				</g>
			</g>
		</g>
	</g>
	<g>
		<g>
			<g>
				<g>
					<ellipse fill="#E1E1E1" cx="203.431" cy="53.842" rx="12.814" ry="0.241"/>
				</g>
			</g>
		</g>
	</g>
	<g>
		<g>
			<g>
				<g>
					<ellipse fill="#E1E1E1" cx="203.431" cy="55.977" rx="12.814" ry="0.241"/>
				</g>
			</g>
		</g>
	</g>
	<g>
		<g>
			<g>
				<g>
					<ellipse fill="#E1E1E1" cx="203.431" cy="58.112" rx="12.814" ry="0.241"/>
				</g>
			</g>
		</g>
	</g>
	<g>
		<g>
			<g>
				<g>
					<ellipse fill="#E1E1E1" cx="203.431" cy="60.247" rx="12.814" ry="0.241"/>
				</g>
			</g>
		</g>
	</g>
	<g>
		<g>
			<g>
				<g>
					<ellipse fill="#E1E1E1" cx="203.431" cy="62.382" rx="12.814" ry="0.241"/>
				</g>
			</g>
		</g>
	</g>
	<g>
		<g>
			<g>
				<g>
					<ellipse fill="#E1E1E1" cx="203.431" cy="68.718" rx="12.814" ry="0.241"/>
				</g>
			</g>
		</g>
	</g>
	<g>
		<g>
			<g>
				<g>
					<ellipse fill="#E1E1E1" cx="203.612" cy="70.973" rx="12.814" ry="0.241"/>
				</g>
			</g>
		</g>
	</g>
	<g>
		<g>
			<g>
				<g>
					<ellipse fill="#E1E1E1" cx="203.792" cy="73.228" rx="12.814" ry="0.241"/>
				</g>
			</g>
		</g>
	</g>
	<g>
		<g>
			<g>
				<g>
					<ellipse fill="#E1E1E1" cx="203.972" cy="75.483" rx="12.814" ry="0.241"/>
				</g>
			</g>
		</g>
	</g>
	<g>
		<g>
			<g>
				<g>
					<ellipse fill="#E1E1E1" cx="204.153" cy="77.737" rx="12.814" ry="0.241"/>
				</g>
			</g>
		</g>
	</g>
	<g>
		<g>
			<g>
				<g>
					<ellipse fill="#E1E1E1" cx="204.333" cy="79.992" rx="12.814" ry="0.241"/>
				</g>
			</g>
		</g>
	</g>
</g>
<g>
	<path fill="#1A2E35" d="M636.333,510.406c0,0.16-114.774,0.29-256.321,0.29c-141.597,0-256.346-0.13-256.346-0.29
		c0-0.16,114.749-0.29,256.346-0.29C521.56,510.116,636.333,510.246,636.333,510.406z"/>
</g>
<g>
	<g>
		<g>
			<g>
				<g>
					<g>
						<path fill="#E1E1E1" d="M498.351,392.496H264.307c-5.681,0-10.286-4.605-10.286-10.286V41.39
							c0-5.681,4.605-10.286,10.286-10.286h234.044c5.681,0,10.286,4.605,10.286,10.286v340.82
							C508.637,387.891,504.032,392.496,498.351,392.496z"/>
					</g>
				</g>
				<g>
					<g>
						<g>
							<path fill="#1A2E35" d="M498.351,392.496c0,0,0.265-0.022,0.788-0.052c0.522-0.036,1.3-0.155,2.292-0.445
								c0.98-0.321,2.17-0.864,3.365-1.825c1.177-0.964,2.36-2.372,3.088-4.254c0.383-0.931,0.599-1.991,0.668-3.11
								c0.059-1.122,0.013-2.318,0.024-3.564c-0.003-2.496-0.007-5.226-0.012-8.182c-0.007-5.914-0.014-12.737-0.023-20.418
								c-0.018-30.729-0.045-75.188-0.078-130.124c-0.009-27.469-0.019-57.557-0.03-89.858c-0.004-16.15-0.008-32.853-0.012-50.059
								c-0.002-8.603-0.004-17.331-0.005-26.178c-0.006-4.421-0.012-8.872-0.019-13.352c-0.043-2.198-0.886-4.353-2.27-6.067
								c-1.414-1.69-3.375-2.946-5.549-3.421c-1.087-0.247-2.192-0.269-3.34-0.255c-1.138,0-2.279,0-3.421,0.001
								c-2.284,0-4.575,0.001-6.872,0.001c-4.595,0.001-9.218,0.001-13.868,0.002c-9.299,0.001-18.704,0.003-28.209,0.004
								c-19.011,0.002-38.422,0.004-58.182,0.006c-39.521,0.002-80.44,0.003-122.35,0.005c-2.564-0.008-5.101,1.003-6.943,2.772
								c-1.856,1.752-2.992,4.231-3.101,6.772c-0.051,5.183-0.014,10.394-0.026,15.564c0,10.351-0.001,20.633-0.001,30.84
								c-0.001,20.415-0.002,40.53-0.004,60.295c-0.005,39.531-0.01,77.661-0.014,113.984c-0.008,36.323-0.016,70.84-0.023,103.142
								c-0.001,4.038-0.002,8.041-0.003,12.009c0.009,1.98-0.023,3.968,0.02,5.916c0.065,1.929,0.728,3.814,1.826,5.374
								c1.1,1.566,2.649,2.788,4.395,3.518c0.878,0.355,1.8,0.584,2.736,0.7c0.932,0.082,1.895,0.063,2.851,0.065
								c3.823,0.001,7.609,0.003,11.358,0.004c14.994,0.005,29.383,0.011,43.118,0.016c54.936,0.033,99.391,0.06,130.116,0.078
								c15.359,0.02,27.285,0.036,35.376,0.046c4.041,0.011,7.124,0.019,9.2,0.024C497.289,392.479,498.351,392.496,498.351,392.496
								s-1.062,0.017-3.134,0.025c-2.076,0.005-5.159,0.013-9.2,0.024c-8.091,0.01-20.017,0.026-35.376,0.046
								c-30.726,0.018-75.181,0.045-130.116,0.078c-13.734,0.005-28.124,0.01-43.118,0.016c-3.748,0.001-7.535,0.003-11.358,0.004
								c-0.955-0.001-1.911,0.02-2.893-0.065c-0.972-0.119-1.93-0.356-2.843-0.725c-1.815-0.758-3.424-2.026-4.568-3.652
								c-1.142-1.62-1.832-3.581-1.901-5.585c-0.046-1.982-0.014-3.946-0.024-5.933c-0.001-3.968-0.002-7.971-0.003-12.009
								c-0.007-32.303-0.015-66.819-0.023-103.142c-0.004-36.323-0.009-74.454-0.014-113.984
								c-0.001-19.765-0.002-39.881-0.004-60.295c0-10.207-0.001-20.489-0.001-30.84c0.011-5.18-0.026-10.356,0.026-15.588
								c0.114-2.666,1.307-5.268,3.253-7.105c1.93-1.855,4.597-2.918,7.282-2.908c41.91,0.002,82.829,0.003,122.35,0.005
								c19.761,0.002,39.171,0.004,58.182,0.006c9.505,0.001,18.911,0.003,28.209,0.004c4.649,0.001,9.272,0.001,13.868,0.002
								c2.298,0,4.589,0.001,6.872,0.001c1.142,0,2.282,0,3.421,0.001c1.126-0.014,2.31,0.008,3.44,0.268
								c2.273,0.498,4.322,1.811,5.797,3.577c1.446,1.79,2.325,4.045,2.37,6.34c0.005,4.485,0.009,8.94,0.014,13.366
								c-0.002,8.847-0.004,17.576-0.005,26.178c-0.004,17.206-0.008,33.909-0.012,50.059c-0.011,32.3-0.021,62.388-0.03,89.858
								c-0.033,54.936-0.06,99.394-0.078,130.124c-0.009,7.681-0.016,14.504-0.023,20.418c-0.004,2.957-0.008,5.686-0.012,8.182
								c-0.016,1.249,0.027,2.435-0.037,3.57c-0.074,1.131-0.296,2.2-0.686,3.139c-0.742,1.897-1.942,3.311-3.133,4.276
								c-1.209,0.962-2.409,1.5-3.397,1.815c-1,0.284-1.782,0.394-2.305,0.422C498.616,392.491,498.351,392.496,498.351,392.496z"/>
						</g>
					</g>
				</g>
			</g>
			<g opacity="0.3">
				<g>
					<polygon points="276.234,384.33 489.929,384.33 487.585,339.883 487.585,316.224 276.234,349.249 					"/>
				</g>
			</g>
			<g opacity="0.3">
				<g>
					<polygon points="445.577,31.842 450.433,46.244 450.433,53.301 444.958,53.301 					"/>
				</g>
			</g>
			<g>
				<g>
					<g>
						<polygon fill="#FFFFFF" points="265.376,45.584 265.376,377.558 438.56,377.558 497.282,377.558 497.282,45.584 						"/>
						<g>
							<g>
								<g>
									<path fill="#1A2E35" d="M497.282,318.197c0,0-0.012-0.43-0.018-1.276c-0.004-0.85-0.01-2.111-0.017-3.772
										c-0.008-3.332-0.019-8.267-0.033-14.695c-0.014-12.866-0.035-31.706-0.061-55.624
										c-0.022-47.844-0.052-115.996-0.089-197.246l0.218,0.218c-68.518,0.008-147.808,0.018-231.905,0.028l0.246-0.246
										c0,0.093,0,0.194,0,0.295c-0.023,127.617-0.045,244.159-0.061,331.679l-0.185-0.185
										c53.349,0.034,96.643,0.063,126.605,0.082c14.976,0.022,26.619,0.038,34.523,0.05c3.947,0.012,6.959,0.021,8.99,0.026
										c2.026,0.009,3.065,0.027,3.065,0.027s-1.039,0.018-3.065,0.027c-2.031,0.006-5.043,0.015-8.99,0.026
										c-7.904,0.011-19.547,0.028-34.523,0.05c-29.962,0.019-73.256,0.047-126.605,0.082l-0.185,0v-0.185
										c-0.016-87.52-0.038-204.062-0.061-331.679c0-0.101,0-0.202,0-0.295v-0.246l0.246,0
										c84.097,0.01,163.388,0.02,231.905,0.028l0.219,0l0,0.218c-0.037,81.251-0.067,149.402-0.089,197.246
										c-0.026,23.917-0.047,42.758-0.061,55.624c-0.015,6.428-0.026,11.362-0.034,14.695c-0.008,1.661-0.013,2.922-0.017,3.772
										C497.293,317.767,497.282,318.197,497.282,318.197z"/>
								</g>
							</g>
						</g>
					</g>
				</g>
			</g>
		</g>
		<g>
			<g>
				<g>
					<path d="M445.577,56.136H328.239V29.148c0-3.891,3.154-7.045,7.045-7.045h103.247c3.891,0,7.045,3.154,7.045,7.045V56.136z"/>
				</g>
			</g>
			<g>
				<g>
					<polygon points="401.84,9.304 371.976,9.304 375.466,34.902 397.962,34.902 					"/>
				</g>
			</g>
			<g>
				<g>
					<g>
						<path fill="#375A64" d="M438.039,22.103c0,0.136-22.894,0.246-51.129,0.246c-28.244,0-51.134-0.11-51.134-0.246
							c0-0.136,22.889-0.246,51.134-0.246C415.145,21.857,438.039,21.967,438.039,22.103z"/>
					</g>
				</g>
			</g>
			<g>
				<g>
					<g>
						<ellipse fill="#375A64" cx="330.865" cy="39.894" rx="0.246" ry="10.752"/>
					</g>
				</g>
			</g>
			<g>
				<g>
					<g>
						<ellipse fill="#375A64" cx="441.779" cy="38.337" rx="0.246" ry="9.762"/>
					</g>
				</g>
			</g>
			<g>
				<g>
					<g>
						<path fill="#375A64" d="M436.12,52.626c0,0.136-23.5,0.246-52.483,0.246c-28.993,0-52.488-0.11-52.488-0.246
							s23.495-0.246,52.488-0.246C412.619,52.38,436.12,52.49,436.12,52.626z"/>
					</g>
				</g>
			</g>
		</g>
	</g>
	<g>
		<g>
			<rect x="339.849" y="109.295" fill="#E1E1E1" width="128.072" height="7.872"/>
		</g>
		<g>
			<rect x="339.849" y="125.376" fill="#E1E1E1" width="58.102" height="7.818"/>
		</g>
		<g>
			<g>
				<path fill="#EB8B23" d="M322.514,135.543h-21.006c-2.376,0-4.302-1.926-4.302-4.302v-21.006c0-2.376,1.926-4.302,4.302-4.302
					h21.006c2.376,0,4.302,1.926,4.302,4.302v21.006C326.816,133.617,324.89,135.543,322.514,135.543z"/>
			</g>
			<g>
				<g>
					<polygon fill="#FFFFFF" points="311.586,127.792 303.291,121.382 305.528,118.488 311.091,122.786 319.001,113.684 
						321.762,116.084 					"/>
				</g>
			</g>
		</g>
	</g>
	<g>
		<rect x="339.849" y="158.037" fill="#E1E1E1" width="128.072" height="7.872"/>
	</g>
	<g>
		<rect x="339.849" y="174.118" fill="#E1E1E1" width="58.102" height="7.818"/>
	</g>
	<g>
		<g>
			<path fill="#EB8B23" d="M322.514,184.286h-21.006c-2.376,0-4.302-1.926-4.302-4.302v-21.006c0-2.376,1.926-4.302,4.302-4.302
				h21.006c2.376,0,4.302,1.926,4.302,4.302v21.006C326.816,182.359,324.89,184.286,322.514,184.286z"/>
		</g>
		<g>
			<g>
				<polygon fill="#FFFFFF" points="311.586,176.534 303.291,170.124 305.528,167.23 311.091,171.528 319.001,162.426 
					321.762,164.826 				"/>
			</g>
		</g>
	</g>
	<g>
		<rect x="339.849" y="210.262" fill="#E1E1E1" width="128.072" height="7.872"/>
	</g>
	<g>
		<rect x="339.849" y="226.343" fill="#E1E1E1" width="58.102" height="7.818"/>
	</g>
	<g>
		<rect x="339.849" y="258.542" fill="#E1E1E1" width="128.072" height="7.872"/>
	</g>
	<g>
		<rect x="339.849" y="274.624" fill="#E1E1E1" width="58.102" height="7.818"/>
	</g>
	<g>
		<g>
			<path fill="#EB8B23" d="M322.514,236.51h-21.006c-2.376,0-4.302-1.926-4.302-4.302v-21.006c0-2.376,1.926-4.302,4.302-4.302
				h21.006c2.376,0,4.302,1.926,4.302,4.302v21.006C326.816,234.584,324.89,236.51,322.514,236.51z"/>
		</g>
		<g>
			<g>
				<polygon fill="#FFFFFF" points="311.586,228.759 303.291,222.349 305.528,219.455 311.091,223.753 319.001,214.651 
					321.762,217.051 				"/>
			</g>
		</g>
	</g>
	<g>
		<g>
			<path fill="#EB8B23" d="M322.937,286.667h-21.853c-2.415,0-4.381-1.965-4.381-4.382v-21.852c0-2.415,1.965-4.381,4.381-4.381
				h21.853c2.416,0,4.381,1.965,4.381,4.381v21.852C327.319,284.702,325.353,286.667,322.937,286.667z M301.084,257.057
				c-1.862,0-3.377,1.515-3.377,3.377v21.852c0,1.862,1.515,3.378,3.377,3.378h21.853c1.862,0,3.377-1.515,3.377-3.378v-21.852
				c0-1.861-1.515-3.377-3.377-3.377H301.084z"/>
		</g>
	</g>
	<g>
		<rect x="339.849" y="313.77" fill="#E1E1E1" width="128.072" height="7.872"/>
	</g>
	<g>
		<rect x="339.849" y="329.851" fill="#E1E1E1" width="58.102" height="7.818"/>
	</g>
	<g>
		<g>
			<path fill="#EB8B23" d="M322.937,341.895h-21.853c-2.415,0-4.381-1.965-4.381-4.382v-21.852c0-2.415,1.965-4.381,4.381-4.381
				h21.853c2.416,0,4.381,1.965,4.381,4.381v21.852C327.319,339.93,325.353,341.895,322.937,341.895z M301.084,312.285
				c-1.862,0-3.377,1.515-3.377,3.377v21.852c0,1.862,1.515,3.378,3.377,3.378h21.853c1.862,0,3.377-1.515,3.377-3.378v-21.852
				c0-1.861-1.515-3.377-3.377-3.377H301.084z"/>
		</g>
	</g>
	<rect x="324.434" y="78.812" fill="#EB8B23" width="127.69" height="10.932"/>
</g>
<g>
	<g>
		<path fill="#1A2E35" d="M346.468,484.135c0,0-3.844-26.426-3.523-41.802c0.32-15.375-0.019-32.673-0.019-32.673h1.771
			c0,0-1.199,30.518,0.106,48.925c1.305,18.392,4.741,25.549,4.741,25.549H346.468"/>
		<path fill="#375A64" d="M357.917,379.927c-0.356-0.903-0.794-1.843-1.614-2.363c-1.124-0.712-2.597-0.416-3.851,0.028
			c-5.352,1.893-10.096,11.871-12.259,17.119l7.105,23.94C360.123,406.754,362.344,391.146,357.917,379.927z"/>
		<g>
			<path fill="#1A2E35" d="M355.889,378.533c0.009,0.004-0.027,0.112-0.103,0.312c-0.091,0.229-0.207,0.518-0.348,0.872
				c-0.312,0.753-0.749,1.849-1.271,3.209c-1.047,2.718-2.38,6.519-3.571,10.801c-1.187,4.285-2.004,8.229-2.508,11.098
				c-0.253,1.434-0.444,2.598-0.565,3.404c-0.062,0.376-0.112,0.683-0.151,0.927c-0.038,0.211-0.063,0.322-0.073,0.321
				c-0.01-0.001-0.005-0.114,0.014-0.328c0.026-0.246,0.058-0.555,0.097-0.935c0.087-0.811,0.246-1.982,0.474-3.423
				c0.453-2.883,1.24-6.846,2.43-11.142c1.195-4.293,2.562-8.095,3.66-10.799c0.548-1.353,1.015-2.438,1.359-3.178
				c0.162-0.346,0.294-0.627,0.399-0.851C355.826,378.628,355.88,378.529,355.889,378.533z"/>
		</g>
		<path fill="#375A64" d="M344.141,424.392c-6.66-3.68-10.585-10.603-10.951-18.203c-0.256-5.313,1.376-10.526,3.226-15.513
			c0.16-0.433,0.351-0.899,0.752-1.126c0.559-0.316,1.258-0.035,1.816,0.283c4.839,2.756,7.771,8.009,9.332,13.355
			c1.038,3.557,1.576,7.308,1.096,10.982C348.93,417.845,346.83,421.842,344.141,424.392"/>
		<g>
			<path fill="#1A2E35" d="M344.141,424.392c-0.01,0-0.019-0.111-0.026-0.321c-0.005-0.242-0.01-0.546-0.018-0.919
				c-0.002-0.797-0.034-1.952-0.1-3.375c-0.128-2.847-0.502-6.772-1.236-11.059c-0.739-4.288-1.635-8.128-2.296-10.903
				c-0.326-1.358-0.593-2.471-0.788-3.286c-0.083-0.363-0.151-0.66-0.205-0.896c-0.044-0.206-0.062-0.315-0.052-0.318
				s0.047,0.102,0.109,0.303c0.068,0.233,0.153,0.525,0.258,0.882c0.219,0.768,0.521,1.883,0.879,3.265
				c0.712,2.764,1.643,6.604,2.384,10.904c0.737,4.299,1.079,8.243,1.154,11.101c0.039,1.428,0.04,2.585,0.007,3.384
				c-0.015,0.373-0.028,0.677-0.037,0.919C344.162,424.282,344.151,424.392,344.141,424.392z"/>
		</g>
		<g opacity="0.3">
			<path d="M344.141,424.392c-6.66-3.68-10.585-10.603-10.951-18.203c-0.256-5.313,1.376-10.526,3.226-15.513
				c0.16-0.433,0.351-0.899,0.752-1.126c0.559-0.316,1.258-0.035,1.816,0.283c4.839,2.756,7.771,8.009,9.332,13.355
				c1.038,3.557,1.576,7.308,1.096,10.982C348.93,417.845,346.83,421.842,344.141,424.392"/>
		</g>
		<path fill="#375A64" d="M351.654,464.826c6.555,1.44,11.952,6.063,18.275,8.311c4.184,1.487,8.915,2.013,12.255,4.939
			c-0.801-2.024-2.702-3.371-4.548-4.524c-5.2-3.248-10.768-5.906-16.564-7.907c-2.975-1.027-6.203-1.886-9.234-1.04"/>
		<path fill="#375A64" d="M342.178,470.665c-8.208-0.132-16.851-7.121-25.022-7.538
			C325.706,460.366,337.949,462.621,342.178,470.665"/>
		<path fill="#375A64" d="M345.385,450.974c4.168-1.502,8.745-1.574,13.123-0.893c4.378,0.681,8.607,2.084,12.811,3.482
			c-0.421-2.848-2.728-4.99-4.894-6.885c-1.63-1.426-3.274-2.862-5.144-3.954c-1.871-1.092-4.005-1.832-6.169-1.741
			c-2.611,0.111-5.097,1.458-6.809,3.432C346.589,446.389,345.668,448.376,345.385,450.974"/>
		<path fill="#375A64" d="M328.538,441.911c-5.167-4.412-12.994-3.98-19.786-3.827c10.442,4.992,21.693,11.837,30.686,19.123
			C339.714,452.404,335.065,447.483,328.538,441.911z"/>
		<g opacity="0.3">
			<path d="M328.538,441.911c-5.167-4.412-12.994-3.98-19.786-3.827c10.442,4.992,21.693,11.837,30.686,19.123
				C339.714,452.404,335.065,447.483,328.538,441.911z"/>
		</g>
		<path fill="#375A64" d="M347.709,435.821c2.598-1.732,5.227-3.383,7.946-4.619c2.72-1.236,5.257-3.204,7.884-4.626
			c3.406-1.844,6.357-4.408,9.483-6.695c3.126-2.286,6.561-4.35,10.386-4.956c-3.12-0.644-6.379-0.293-9.452,0.547
			c-3.073,0.839-5.992,2.153-8.896,3.461c-4.031,1.816-8.132,3.676-11.427,6.624C350.339,428.504,347.361,431.413,347.709,435.821"
			/>
		<g>
			<path fill="#1A2E35" d="M369.779,470.665c-0.005,0.009-0.094-0.03-0.26-0.112c-0.194-0.1-0.43-0.223-0.716-0.371
				c-0.618-0.329-1.506-0.816-2.623-1.378c-0.553-0.292-1.166-0.597-1.831-0.909c-0.658-0.327-1.374-0.65-2.131-0.977
				c-1.516-0.647-3.208-1.323-5.054-1.761c-1.84-0.452-3.674-0.551-5.265-0.132c-0.803,0.194-1.559,0.385-2.231,0.666
				c-0.675,0.274-1.277,0.593-1.801,0.925c-1.052,0.662-1.787,1.364-2.263,1.87c-0.476,0.509-0.707,0.821-0.728,0.805
				c-0.008-0.006,0.043-0.089,0.147-0.241c0.103-0.154,0.269-0.371,0.496-0.64c0.456-0.534,1.179-1.27,2.236-1.967
				c0.527-0.349,1.135-0.686,1.821-0.975c0.685-0.297,1.457-0.502,2.261-0.704c1.626-0.445,3.532-0.35,5.395,0.11
				c1.875,0.446,3.576,1.135,5.095,1.799c0.759,0.336,1.474,0.669,2.13,1.006c0.663,0.323,1.273,0.639,1.821,0.944
				c1.108,0.587,1.982,1.103,2.583,1.462c0.276,0.167,0.503,0.306,0.69,0.419C369.705,470.6,369.784,470.656,369.779,470.665z"/>
		</g>
		<g>
			<path fill="#1A2E35" d="M336.055,466.597c0.007-0.019,0.189,0.035,0.514,0.15c0.326,0.111,0.786,0.307,1.338,0.581
				c1.105,0.545,2.557,1.474,3.922,2.781c1.361,1.311,2.347,2.726,2.936,3.808c0.296,0.541,0.511,0.991,0.634,1.313
				c0.128,0.32,0.189,0.5,0.171,0.508c-0.047,0.021-0.354-0.674-0.984-1.717c-0.628-1.043-1.623-2.411-2.96-3.701
				c-1.341-1.284-2.749-2.224-3.816-2.809C336.743,466.923,336.036,466.645,336.055,466.597z"/>
		</g>
		<g>
			<path fill="#1A2E35" d="M317.894,441.498c0.003-0.01,0.124,0.026,0.35,0.103c0.254,0.09,0.581,0.207,0.985,0.351
				c0.438,0.161,0.957,0.353,1.554,0.573c0.605,0.225,1.263,0.557,2.007,0.885c2.955,1.342,6.888,3.6,10.686,6.809
				c1.873,1.63,3.567,3.288,4.983,4.907c1.411,1.623,2.606,3.149,3.537,4.481c0.937,1.328,1.648,2.433,2.135,3.198
				c0.231,0.361,0.417,0.653,0.562,0.88c0.127,0.202,0.19,0.311,0.182,0.317c-0.008,0.006-0.087-0.092-0.23-0.283
				c-0.144-0.191-0.352-0.477-0.608-0.851c-0.517-0.746-1.252-1.833-2.208-3.141c-0.95-1.312-2.156-2.818-3.571-4.423
				c-1.42-1.601-3.11-3.243-4.971-4.863c-3.775-3.189-7.664-5.46-10.585-6.844c-0.735-0.338-1.384-0.682-1.981-0.921
				c-0.588-0.237-1.1-0.444-1.531-0.617c-0.396-0.165-0.716-0.298-0.964-0.402C318.004,441.562,317.89,441.508,317.894,441.498z"/>
		</g>
		<g>
			<path fill="#1A2E35" d="M357.702,446.36c-0.005,0.019-0.239-0.012-0.654-0.084c-0.226-0.042-0.476-0.088-0.754-0.139
				c-0.293-0.057-0.636-0.058-1.008-0.097c-1.476-0.107-3.627,0.015-5.641,1.113c-1.017,0.514-1.869,1.209-2.567,1.905
				c-0.708,0.691-1.245,1.411-1.65,2.04c-0.824,1.261-1.078,2.171-1.128,2.154c-0.016-0.004,0.03-0.236,0.167-0.64
				c0.151-0.397,0.383-0.974,0.786-1.623c0.389-0.655,0.92-1.403,1.634-2.121c0.703-0.723,1.575-1.444,2.622-1.974
				c2.078-1.133,4.303-1.224,5.796-1.06c0.378,0.052,0.724,0.069,1.018,0.142c0.277,0.07,0.527,0.133,0.752,0.189
				C357.484,446.272,357.707,446.34,357.702,446.36z"/>
		</g>
		<g>
			<path fill="#1A2E35" d="M365.952,420.766c0.004,0.009-0.103,0.075-0.311,0.191c-0.236,0.128-0.54,0.293-0.916,0.497
				c-0.796,0.429-1.942,1.062-3.335,1.883c-1.386,0.831-3.018,1.852-4.755,3.094c-1.732,1.244-3.592,2.691-5.309,4.448
				c-0.847,0.884-1.627,1.807-2.171,2.811c-0.538,1.033-1.052,2.03-1.524,2.989c-0.949,1.915-1.722,3.677-2.281,5.192
				c-0.557,1.515-0.904,2.777-1.109,3.656c-0.21,0.879-0.286,1.374-0.315,1.369c-0.01-0.001,0.002-0.126,0.033-0.363
				c0.03-0.237,0.08-0.586,0.171-1.03c0.172-0.891,0.491-2.168,1.026-3.702c0.536-1.532,1.294-3.313,2.233-5.24
				c0.467-0.965,0.977-1.967,1.512-3.002c0.565-1.05,1.358-1.986,2.216-2.883c1.738-1.779,3.615-3.226,5.364-4.465
				c1.754-1.236,3.404-2.242,4.807-3.053c1.41-0.8,2.573-1.406,3.387-1.805c0.387-0.184,0.699-0.333,0.942-0.449
				C365.831,420.805,365.947,420.757,365.952,420.766z"/>
		</g>
		<g>
			<path fill="#1A2E35" d="M342.934,445.62c-0.02,0.003-0.077-0.244-0.163-0.692c-0.096-0.506-0.216-1.141-0.359-1.896
				c-0.313-1.598-0.791-3.799-1.552-6.16c-0.755-2.364-1.673-4.421-2.344-5.905c-0.319-0.7-0.587-1.288-0.8-1.757
				c-0.187-0.416-0.281-0.651-0.263-0.66c0.018-0.009,0.147,0.208,0.365,0.61c0.218,0.401,0.524,0.987,0.885,1.719
				c0.72,1.464,1.675,3.521,2.436,5.904c0.767,2.379,1.216,4.601,1.477,6.213c0.129,0.807,0.221,1.462,0.268,1.916
				C342.936,445.365,342.954,445.617,342.934,445.62z"/>
		</g>
		<path fill="#375A64" d="M342.341,426.945c-0.206-3.101-1.216-6.115-2.669-8.862c-3.984-7.533-11.472-13.117-19.828-14.787
			c6.119,9.12,12.238,18.24,18.357,27.361l2.371,4.883C342.188,432.887,342.547,430.046,342.341,426.945z"/>
	</g>
	<g>
		<g>
			<rect x="325.987" y="480.866" fill="#EB8B23" width="42.686" height="7.566"/>
		</g>
		<g>
			<polygon fill="#EB8B23" points="329.175,486.931 332.81,510.406 361.148,510.406 365.485,486.931 			"/>
		</g>
		<g>
			<g>
				<ellipse fill="#1A2E35" cx="347.145" cy="488.441" rx="21.504" ry="0.15"/>
			</g>
		</g>
	</g>
</g>
<g>
	<g>
		<g>
			<g>
				<g>
					<g>
						<g>
							<path fill="#FFFFFF" d="M526.543,217.748l-2.263-5.372c1.345-4.195,1.462-8.848,0.026-13.431
								c-3.388-10.809-14.658-17.386-25.74-15.042c-12.805,2.708-20.541,15.829-16.588,28.41c3.355,10.68,14.4,17.241,25.387,15.096
								c5.453-1.064,10.004-4.012,13.165-8.007l-0.005,0.012L526.543,217.748z"/>
						</g>
						<g>
							<g>
								<path fill="#1A2E35" d="M526.543,217.748c0.008,0.004-0.115,0.045-0.367,0.122c-0.281,0.084-0.656,0.196-1.135,0.34
									c-1.05,0.306-2.554,0.743-4.488,1.307c-0.056,0.016-0.115-0.016-0.131-0.072c-0.007-0.024-0.004-0.051,0.005-0.073
									l0.005-0.011l0.181,0.108c-1.7,2.173-4.414,4.826-8.464,6.621c-2.012,0.9-4.335,1.545-6.873,1.819
									c-2.538,0.252-5.292,0.063-8.054-0.689c-2.755-0.764-5.505-2.108-7.966-4.041c-2.452-1.93-4.654-4.437-6.141-7.457
									c-1.509-3-2.371-6.442-2.412-9.99c-0.064-3.552,0.835-7.187,2.542-10.462c1.714-3.323,4.228-6.154,7.211-8.15
									c2.963-2.028,6.334-3.251,9.689-3.724c3.365-0.492,6.71-0.072,9.71,0.877c3.008,0.96,5.682,2.501,7.871,4.371
									c2.185,1.88,3.891,4.073,5.108,6.33c0.277,0.578,0.549,1.147,0.817,1.706c0.254,0.565,0.431,1.15,0.645,1.708
									c0.408,1.123,0.665,2.25,0.861,3.335c0.762,4.372,0.072,8.094-0.776,10.686l-0.003-0.072
									c0.703,1.735,1.251,3.089,1.636,4.04c0.172,0.434,0.307,0.775,0.409,1.031C526.509,217.637,526.551,217.752,526.543,217.748
									c-0.008-0.004-0.067-0.127-0.173-0.362c-0.115-0.258-0.268-0.6-0.462-1.036c-0.405-0.926-0.983-2.244-1.723-3.933
									c-0.01-0.023-0.01-0.05-0.003-0.072c0.797-2.582,1.433-6.265,0.644-10.564c-0.202-1.067-0.464-2.175-0.875-3.276
									c-0.214-0.547-0.392-1.121-0.646-1.674c-0.267-0.547-0.538-1.104-0.814-1.67c-1.21-2.209-2.896-4.351-5.048-6.184
									c-2.157-1.823-4.784-3.322-7.732-4.252c-2.941-0.919-6.213-1.32-9.5-0.832c-3.279,0.47-6.572,1.671-9.463,3.655
									c-2.911,1.953-5.364,4.72-7.039,7.965c-1.667,3.199-2.548,6.748-2.488,10.217c0.037,3.465,0.874,6.833,2.341,9.767
									c1.446,2.955,3.593,5.412,5.987,7.311c2.403,1.901,5.092,3.23,7.79,3.992c2.704,0.751,5.405,0.952,7.9,0.72
									c2.494-0.252,4.786-0.87,6.774-1.739c4.004-1.732,6.714-4.318,8.434-6.443c0.036-0.047,0.103-0.055,0.149-0.019
									c0.039,0.03,0.05,0.084,0.032,0.127l-0.005,0.011l-0.126-0.144c1.922-0.504,3.415-0.896,4.458-1.169
									c0.495-0.126,0.883-0.225,1.173-0.299C526.394,217.777,526.534,217.744,526.543,217.748z"/>
							</g>
						</g>
					</g>
				</g>
			</g>
		</g>
	</g>
	<g>
		<g>
			<circle fill="#1A2E35" cx="495.553" cy="206.216" r="2.427"/>
		</g>
		<g>
			<circle fill="#1A2E35" cx="503.729" cy="206.216" r="2.427"/>
		</g>
		<g>
			<circle fill="#1A2E35" cx="511.69" cy="206.216" r="2.427"/>
		</g>
	</g>
</g>
<g>
	<g>
		<g>
			<g>
				<g>
					<g>
						<g>
							<g>
								<g>
									<g>
										<g>
											<g>
												<g>
													<g>
														<path fill="#FFFFFF" d="M231.762,171.971l1.056-6.196c-1.869-3.273-2.886-7.087-2.751-11.131
															c0.387-11.629,10.129-20.742,21.758-20.355c11.629,0.387,20.742,10.129,20.355,21.758
															c-0.387,11.629-10.129,20.742-21.758,20.355c-4.856-0.162-9.269-1.959-12.739-4.839l0.007,0.01L231.762,171.971z"/>
														<g>
															<path fill="#1A2E35" d="M231.762,171.971c-0.006,0.005,0.119,0.002,0.369-0.009c0.274-0.014,0.647-0.032,1.127-0.056
																c1.032-0.057,2.519-0.139,4.437-0.246c0.048-0.003,0.085-0.044,0.083-0.092c-0.001-0.017-0.008-0.034-0.017-0.047
																l-0.007-0.01l-0.129,0.119c2.016,1.692,5.082,3.614,9.216,4.489c1.029,0.213,2.117,0.358,3.252,0.416
																c0.567,0.038,1.146-0.003,1.734-0.001c0.294-0.01,0.592,0.005,0.889-0.026c0.297-0.034,0.597-0.069,0.899-0.104
																c2.414-0.271,4.95-0.985,7.369-2.251c2.417-1.261,4.712-3.072,6.601-5.385c1.89-2.307,3.366-5.118,4.162-8.225
																c0.806-3.103,0.854-6.498,0.133-9.802c-0.32-1.666-0.964-3.268-1.682-4.84c-0.814-1.524-1.718-3.036-2.898-4.353
																c-1.108-1.357-2.439-2.487-3.806-3.52c-1.422-0.955-2.887-1.842-4.466-2.423c-3.116-1.245-6.447-1.744-9.615-1.46
																c-3.171,0.263-6.169,1.239-8.742,2.704c-2.579,1.463-4.737,3.406-6.383,5.558c-3.315,4.331-4.508,9.364-4.366,13.533
																c0.132,4.214,1.48,7.583,2.816,9.88l-0.011-0.06c-0.319,2.013-0.566,3.57-0.737,4.647
																c-0.077,0.503-0.136,0.893-0.18,1.178C231.773,171.846,231.756,171.976,231.762,171.971c0,0,0.035-0.146,0.087-0.417
																c0.054-0.289,0.129-0.684,0.224-1.194c0.193-1.059,0.473-2.59,0.834-4.57c0.004-0.021-0.001-0.043-0.011-0.06
																c-1.292-2.296-2.589-5.64-2.689-9.798c-0.11-4.116,1.095-9.059,4.371-13.302c1.627-2.108,3.753-4.008,6.289-5.436
																c2.53-1.43,5.471-2.379,8.581-2.631c3.108-0.273,6.372,0.222,9.422,1.444c1.546,0.571,2.98,1.441,4.373,2.377
																c1.338,1.013,2.643,2.12,3.728,3.45c1.156,1.289,2.041,2.772,2.84,4.263c0.703,1.539,1.336,3.108,1.65,4.74
																c0.71,3.236,0.669,6.565-0.116,9.608c-0.774,3.047-2.215,5.808-4.063,8.078c-1.847,2.275-4.095,4.063-6.465,5.312
																c-2.372,1.255-4.862,1.969-7.238,2.249c-0.297,0.036-0.592,0.072-0.885,0.108c-0.293,0.032-0.587,0.019-0.876,0.03
																c-0.58,0.001-1.15,0.046-1.709,0.012c-1.119-0.05-2.193-0.186-3.21-0.388c-4.085-0.832-7.136-2.7-9.16-4.349
																c-0.037-0.031-0.093-0.027-0.124,0.011c-0.026,0.031-0.026,0.077-0.004,0.109l0.007,0.009l0.066-0.139
																c-1.89,0.15-3.356,0.266-4.373,0.347c-0.489,0.041-0.869,0.074-1.147,0.097
																C231.904,171.951,231.762,171.971,231.762,171.971z"/>
														</g>
													</g>
												</g>
											</g>
										</g>
									</g>
								</g>
							</g>
						</g>
					</g>
				</g>
			</g>
		</g>
	</g>
	<g>
		<g>
			<g>
				<g>
					<g>
						<g>
							<g>
								<g>
									<g>
										<polygon fill="#EB8B23" points="242.018,156.793 244.344,154.467 248.829,158.454 257.632,149.982 259.792,152.308 
											248.497,162.939 										"/>
									</g>
								</g>
							</g>
						</g>
					</g>
				</g>
			</g>
		</g>
	</g>
</g>
<g>
	<g>
		<path d="M615.477,399.667c0.028-0.261,0.052-0.523,0.064-0.784c0.223-5.012-1.812-9.815-3.772-14.436
			c-5.253-12.387-10.336-25.528-8.859-38.896c1.952-17.677,14.95-32.297,19.59-49.394c0.546-2.012,2.394-3.397,4.484-3.397h0
			c3.138,0,5.415,3.041,4.453,6.019c-5.168,15.989-16.958,30.005-18.81,46.772c-1.476,13.368,3.606,26.509,8.859,38.896
			c1.96,4.62,3.995,9.424,3.772,14.436c-0.223,5.012-3.447,10.279-8.413,11.082h-0.481h-9.236h-64.15c-2.573,0-4.66-2.08-4.66-4.646
			v-1.006c0-2.566,2.086-4.646,4.66-4.646H615.477z"/>
	</g>
	<g>
		<path d="M630.331,510.406H523.14c-1.497,0-2.891-0.736-3.822-2.019c-1.068-1.472-1.361-3.408-0.783-5.179l30.512-93.501
			l1.592,0.52l-30.513,93.501c-0.412,1.263-0.208,2.637,0.546,3.676c0.612,0.844,1.511,1.328,2.467,1.328h107.191
			c0.942,0,1.802-0.45,2.421-1.266c0.75-0.99,0.991-2.326,0.642-3.572l-26.223-93.701l1.612-0.451l26.223,93.701
			c0.489,1.749,0.145,3.63-0.921,5.036C633.156,509.703,631.787,510.406,630.331,510.406z"/>
	</g>
</g>
<g>
	<g>
		<path fill="#7C4235" d="M479.989,340.689c0,0,3.904-9.487,7.76-11.493c3.856-2.006,8.767-3.29,8.767-3.29h17.168l0.17,11.114
			c0,0-2.48,2.485-5.878,2.015c-3.398-0.47-11.882-2.567-11.882-2.567l-4.188,0.229l-3.859,4.95c0,0-3.133,0.952-2.03-2.013
			s1.595-4.271,1.595-4.271s-3.707,5.768-5.129,6.033C481.061,341.663,479.989,340.689,479.989,340.689z"/>
	</g>
	<g>
		<path fill="#C27460" d="M550.945,304.913l-13.662,19.65l-23.599,1.343l-0.321,10.781l17.781,3.501
			c9.235,1.818,18.775-1.014,25.522-7.577l0,0l2.602-23.768L550.945,304.913z"/>
	</g>
</g>
<g>
	<g>
		<g>
			<g>
				<g>
					<g>
						<g>
							<g>
								<g>
									<g>
										<g>
											<g>
												<g>
													<g>
														<g>
															<g>
																<g>
																	<path d="M540.35,467.893l15.88,15.529c0,0-11.465,22.134-8.827,25.303l33.148-31.192l-23.686-25.26L540.35,467.893
																		z"/>
																</g>
															</g>
														</g>
													</g>
												</g>
											</g>
										</g>
									</g>
								</g>
							</g>
						</g>
					</g>
				</g>
			</g>
		</g>
		<g>
			<g>
				<g>
					<g>
						<g>
							<g>
								<g>
									<g>
										<g>
											<g>
												<g>
													<g>
														<g>
															<g>
																<g>
																	<g>
																		<path fill="#E1E1E1" d="M565.196,472.422c0.798-0.438,1.887-0.175,2.317,0.576
																			c0.431,0.751,0.11,1.869-0.682,2.321c-0.791,0.452-2.11,0.176-2.45-0.624c-0.341-0.799,0.107-2.095,0.975-2.351"
																			/>
																	</g>
																</g>
															</g>
														</g>
													</g>
												</g>
											</g>
										</g>
									</g>
								</g>
							</g>
						</g>
					</g>
				</g>
			</g>
		</g>
		<g>
			<g>
				<g>
					<g>
						<g>
							<g>
								<g>
									<g>
										<g>
											<g>
												<g>
													<g>
														<g>
															<g>
																<g>
																	<path fill="#375A64" d="M580.551,477.533l-2.493-2.448l-30.85,30.822c0,0-0.902,1.995,0.194,2.818L580.551,477.533
																		z"/>
																</g>
															</g>
														</g>
													</g>
												</g>
											</g>
										</g>
									</g>
								</g>
							</g>
						</g>
					</g>
				</g>
			</g>
		</g>
		<g>
			<g>
				<g>
					<g>
						<g>
							<g>
								<g>
									<g>
										<g>
											<g>
												<g>
													<g>
														<g>
															<g>
																<g>
																	<g>
																		<path fill="#FFFFFF" d="M555.542,483.769c0.15,0.148,1.025-0.545,2.287-0.803
																			c1.257-0.291,2.295-0.016,2.386-0.217c0.121-0.17-0.986-0.856-2.509-0.516
																			C556.18,482.558,555.374,483.662,555.542,483.769z"/>
																	</g>
																</g>
															</g>
														</g>
													</g>
												</g>
											</g>
										</g>
									</g>
								</g>
							</g>
						</g>
					</g>
				</g>
			</g>
		</g>
		<g>
			<g>
				<g>
					<g>
						<g>
							<g>
								<g>
									<g>
										<g>
											<g>
												<g>
													<g>
														<g>
															<g>
																<g>
																	<g>
																		<path fill="#FFFFFF" d="M553.35,488.397c0.103,0.183,1.051-0.217,2.212-0.089
																			c1.167,0.094,1.968,0.662,2.123,0.504c0.175-0.119-0.561-1.118-2.01-1.251
																			C554.229,487.416,553.216,488.248,553.35,488.397z"/>
																	</g>
																</g>
															</g>
														</g>
													</g>
												</g>
											</g>
										</g>
									</g>
								</g>
							</g>
						</g>
					</g>
				</g>
			</g>
		</g>
		<g>
			<g>
				<g>
					<g>
						<g>
							<g>
								<g>
									<g>
										<g>
											<g>
												<g>
													<g>
														<g>
															<g>
																<g>
																	<g>
																		<path fill="#FFFFFF" d="M555.097,494.18c0.178-0.106-0.32-1.081-1.528-1.526
																			c-1.205-0.454-2.281-0.066-2.229,0.126c0.028,0.212,0.944,0.198,1.93,0.579
																			C554.265,493.716,554.921,494.317,555.097,494.18z"/>
																	</g>
																</g>
															</g>
														</g>
													</g>
												</g>
											</g>
										</g>
									</g>
								</g>
							</g>
						</g>
					</g>
				</g>
			</g>
		</g>
		<g>
			<g>
				<g>
					<g>
						<g>
							<g>
								<g>
									<g>
										<g>
											<g>
												<g>
													<g>
														<g>
															<g>
																<g>
																	<g>
																		<path fill="#FFFFFF" d="M552.34,479.809c0.2,0.075,0.743-0.834,1.713-1.636c0.955-0.821,1.941-1.201,1.902-1.412
																			c-0.011-0.199-1.242-0.109-2.372,0.851C552.446,478.563,552.147,479.764,552.34,479.809z"/>
																	</g>
																</g>
															</g>
														</g>
													</g>
												</g>
											</g>
										</g>
									</g>
								</g>
							</g>
						</g>
					</g>
				</g>
			</g>
		</g>
	</g>
</g>
<g>
	<path d="M542.216,357.209c-2.903,0-73.639,20.605-81.293,27.57c-7.654,6.965-13.38,93.158-13.38,93.158l29.659,10.168
		c0,0,6.251-42.095,10.039-55.691c3.012-10.807,2.319-20.9,2.319-20.9l58.726-25.575L542.216,357.209z"/>
</g>
<g>
	<g>
		<path d="M544,361.766c-1.32,0.58-52.713,22.523-57.543,37.224c-3.936,11.98,0.64,22.528,6.139,30.772
			c6.207,9.306,51.727,50.844,51.727,50.844l25.692-18.37l-44.046-45.488c0,0,23.11-14.266,23.902-14.266s24.815-1.588,32.431-2.45
			c7.111-0.805,11.002-11.002,11.002-11.002l6.343-29.237l-47.664-11L544,361.766z"/>
	</g>
	<g>
		<g>
			<path fill="#375A64" d="M544,361.766c0,0,0.165-0.293,0.502-0.855c0.343-0.566,0.847-1.398,1.51-2.493
				c1.341-2.197,3.323-5.442,5.902-9.667l0.03-0.049l0.056,0.013c10.63,2.436,27.008,6.19,47.681,10.928l0.147,0.034l-0.032,0.148
				c-1.899,8.79-4.032,18.663-6.318,29.242l-0.003,0.015l-0.004,0.011c-1.087,2.615-2.554,5.133-4.526,7.329
				c-0.987,1.092-2.153,2.06-3.485,2.773c-0.33,0.186-0.666,0.361-1.031,0.474c-0.362,0.116-0.705,0.3-1.088,0.348
				c-0.375,0.07-0.753,0.16-1.129,0.213l-1.126,0.119c-6.017,0.594-12.241,1.039-18.642,1.506c-3.202,0.218-6.447,0.439-9.734,0.664
				c-0.823,0.05-1.649,0.1-2.477,0.15l-0.319,0.014c-0.069-0.003-0.06,0.022-0.091,0.025c-0.019,0.002-0.082,0.036-0.121,0.053
				c-0.177,0.077-0.362,0.181-0.543,0.272l-1.088,0.601c-1.446,0.823-2.889,1.677-4.337,2.54
				c-5.789,3.461-11.671,7.067-17.654,10.753l0.041-0.328c10.969,11.326,22.526,23.258,34.397,35.516
				c3.243,3.35,6.463,6.675,9.652,9.969l0.176,0.182l-0.206,0.147c-8.762,6.263-17.344,12.398-25.694,18.367l-0.141,0.101
				l-0.127-0.117c-9.199-8.431-18.033-16.682-26.419-24.699c-4.192-4.009-8.27-7.962-12.192-11.885
				c-3.92-3.922-7.727-7.774-11.157-11.787c-0.449-0.483-0.819-1.036-1.226-1.552c-0.399-0.523-0.807-1.038-1.143-1.596
				c-0.711-1.089-1.388-2.191-2.012-3.312c-1.26-2.235-2.345-4.529-3.192-6.871c-0.845-2.342-1.461-4.731-1.771-7.125
				c-0.305-2.394-0.31-4.781-0.049-7.094c0.251-2.317,0.787-4.55,1.601-6.649c0.902-2.082,2.333-3.799,3.791-5.365
				c2.995-3.086,6.279-5.578,9.48-7.807c6.43-4.436,12.571-7.873,17.984-10.774c5.422-2.892,10.154-5.206,14.03-7.045
				c3.877-1.839,6.903-3.195,8.956-4.097c1.024-0.443,1.805-0.781,2.338-1.011C543.727,361.87,544,361.766,544,361.766
				s-0.264,0.129-0.786,0.363c-0.529,0.238-1.305,0.588-2.322,1.046c-2.043,0.925-5.058,2.303-8.923,4.162
				c-3.865,1.86-8.585,4.193-13.993,7.101c-5.399,2.917-11.524,6.37-17.928,10.81c-3.187,2.23-6.455,4.724-9.418,7.79
				c-1.441,1.553-2.849,3.257-3.719,5.278c-0.791,2.047-1.325,4.281-1.567,6.564c-0.254,2.287-0.245,4.646,0.06,7.012
				c0.311,2.367,0.923,4.73,1.764,7.05c0.843,2.32,1.922,4.595,3.177,6.813c0.621,1.112,1.296,2.207,2.005,3.289
				c0.336,0.556,0.739,1.061,1.133,1.576c0.403,0.509,0.765,1.05,1.214,1.532c3.417,3.988,7.228,7.836,11.148,11.751
				c3.922,3.916,8.002,7.863,12.196,11.868c8.389,8.008,17.227,16.253,26.427,24.677l-0.268-0.016
				c8.348-5.971,16.928-12.108,25.689-18.373l-0.03,0.328c-3.189-3.293-6.409-6.619-9.653-9.968
				c-11.869-12.26-23.423-24.195-34.389-35.523l-0.184-0.19l0.225-0.138c5.986-3.684,11.87-7.287,17.665-10.746
				c1.45-0.863,2.894-1.717,4.346-2.542l1.098-0.606c0.19-0.096,0.367-0.196,0.57-0.285c0.057-0.023,0.084-0.044,0.165-0.069
				c0.07-0.02,0.173-0.048,0.21-0.043l0.302-0.013c0.826-0.049,1.649-0.099,2.47-0.148c3.286-0.221,6.531-0.44,9.731-0.655
				c6.399-0.461,12.626-0.9,18.632-1.486c1.519-0.097,2.949-0.401,4.238-1.108c1.284-0.685,2.421-1.624,3.389-2.692
				c1.932-2.144,3.396-4.647,4.463-7.207l-0.008,0.026c2.303-10.575,4.453-20.445,6.367-29.231l0.115,0.182
				c-20.659-4.8-37.025-8.604-47.648-11.072l0.085-0.036c-2.613,4.214-4.62,7.451-5.978,9.642c-0.677,1.083-1.191,1.907-1.541,2.466
				C544.183,361.494,544,361.766,544,361.766z"/>
		</g>
	</g>
</g>
<g>
	<g>
		<g>
			<g>
				<g>
					<g>
						<g>
							<g>
								<g>
									<g>
										<path d="M548.676,221.185c-2.314,0.471-4.862-1.036-5.563-3.292c-0.701-2.255,0.542-4.941,2.715-5.866
											c-1.584-1.363-2.161-3.774-1.367-5.707c0.794-1.933,2.901-3.24,4.986-3.095c-0.094-2.061,0.961-4.137,2.682-5.276
											c1.72-1.139,4.044-1.299,5.904-0.408c2.1-2.145,5.753-2.538,8.261-0.889c1.964-0.543,4.233,0.329,5.327,2.048
											c1.094,1.719,0.924,4.144-0.399,5.693"/>
									</g>
								</g>
							</g>
						</g>
					</g>
				</g>
			</g>
			<g>
				<g>
					<g>
						<g>
							<g>
								<g>
									<path fill="#C27460" d="M567.74,201.3l-1.055,0.093c-10.615,0.938-18.73,9.87-18.648,20.526
										c0.076,9.911,0.288,20.86,0.82,26.134c1.102,10.92,12.186,11.653,12.186,11.653l0.237,13.215l26.458-3.168l-1.865-47.84
										C585.849,210.478,579.172,200.959,567.74,201.3z"/>
								</g>
							</g>
						</g>
					</g>
					<g>
						<g>
							<g>
								<g>
									<g>
										<g>
											<g>
												<g>
													<g>
														<g>
															<path fill="#7C4235" d="M561.028,259.705c0,0,6.941-0.204,13.876-5.465c0,0-2.815,8.363-13.81,8.343L561.028,259.705
																z"/>
														</g>
													</g>
												</g>
											</g>
										</g>
									</g>
								</g>
							</g>
						</g>
					</g>
					<g>
						<g>
							<g>
								<g>
									<g>
										<g>
											<g>
												<g>
													<g>
														<path fill="#1A2E35" d="M556.962,219.362"/>
													</g>
												</g>
											</g>
										</g>
									</g>
								</g>
							</g>
						</g>
					</g>
					<g>
						<g>
							<g>
								<g>
									<g>
										<g>
											<g>
												<g>
													<path d="M548.645,216.813c0,0,2.278-7.101,5.438-8.99c3.825-2.287,5.933,1.947,9.648,0.546
														c3.714-1.401,7.365-3.594,11.518-0.994c4.545,2.846,2.749,5.283,3.441,10.11c2.806,19.57,6.889,24.814,7.091,15.461
														c0.022-1.025,2.767-2.081,2.805-6.405c0.049-5.608-0.333-12.377-1.923-16.213c-1.34-3.233-3.439-5.363-7.063-7.596
														c-5.721-3.524-13.101-2.958-18.063-2.012C556.575,201.667,547.431,208.282,548.645,216.813z"/>
												</g>
											</g>
										</g>
									</g>
								</g>
							</g>
						</g>
					</g>
					<g>
						<g>
							<g>
								<g>
									<g>
										<g>
											<g>
												<g>
													<path fill="#C27460" d="M585.058,232.71c-0.08-1.693,1.256-3.154,2.951-3.143c2.056,0.013,4.427,0.97,4.665,5.195
														c0.422,7.495-7.19,6.372-7.215,6.158C585.442,240.775,585.206,235.847,585.058,232.71z"/>
												</g>
											</g>
										</g>
									</g>
								</g>
							</g>
						</g>
					</g>
					<g>
						<g>
							<g>
								<g>
									<g>
										<g>
											<g>
												<g>
													<path fill="#7C4235" d="M586.931,238.009c0.031-0.026,0.136,0.084,0.362,0.173c0.22,0.086,0.594,0.134,0.977-0.035
														c0.775-0.335,1.371-1.629,1.332-2.983c-0.019-0.683-0.199-1.325-0.471-1.848c-0.26-0.536-0.636-0.898-1.038-0.947
														c-0.402-0.07-0.671,0.185-0.75,0.401c-0.089,0.215-0.033,0.362-0.072,0.377c-0.02,0.02-0.168-0.117-0.125-0.43
														c0.023-0.15,0.1-0.332,0.268-0.486c0.172-0.156,0.432-0.246,0.711-0.231c0.58,0.007,1.13,0.51,1.429,1.085
														c0.331,0.576,0.549,1.296,0.57,2.063c0.037,1.513-0.656,2.97-1.722,3.344c-0.52,0.167-0.968,0.033-1.205-0.131
														C586.954,238.189,586.906,238.024,586.931,238.009z"/>
												</g>
											</g>
										</g>
									</g>
								</g>
							</g>
						</g>
					</g>
				</g>
				<g>
					<g>
						<g>
							<g>
								<g>
									<g>
										<g>
											<path d="M583.631,218.243c-0.912,0.748-1.877,1.522-3.036,1.741c-1.159,0.219-2.556-0.334-2.856-1.475
												c-0.135-0.513-0.061-1.127-0.438-1.499c-0.45-0.444-1.19-0.227-1.81-0.105c-2.153,0.423-4.904-1.753-5.644-3.818
												c-0.481,0.879-1.672,1.237-2.559,0.77c-0.886-0.466-1.219-0.748-1.942-1.442c-0.723-0.693-1.703-1.284-2.679-1.056
												c-0.546,0.127-1.034,0.502-1.594,0.502c-0.989,0-1.57-1.107-1.805-2.068c-0.235-0.961-0.451-2.087-1.329-2.543
												c-0.813-0.423-1.787-0.051-2.679,0.162c-0.891,0.213-2.077,0.104-2.386-0.759c-0.162-0.453-0.007-0.958,0.215-1.385
												c1.002-1.935,3.467-2.973,5.552-2.338c0.513-2.534,2.652-4.66,5.19-5.157c2.538-0.497,5.321,0.665,6.751,2.819
												c1.453-1.573,3.695-2.377,5.816-2.087c2.121,0.29,4.065,1.668,5.041,3.573c1.776-0.639,3.91-0.119,5.193,1.265
												c1.283,1.384,1.64,3.552,0.869,5.274c1.411,0.649,2.679,1.882,2.844,3.427c0.164,1.544-1.206,3.219-2.735,2.944
												c0.71,1.151,0.363,2.829-0.744,3.605c-1.108,0.776-2.803,0.529-3.643-0.531"/>
										</g>
									</g>
								</g>
							</g>
						</g>
					</g>
				</g>
				<g>
					<g>
						<g>
							<g>
								<g>
									<g>
										<g>
											<g>
												<path fill="#375A64" d="M558.28,205.178c-0.006,0.001-0.001,0.047,0.014,0.137c0.018,0.089,0.035,0.224,0.083,0.395
													c0.099,0.339,0.283,0.838,0.67,1.392c0.388,0.545,0.97,1.163,1.813,1.62c0.828,0.465,1.935,0.775,3.139,0.602
													l-0.141-0.154c-0.175,0.66-0.044,1.421,0.332,2.05c0.36,0.642,0.888,1.192,1.441,1.725
													c0.282,0.254,0.534,0.56,0.912,0.784c0.367,0.214,0.794,0.319,1.223,0.335c0.852,0.033,1.78-0.312,2.329-1.075
													l-0.286-0.055c0.321,1.469,1.298,2.881,2.721,3.668c0.756,0.451,1.663,0.687,2.525,0.587
													c0.865-0.085,1.646-0.41,2.372-0.745l-0.208-0.07c0.484,0.894,1.171,1.631,1.973,2.15
													c0.787,0.519,1.798,0.775,2.666,0.479c1.731-0.529,2.771-2.1,2.885-3.502l-0.162,0.094
													c0.917,0.4,1.861,0.362,2.602,0.15c0.752-0.207,1.322-0.592,1.72-0.957c0.4-0.372,0.623-0.737,0.754-0.987
													c0.118-0.259,0.164-0.4,0.155-0.404c-0.04-0.027-0.197,0.59-0.994,1.296c-0.399,0.339-0.958,0.694-1.683,0.876
													c-0.714,0.188-1.61,0.202-2.458-0.184l-0.147-0.067l-0.015,0.161c-0.123,1.31-1.129,2.778-2.736,3.25
													c-0.787,0.26-1.676,0.03-2.423-0.462c-0.749-0.49-1.405-1.202-1.856-2.042l-0.071-0.133l-0.137,0.062
													c-0.715,0.328-1.47,0.634-2.269,0.71c-0.799,0.088-1.612-0.122-2.333-0.548c-1.344-0.745-2.26-2.066-2.571-3.456
													l-0.078-0.349l-0.209,0.294c-0.462,0.652-1.291,0.977-2.057,0.949c-0.384-0.012-0.763-0.104-1.083-0.288
													c-0.312-0.176-0.574-0.477-0.859-0.734c-0.552-0.523-1.065-1.052-1.406-1.648c-0.357-0.588-0.475-1.257-0.328-1.853
													l0.045-0.184l-0.187,0.029c-1.133,0.178-2.197-0.099-3.003-0.532c-0.822-0.424-1.4-1.009-1.795-1.526
													C558.379,205.95,558.331,205.156,558.28,205.178z"/>
											</g>
										</g>
									</g>
								</g>
							</g>
						</g>
					</g>
				</g>
			</g>
		</g>
	</g>
</g>
<g>
	<g>
		<g>
			<g>
				<g>
					<g>
						<g>
							<g>
								<g>
									<g>
										<g>
											<g>
												<g>
													<g>
														<g>
															<g>
																<g>
																	<path d="M454.287,466.845l-3.454,23.977c0,0-26.869,4.151-27.962,8.513l48.801,9.113l6.998-37.114L454.287,466.845
																		z"/>
																</g>
															</g>
														</g>
													</g>
												</g>
											</g>
										</g>
									</g>
								</g>
							</g>
						</g>
					</g>
				</g>
			</g>
		</g>
		<g>
			<g>
				<g>
					<g>
						<g>
							<g>
								<g>
									<g>
										<g>
											<g>
												<g>
													<g>
														<g>
															<g>
																<g>
																	<g>
																		<path fill="#E1E1E1" d="M466.29,491.637c0.9,0.421,1.368,1.549,0.984,2.412c-0.385,0.863-1.575,1.3-2.482,0.894
																			c-0.907-0.406-1.513-1.744-1.028-2.559c0.484-0.814,1.914-1.254,2.697-0.655"/>
																	</g>
																</g>
															</g>
														</g>
													</g>
												</g>
											</g>
										</g>
									</g>
								</g>
							</g>
						</g>
					</g>
				</g>
			</g>
		</g>
		<g>
			<g>
				<g>
					<g>
						<g>
							<g>
								<g>
									<g>
										<g>
											<g>
												<g>
													<g>
														<g>
															<g>
																<g>
																	<path fill="#375A64" d="M471.672,508.448l0.551-3.771l-46.996-7.327c0,0-2.336,0.49-2.356,1.985L471.672,508.448z"
																		/>
																</g>
															</g>
														</g>
													</g>
												</g>
											</g>
										</g>
									</g>
								</g>
							</g>
						</g>
					</g>
				</g>
			</g>
		</g>
		<g>
			<g>
				<g>
					<g>
						<g>
							<g>
								<g>
									<g>
										<g>
											<g>
												<g>
													<g>
														<g>
															<g>
																<g>
																	<g>
																		<path fill="#FFFFFF" d="M450.085,490.439c-0.034,0.227,1.14,0.552,2.179,1.496c1.065,0.92,1.491,2.01,1.726,1.962
																			c0.227-0.003,0.119-1.419-1.161-2.542C451.561,490.222,450.071,490.222,450.085,490.439z"/>
																	</g>
																</g>
															</g>
														</g>
													</g>
												</g>
											</g>
										</g>
									</g>
								</g>
							</g>
						</g>
					</g>
				</g>
			</g>
		</g>
		<g>
			<g>
				<g>
					<g>
						<g>
							<g>
								<g>
									<g>
										<g>
											<g>
												<g>
													<g>
														<g>
															<g>
																<g>
																	<g>
																		<path fill="#FFFFFF" d="M444.599,491.488c-0.094,0.209,0.867,0.785,1.502,1.891
																			c0.668,1.089,0.684,2.159,0.923,2.194c0.217,0.078,0.624-1.214-0.192-2.575
																			C446.029,491.631,444.644,491.274,444.599,491.488z"/>
																	</g>
																</g>
															</g>
														</g>
													</g>
												</g>
											</g>
										</g>
									</g>
								</g>
							</g>
						</g>
					</g>
				</g>
			</g>
		</g>
		<g>
			<g>
				<g>
					<g>
						<g>
							<g>
								<g>
									<g>
										<g>
											<g>
												<g>
													<g>
														<g>
															<g>
																<g>
																	<g>
																		<path fill="#FFFFFF" d="M440.631,496.748c0.208,0.088,0.746-0.977,0.36-2.327
																			c-0.376-1.353-1.41-2.051-1.545-1.881c-0.169,0.16,0.433,0.959,0.732,2.072
																			C440.504,495.717,440.398,496.682,440.631,496.748z"/>
																	</g>
																</g>
															</g>
														</g>
													</g>
												</g>
											</g>
										</g>
									</g>
								</g>
							</g>
						</g>
					</g>
				</g>
			</g>
		</g>
		<g>
			<g>
				<g>
					<g>
						<g>
							<g>
								<g>
									<g>
										<g>
											<g>
												<g>
													<g>
														<g>
															<g>
																<g>
																	<g>
																		<path fill="#FFFFFF" d="M451.512,485.072c0.062,0.225,1.212,0.117,2.544,0.456
																			c1.338,0.313,2.308,0.936,2.467,0.766c0.168-0.138-0.703-1.164-2.276-1.542
																			C452.677,484.363,451.427,484.872,451.512,485.072z"/>
																	</g>
																</g>
															</g>
														</g>
													</g>
												</g>
											</g>
										</g>
									</g>
								</g>
							</g>
						</g>
					</g>
				</g>
			</g>
		</g>
	</g>
</g>
<g>
	<g>
		<path fill="#FFC285" d="M560.081,274.623l1.002-4.537l26.655-13.236l2.324,3.628c0,0,9.975,8.117,13.794,15.162
			c3.819,7.044-0.711,64.733-1.348,73.152c-1.284,16.966-7.624,39.171-7.624,39.171s-8.553-5.954-33.716-16.286
			c-25.163-10.332-26.511-15.009-26.511-15.009l14.828-18.804L560.081,274.623z"/>
	</g>
	<g>
		<path fill="#FFC285" d="M560.483,276.211c-0.149,0.836-12.196,29.768-12.196,29.768s6.259,3.492,7.132,3.667
			C556.292,309.82,560.483,276.211,560.483,276.211z"/>
	</g>
	<g>
		<g>
			
				<ellipse transform="matrix(0.1569 -0.9876 0.9876 0.1569 175.6843 800.4703)" fill="#EB8B23" cx="556.666" cy="297.339" rx="16.59" ry="0.218"/>
		</g>
	</g>
</g>
<g>
	<g>
		<g>
			<path fill="#C27460" d="M474.71,338.832c0,0,7.18-10.594,11.459-12.454c4.279-1.86,9.632-2.867,9.632-2.867l18.054,2.414
				l-0.321,10.781c0,0-2.84,2.476-6.444,1.719c-3.603-0.757-12.53-3.636-12.53-3.636l-4.501-0.068l-4.502,5.011
				c0,0-3.426,0.785-2.024-2.306c1.402-3.092,2.027-4.454,2.027-4.454s-4.4,5.899-5.942,6.077
				C478.076,339.225,474.71,338.832,474.71,338.832z"/>
		</g>
		<g>
			<path fill="#C27460" d="M569.055,296.402l-12.516,29.087l-42.854,0.417l-0.321,10.781c0,0,41.324,14.57,52.328,11.741
				c11.004-2.83,29.254-41.743,29.254-41.743L569.055,296.402z"/>
		</g>
		<g>
			<g>
				<path fill="#FFC285" d="M579.189,271.86c-1.171,1.061-5.042,5.61-9.175,15.498c-4.133,9.888-9.933,21.443-9.933,21.443
					l29.544,11.777c0,0,6.736-15.496,9.861-22.39c2.38-5.249,4.047-15.574,1.877-20.571
					C599.194,272.62,589.478,262.531,579.189,271.86z"/>
			</g>
			<g>
				<g>
					<path fill="#1A2E35" d="M579.189,271.86c0,0,0.087-0.093,0.271-0.259c0.188-0.161,0.452-0.422,0.834-0.719
						c0.756-0.599,1.929-1.45,3.643-2.153c1.707-0.665,4.045-1.111,6.629-0.491c2.576,0.581,5.259,2.164,7.57,4.527
						c1.153,1.184,2.237,2.559,3.085,4.167c0.832,1.633,1.189,3.533,1.287,5.469c0.185,3.889-0.367,8.046-1.538,12.251
						c-0.567,2.116-1.538,4.16-2.444,6.234c-0.915,2.082-1.85,4.209-2.801,6.374c-1.905,4.329-3.878,8.812-5.899,13.405
						l-0.085,0.193l-0.196-0.078c-0.135-0.054-0.281-0.112-0.428-0.171c-10.464-4.179-20.373-8.137-29.108-11.626l-0.199-0.079
						l0.096-0.192c2.76-5.53,5.204-10.682,7.297-15.3c2.11-4.606,3.701-8.77,5.447-12.016c1.695-3.265,3.294-5.702,4.506-7.272
						c0.604-0.787,1.107-1.362,1.462-1.734C578.975,272.022,579.189,271.86,579.189,271.86c0.004,0.004-0.041,0.054-0.131,0.148
						c-0.1,0.108-0.229,0.248-0.394,0.426c-0.338,0.385-0.824,0.969-1.409,1.765c-1.176,1.588-2.738,4.035-4.397,7.305
						c-1.708,3.246-3.268,7.414-5.358,12.042c-2.071,4.634-4.495,9.797-7.243,15.343l-0.103-0.271
						c8.74,3.477,18.654,7.421,29.124,11.586c0.147,0.059,0.293,0.117,0.428,0.171l-0.28,0.116
						c2.025-4.593,4.001-9.076,5.909-13.405c0.955-2.164,1.893-4.289,2.812-6.371c0.917-2.09,1.872-4.084,2.438-6.174
						c1.17-4.156,1.731-8.287,1.563-12.119c-0.089-1.912-0.431-3.76-1.225-5.336c-0.818-1.57-1.879-2.934-3.007-4.105
						c-2.263-2.341-4.888-3.914-7.406-4.505c-2.525-0.629-4.818-0.219-6.512,0.413c-1.7,0.669-2.881,1.49-3.65,2.065
						c-0.389,0.284-0.661,0.533-0.858,0.683C579.296,271.789,579.189,271.86,579.189,271.86z"/>
				</g>
			</g>
		</g>
		<g>
			<g>
				<path fill="#7C4235" d="M493.652,328.955c0.011,0.139-2.22-0.058-4.569,1.156c-2.372,1.172-3.535,3.085-3.641,2.993
					c-0.042-0.024,0.178-0.533,0.737-1.227c0.554-0.693,1.488-1.536,2.707-2.155c1.221-0.615,2.454-0.866,3.341-0.901
					C493.117,328.782,493.658,328.906,493.652,328.955z"/>
			</g>
		</g>
	</g>
	<g>
		<g>
			<path fill="#7C4235" d="M563.187,310.039c0.01,0.004-0.023,0.106-0.095,0.3c-0.088,0.226-0.198,0.506-0.332,0.849
				c-0.321,0.781-0.761,1.85-1.31,3.183c-1.17,2.768-2.801,6.628-4.731,11.195l-0.05,0.117l-0.129,0.001
				c-3.898,0.045-8.329,0.095-13.016,0.149c-8.219,0.055-15.657,0.105-21.1,0.142c-2.663-0.003-4.835-0.005-6.395-0.007
				c-0.721-0.01-1.298-0.018-1.739-0.024c-0.398-0.01-0.606-0.023-0.606-0.038c0-0.015,0.208-0.032,0.606-0.05
				c0.44-0.015,1.018-0.034,1.738-0.058c1.559-0.032,3.73-0.077,6.393-0.132c5.442-0.07,12.88-0.164,21.099-0.269
				c4.687-0.038,9.119-0.073,13.016-0.105l-0.178,0.118c1.989-4.541,3.67-8.379,4.876-11.132c0.591-1.315,1.065-2.37,1.411-3.14
				c0.157-0.334,0.285-0.605,0.388-0.825C563.125,310.129,563.177,310.035,563.187,310.039z"/>
		</g>
	</g>
</g>
<g>
	<g>
		<g>
			<rect x="175.761" y="348.792" width="8.248" height="161.402"/>
		</g>
		<g>
			<rect x="514.353" y="349.93" width="8.248" height="160.283"/>
		</g>
		<g>
			<rect x="155.153" y="347.201" width="375.62" height="9.739"/>
		</g>
	</g>
	<g>
		<g>
			<path d="M527.157,356.942c0,0.121-43.832,0.218-97.89,0.218c-54.076,0-97.899-0.098-97.899-0.218
				c0-0.12,43.823-0.218,97.899-0.218C483.325,356.724,527.157,356.822,527.157,356.942z"/>
		</g>
	</g>
</g>
<path fill="#1A2E35" d="M419.039,290.23L419.039,290.23c0.988-0.186,1.941,0.463,2.127,1.452l10.165,53.865h49.428
	c0.739,0,1.338,0.599,1.338,1.338l0,0c0,0.739-0.599,1.338-1.338,1.338h-52.422v-0.215l-0.239,0.045l-10.51-55.697
	C417.401,291.369,418.051,290.417,419.039,290.23z"/>
</svg>
