<?xml version="1.0" encoding="utf-8"?>
<!-- Generator: Adobe Illustrator 17.0.0, SVG Export Plug-In . SVG Version: 6.00 Build 0)  -->
<!DOCTYPE svg PUBLIC "-//W3C//DTD SVG 1.1//EN" "http://www.w3.org/Graphics/SVG/1.1/DTD/svg11.dtd">
<svg version="1.1" id="Layer_1" xmlns="http://www.w3.org/2000/svg" xmlns:xlink="http://www.w3.org/1999/xlink" x="0px" y="0px"
	 width="760px" height="520px" viewBox="0 0 760 520" enable-background="new 0 0 760 520" xml:space="preserve">
<g>
	<rect x="41.504" y="450.36" fill="#ECECEC" width="676.991" height="0.338"/>
	<rect x="605.816" y="472.154" fill="#ECECEC" width="44.847" height="0.338"/>
	<rect x="470.651" y="467.572" fill="#ECECEC" width="78.506" height="0.338"/>
	<rect x="531.195" y="459.58" fill="#ECECEC" width="73.266" height="0.338"/>
	<rect x="112.533" y="461.855" fill="#ECECEC" width="20.188" height="0.338"/>
	<rect x="144.776" y="461.855" fill="#ECECEC" width="87.201" height="0.338"/>
	<rect x="287.929" y="467.572" fill="#ECECEC" width="58.42" height="0.338"/>
	<path fill="#ECECEC" d="M362.417,389.974H100.965c-4.262,0-7.729-3.467-7.729-7.729V14.732c0-4.261,3.467-7.728,7.729-7.728
		h261.452c4.26,0,7.727,3.467,7.727,7.728v367.514C370.144,386.507,366.677,389.974,362.417,389.974z M100.965,7.343
		c-4.075,0-7.39,3.315-7.39,7.389v367.514c0,4.075,3.315,7.39,7.39,7.39h261.452c4.074,0,7.389-3.315,7.389-7.39V14.732
		c0-4.075-3.315-7.389-7.389-7.389H100.965z"/>
	<path fill="#ECECEC" d="M655.279,389.974H393.827c-4.26,0-7.727-3.467-7.727-7.729V14.732c0-4.261,3.467-7.728,7.727-7.728h261.452
		c4.262,0,7.729,3.467,7.729,7.728v367.514C663.008,386.507,659.54,389.974,655.279,389.974z M393.827,7.343
		c-4.074,0-7.389,3.315-7.389,7.389v367.514c0,4.075,3.315,7.39,7.389,7.39h261.452c4.075,0,7.39-3.315,7.39-7.39V14.732
		c0-4.075-3.315-7.389-7.39-7.389H393.827z"/>
</g>
<g>
	<g>
		<g>
			<rect x="129.048" y="31.226" fill="#FAFAFA" width="214.455" height="122.464"/>
			<polygon fill="#FFFFFF" points="331.299,153.691 276.752,31.226 235.817,31.226 290.364,153.691 			"/>
			<polygon fill="#FFFFFF" points="221.225,153.691 166.678,31.226 151.747,31.226 206.294,153.691 			"/>
			<g>
				<path fill="#E1E1E1" d="M118.823,25.932h234.906c0.524,0,0.953,0.429,0.953,0.953l0,0c0,0.524-0.429,0.953-0.953,0.953H118.823
					c-0.524,0-0.953-0.429-0.953-0.953l0,0C117.87,26.361,118.299,25.932,118.823,25.932z"/>
				<rect x="235.005" y="30.895" fill="#F0F0F0" width="2.541" height="123.126"/>
				<rect x="233.735" y="30.895" fill="#E1E1E1" width="1.271" height="123.126"/>
				<rect x="127.566" y="91.188" fill="#F0F0F0" width="217.419" height="2.541"/>
				<path fill="#F0F0F0" d="M127.566,152.632L127.566,152.632V32.285v-2.541h2.541h212.337h2.541v2.541v120.347h0v2.542h0l0,0
					h-2.541l0,0H130.107l0,0h-2.541l0,0l0,0V152.632z M342.444,152.632V32.285H130.107v120.347H342.444z"/>
				<rect x="126.296" y="29.744" fill="#E1E1E1" width="1.271" height="125.429"/>
			</g>
		</g>
		<g>
			<polygon opacity="0.5" fill="#ECECEC" points="161.223,21.628 161.223,190.955 116.6,190.955 124.783,21.628 			"/>
			<polygon opacity="0.5" fill="#ECECEC" points="310.059,21.628 310.059,190.955 354.682,190.955 346.498,21.628 			"/>
		</g>
	</g>
	<g>
		<g>
			<rect x="417.766" y="31.226" fill="#FAFAFA" width="214.455" height="122.464"/>
			<polygon fill="#FFFFFF" points="620.018,153.691 565.471,31.226 524.536,31.226 579.082,153.691 			"/>
			<polygon fill="#FFFFFF" points="509.943,153.691 455.397,31.226 440.465,31.226 495.012,153.691 			"/>
			<g>
				<path fill="#E1E1E1" d="M407.541,25.932h234.906c0.524,0,0.953,0.429,0.953,0.953l0,0c0,0.524-0.429,0.953-0.953,0.953H407.541
					c-0.524,0-0.953-0.429-0.953-0.953l0,0C406.588,26.361,407.017,25.932,407.541,25.932z"/>
				<rect x="523.723" y="30.895" fill="#F0F0F0" width="2.541" height="123.126"/>
				<rect x="522.453" y="30.895" fill="#E1E1E1" width="1.271" height="123.126"/>
				<rect x="416.284" y="91.188" fill="#F0F0F0" width="217.419" height="2.541"/>
				<path fill="#F0F0F0" d="M416.284,152.632L416.284,152.632V32.285v-2.541h2.541h212.337h2.541v2.541v120.347h0v2.542h0l0,0
					h-2.541l0,0H418.825l0,0h-2.541l0,0l0,0V152.632z M631.162,152.632V32.285H418.825v120.347H631.162z"/>
				<rect x="415.014" y="29.744" fill="#E1E1E1" width="1.271" height="125.429"/>
			</g>
		</g>
		<g>
			<polygon opacity="0.5" fill="#ECECEC" points="449.941,21.628 449.941,190.955 405.318,190.955 413.502,21.628 			"/>
			<polygon opacity="0.5" fill="#ECECEC" points="598.777,21.628 598.777,190.955 643.4,190.955 635.217,21.628 			"/>
		</g>
	</g>
	<g>
		<rect x="359.616" y="254.498" fill="#ECECEC" width="288.501" height="17.064"/>
		<rect x="359.616" y="254.498" fill="#E1E1E1" width="74.427" height="17.064"/>
		<rect x="622.827" y="271.562" fill="#ECECEC" width="25.289" height="178.798"/>
		<rect x="359.616" y="271.562" fill="#E1E1E1" width="25.289" height="178.798"/>
		<rect x="573.689" y="271.562" fill="#E1E1E1" width="25.289" height="178.798"/>
		<rect x="359.616" y="321.483" fill="#ECECEC" width="288.501" height="17.064"/>
		<rect x="359.616" y="321.483" fill="#E1E1E1" width="74.427" height="17.064"/>
		<rect x="359.616" y="388.468" fill="#ECECEC" width="288.501" height="17.064"/>
		<rect x="359.616" y="388.468" fill="#E1E1E1" width="74.427" height="17.064"/>
		<rect x="408.754" y="271.562" fill="#E1E1E1" width="25.289" height="178.798"/>
	</g>
	<g>
		<g>
			<g>
				<rect x="118.384" y="267.685" fill="#F0F0F0" width="22.82" height="176.533"/>
				<rect x="121.546" y="444.218" fill="#E7E7E7" width="177.329" height="6.142"/>
				<rect x="141.204" y="267.685" fill="#FAFAFA" width="160.832" height="176.533"/>
				<path fill="#FFFFFF" d="M165.573,376.459h112.094c3.264,0,5.911-2.646,5.911-5.91v-30.6c0-3.264-2.646-5.91-5.911-5.91H165.573
					c-3.264,0-5.91,2.646-5.91,5.91v30.6C159.663,373.813,162.309,376.459,165.573,376.459z"/>
				<path fill="#FFFFFF" d="M165.573,431.059h112.094c3.264,0,5.911-2.646,5.911-5.911v-30.6c0-3.264-2.646-5.91-5.911-5.91H165.573
					c-3.264,0-5.91,2.646-5.91,5.91v30.6C159.663,428.413,162.309,431.059,165.573,431.059z"/>
				<path fill="#FAFAFA" d="M230.614,341.369h-17.986c-1.837,0-3.34-1.503-3.34-3.34v-2.478c0-1.837,1.503-3.34,3.34-3.34h17.986
					c1.837,0,3.34,1.503,3.34,3.34v2.478C233.953,339.866,232.45,341.369,230.614,341.369z"/>
				<path fill="#FFFFFF" d="M165.573,321.859h112.094c3.264,0,5.911-2.646,5.911-5.911v-30.599c0-3.264-2.646-5.911-5.911-5.911
					H165.573c-3.264,0-5.91,2.646-5.91,5.911v30.599C159.663,319.213,162.309,321.859,165.573,321.859z"/>
				<path fill="#FAFAFA" d="M230.614,286.769h-17.986c-1.837,0-3.34-1.503-3.34-3.34v-2.478c0-1.837,1.503-3.34,3.34-3.34h17.986
					c1.837,0,3.34,1.503,3.34,3.34v2.478C233.953,285.266,232.45,286.769,230.614,286.769z"/>
				<path fill="#FAFAFA" d="M230.614,395.969h-17.986c-1.837,0-3.34-1.503-3.34-3.34v-2.478c0-1.837,1.503-3.34,3.34-3.34h17.986
					c1.837,0,3.34,1.503,3.34,3.34v2.478C233.953,394.466,232.45,395.969,230.614,395.969z"/>
			</g>
			<rect x="141.204" y="261.97" fill="#F0F0F0" width="164.999" height="5.715"/>
			<rect x="113.912" y="261.97" fill="#E7E7E7" width="27.292" height="5.715"/>
		</g>
		<g>
			<polygon fill="#E7E7E7" points="141.568,205.355 239.853,205.355 247.763,259.004 149.478,259.004 			"/>
			<polygon fill="#E7E7E7" points="149.478,259.004 149.525,261.97 247.815,261.97 247.768,259.004 			"/>
			<polygon fill="#F0F0F0" points="144.593,205.355 242.879,205.355 250.788,259.004 152.503,259.004 			"/>
			<polygon fill="#FFFFFF" points="154.871,256.553 147.684,207.807 240.509,207.807 247.698,256.553 			"/>
			<polygon fill="#F0F0F0" points="178.112,259.004 178.16,261.97 286.392,261.97 286.345,259.004 			"/>
		</g>
	</g>
</g>
<ellipse id="_x3C_Path_x3E__273_" fill="#F5F5F5" cx="380" cy="496.178" rx="262.522" ry="15.332"/>
<g>
	<path d="M197.222,67.139c1.055-8.792,14.959-15.708,26.91-11.56c13.788,4.786,11.607,17.421,20.717,17.91
		c9.111,0.488,13.669,16.643,5.691,24.114s6.675,10.891,7.164,21.311c0.488,10.42,0.536,18.618,9.118,26.376
		c10.808,9.772-5.861,41.262-33.287,26.865c-24.565-12.895-55.326,5.658-60.832-12.252c-4.752-15.457,18.569-32.237,13.684-39.727
		s-1.627-14.532,3.911-23.582C197.091,85.495,180.374,68.93,197.222,67.139z"/>
	<path fill="#E67B62" d="M251.884,140.116c3.352,6.784,6.811,13.705,10.366,20.406c1.805,3.343,3.643,6.653,5.531,9.858
		c1.896,3.165,3.905,6.341,5.919,8.792l0.441,0.533c0.076,0.08,0.156,0.173,0.292,0.258c0.246,0.183,0.634,0.37,1.143,0.541
		c1.023,0.34,2.495,0.497,4.064,0.47c3.171-0.064,6.749-0.68,10.278-1.574c3.556-0.869,7.136-2.003,10.705-3.24
		c3.565-1.212,7.165-2.627,10.614-4.033l3.14,5.712c-6.781,4.414-13.767,8.151-21.51,11.054c-3.892,1.386-7.918,2.656-12.516,3.119
		c-2.303,0.216-4.766,0.277-7.527-0.306c-1.377-0.295-2.829-0.792-4.266-1.584c-0.716-0.384-1.423-0.871-2.09-1.415
		c-0.34-0.261-0.65-0.576-0.966-0.873l-0.641-0.664c-3.148-3.37-5.469-6.692-7.727-10.09c-2.251-3.378-4.301-6.804-6.262-10.262
		c-3.956-6.914-7.56-13.855-10.899-21.107L251.884,140.116z"/>
	<path fill="#FF9E3E" d="M243.941,127.582c5.471-0.191,15.155,19.722,15.155,19.722l-14.247,17.285c0,0-16.626-20.852-14.345-27.595
		C232.88,129.973,235.958,127.861,243.941,127.582z"/>
	<polygon opacity="0.2" points="244.849,132.397 252.251,155.617 245.578,163.691 	"/>
	<path fill="#E67B62" d="M320.586,167.595l-13.092,6.263l-0.241,4.617c3.781,3.786,11.694,1.399,11.694,1.399l9.696-1.26
		l1.251-5.482c0.699-2.886-1.395-5.697-4.36-5.854l-2.648-0.14C322.092,167.095,321.302,167.253,320.586,167.595z"/>
	<polygon fill="#E67B62" points="217.48,485.258 230.351,485.258 231.519,455.452 218.648,455.452 	"/>
	<path d="M231.545,483.768l-14.46,0c-0.526,0-0.916,0.365-0.938,0.879l-0.492,11.441c-0.051,1.187,1.083,2.31,2.295,2.289
		c5.033-0.087,7.432-0.383,13.791-0.383c3.912,0,12.916,0.406,18.318,0.406c5.284,0,5.151-5.342,2.852-5.826
		c-10.306-2.169-15.448-5.161-19.134-8.015C233.112,484.045,232.315,483.768,231.545,483.768z"/>
	<g opacity="0.2">
		<polygon points="231.516,455.46 230.917,470.824 218.04,470.824 218.64,455.46 		"/>
	</g>
	<path fill="#FF9E3E" d="M249.101,133.966c0.285,8.142-1.127,27.14-9.681,71.39l-52.251-1.554
		c1.509-21.24,1.924-34.352-6.942-78.297c0,0,11.019-2.056,22.275-2.263c8.805-0.162,16.018-0.229,23.726,0.707
		c6.046,0.734,12.561,1.99,16.846,2.887C246.485,127.548,248.979,130.484,249.101,133.966z"/>
	<path fill="#E67B62" d="M205.648,96.595c1.269,7.679,2.347,21.711-3.145,26.646c0,0,5.079,9.508,18.12,12.932
		c12.04-6.106,5.606-12.225,5.606-12.225c-8.452-2.286-8.045-8.596-6.386-14.483L205.648,96.595z"/>
	<g>
		<polygon fill="#E1E1E1" points="220.622,136.173 219.065,133.12 210.701,135.013 		"/>
		<path fill="#FFFFFF" d="M219.065,133.12c-2.686-1.221-15.121-9.321-15.61-11.845c-2.181,0-6.234,1.384-6.234,1.384
			s1.584,9.148,11.353,19.68C211.089,136.6,214.436,134.097,219.065,133.12z"/>
		<polygon fill="#E1E1E1" points="220.622,136.173 221.325,133.12 226.453,133.486 		"/>
		<path fill="#FFFFFF" d="M221.325,133.12c4.152-2.748,3.134-8.507,2.73-11.031c2.399,0.224,6.234,1.384,6.234,1.384
			s6.738,8.283,0.632,18.866C228.906,136.906,225.487,134.952,221.325,133.12z"/>
	</g>
	<path opacity="0.2" d="M211.434,101.846l8.402,7.612c-0.398,1.393-0.717,2.809-0.857,4.19c-3.238-0.567-7.6-4.27-7.844-7.685
		C211.014,104.259,211.134,102.629,211.434,101.846z"/>
	<path fill="#E67B62" d="M201.593,80.288c0.564,12.762,0.53,18.175,6.856,24.829c9.516,10.009,25.067,6.525,28.328-6.147
		c2.935-11.407,1.52-30.36-10.871-35.648C213.697,58.113,201.029,67.527,201.593,80.288z"/>
	<path d="M199.823,66.406c4.722,2.361,11.234,1.954,12.455,4.803c1.221,2.849-2.198,19.863-9.28,19.945
		C196.485,82.362,195.508,70.477,199.823,66.406z"/>
	<path d="M200.474,68.523c10.42,6.594,44.795,12.761,33.56-2.117C225.507,55.113,203.079,60.789,200.474,68.523z"/>
	<path d="M239.535,205.355c0,0,5.054,95.088,5.314,134.174c0.27,40.655-11.178,128.319-11.178,128.319h-17.404
		c0,0,3.309-88.625,0.632-128.726c-2.918-43.718-13.087-134.905-13.087-134.905L239.535,205.355z"/>
	<polygon fill="#FF9E3E" points="214.821,468.472 235.242,468.472 236.082,461.959 213.134,461.162 	"/>
	<path opacity="0.2" d="M207.495,238.366c1.873-2.345,4.341-1.128,7.565,5.554c10.992,22.801,5.405,59.185,0.707,80.139
		C213.647,297.976,210.161,263.599,207.495,238.366z"/>
	<path fill="#E67B62" d="M197.937,91.918c0.864,2.503,2.803,4.374,4.775,5.295c2.966,1.386,4.983-1.138,4.606-4.217
		c-0.339-2.771-2.291-6.831-5.483-6.926C198.69,85.977,196.95,89.056,197.937,91.918z"/>
	<path fill="#E67B62" d="M185.486,145.657c-3.713,5.311-7.443,10.991-10.92,16.608c-3.465,5.653-6.777,11.399-9.537,17.24
		l-0.517,1.096l-0.259,0.548c-0.066,0.14-0.022,0.046-0.032,0.053c0.002-0.009-0.004-0.032-0.004-0.032
		c-0.021-0.036-0.119,0.202-0.123,0.621c-0.036,0.839,0.161,2.162,0.53,3.506c0.756,2.729,1.981,5.714,3.371,8.627
		c2.786,5.854,6.151,11.778,9.563,17.496l-5.132,4.019c-4.89-5.155-9.272-10.556-13.196-16.632c-1.92-3.068-3.776-6.229-5.203-9.992
		c-0.698-1.9-1.359-3.924-1.567-6.508c-0.091-1.286-0.053-2.777,0.392-4.461c0.047-0.203,0.128-0.428,0.197-0.641l0.194-0.546
		l0.245-0.632l0.492-1.264c1.296-3.382,2.785-6.63,4.357-9.818c1.544-3.206,3.259-6.29,4.991-9.362
		c3.54-6.131,7.272-11.937,11.557-17.731L185.486,145.657z"/>
	<path fill="#FF9E3E" d="M180.227,125.504c-5.282,1.436-12.106,19.275-12.106,19.275l19.878,15.125c0,0,7.854-14.827,5.856-21.659
		C191.773,131.13,186.255,123.865,180.227,125.504z"/>
	<path fill="#FF9E3E" d="M236.604,486.018c1.28,0,2.44-0.198,3.042-0.792c0.382-0.378,0.516-0.877,0.401-1.485
		c-0.07-0.363-0.277-0.643-0.599-0.81c-1.663-0.864-6.531,1.756-7.079,2.058c-0.109,0.06-0.161,0.185-0.13,0.314
		c0.031,0.128,0.139,0.23,0.268,0.256C233.622,485.775,235.187,486.018,236.604,486.018z M238.629,483.355
		c0.237,0,0.433,0.034,0.58,0.11c0.133,0.069,0.205,0.17,0.235,0.33c0.079,0.411-0.004,0.731-0.251,0.976
		c-0.71,0.702-2.815,0.825-5.716,0.351C235.157,484.275,237.41,483.355,238.629,483.355z"/>
	<path fill="#FF9E3E" d="M232.567,485.563c0.043,0,0.084-0.009,0.122-0.027c1.465-0.693,4.219-3.469,3.834-4.927
		c-0.091-0.345-0.379-0.775-1.232-0.861c-0.63-0.063-1.181,0.114-1.635,0.526c-1.482,1.348-1.429,4.812-1.427,4.959
		c0.002,0.108,0.061,0.212,0.156,0.274C232.441,485.545,232.505,485.563,232.567,485.563z M235.107,480.346
		c0.06,0,0.122,0.003,0.184,0.009c0.562,0.056,0.621,0.279,0.64,0.352c0.231,0.875-1.609,3.059-3.077,4.007
		c0.048-1.009,0.267-3.087,1.239-3.971C234.387,480.477,234.72,480.346,235.107,480.346z"/>
	<polygon fill="#E67B62" points="163.527,485.258 176.398,485.258 180.679,455.452 167.808,455.452 	"/>
	<path d="M176.87,483.768l-14.46,0c-0.526,0-0.958,0.365-1.038,0.879l-1.792,11.441c-0.186,1.187,0.821,2.31,2.035,2.289
		c5.043-0.087,7.476-0.383,13.835-0.383c3.912,0,7.111,0.406,12.514,0.406c5.284,0,5.758-5.342,3.514-5.826
		c-10.059-2.169-9.104-5.161-12.466-8.015C178.405,484.045,177.64,483.768,176.87,483.768z"/>
	<path fill="#FF9E3E" d="M178.937,486.018c1.28,0,2.463-0.198,3.132-0.792c0.425-0.378,0.616-0.877,0.569-1.485
		c-0.028-0.363-0.204-0.643-0.507-0.81c-1.565-0.864-6.73,1.756-7.313,2.058c-0.116,0.06-0.182,0.185-0.165,0.314
		c0.017,0.128,0.112,0.23,0.239,0.256C175.983,485.775,177.519,486.018,178.937,486.018z M181.264,483.355
		c0.236,0,0.429,0.034,0.567,0.11c0.125,0.069,0.186,0.17,0.198,0.33c0.032,0.411-0.087,0.731-0.362,0.976
		c-0.79,0.702-2.909,0.825-5.756,0.351C177.688,484.275,180.045,483.355,181.264,483.355z"/>
	<path fill="#FF9E3E" d="M174.951,485.563c0.043,0,0.085-0.009,0.126-0.027c1.543-0.693,4.613-3.469,4.394-4.927
		c-0.052-0.345-0.291-0.775-1.135-0.861c-0.622-0.063-1.194,0.114-1.695,0.526c-1.635,1.348-1.976,4.812-1.99,4.959
		c-0.01,0.108,0.037,0.212,0.125,0.274C174.828,485.545,174.889,485.563,174.951,485.563z M178.084,480.346
		c0.06,0,0.121,0.003,0.183,0.009c0.556,0.056,0.589,0.279,0.6,0.352c0.132,0.875-1.956,3.059-3.532,4.007
		c0.163-1.009,0.618-3.087,1.69-3.971C177.35,480.477,177.697,480.346,178.084,480.346z"/>
	<g opacity="0.2">
		<polygon points="180.676,455.46 178.471,470.824 165.595,470.824 167.799,455.46 		"/>
	</g>
	<path d="M187.169,203.801c-12.536,19.926-9.039,93.21-11.017,132.336c-2.058,40.696-12.13,131.712-12.13,131.712h17.404
		c0,0,16.711-92.644,24.497-131.92c8.595-43.354,19.055-132.128,19.055-132.128S201.158,203.801,187.169,203.801z"/>
	<polygon fill="#FF9E3E" points="162.858,468.472 183.279,468.472 184.011,461.959 161.049,461.162 	"/>
	<path fill="#FF9E3E" d="M186.478,200.712l-1.475,4.637c-0.193,0.357,0.225,0.74,0.829,0.758l53.777,1.599
		c0.471,0.014,0.868-0.205,0.907-0.5l0.61-4.663c0.042-0.323-0.358-0.609-0.873-0.625l-52.912-1.574
		C186.951,200.333,186.602,200.482,186.478,200.712z"/>
	<g>
		<path fill="#1A2E35" d="M193.408,206.84l-1.417-0.042c-0.282-0.008-0.493-0.16-0.468-0.338l0.845-6.057
			c0.025-0.177,0.276-0.315,0.558-0.307l1.417,0.042c0.282,0.008,0.493,0.16,0.468,0.338l-0.845,6.057
			C193.941,206.71,193.69,206.848,193.408,206.84z"/>
		<path fill="#1A2E35" d="M235.611,208.095l-1.417-0.042c-0.282-0.008-0.493-0.16-0.468-0.338l0.845-6.057
			c0.025-0.177,0.276-0.315,0.558-0.307l1.417,0.042c0.282,0.008,0.493,0.16,0.468,0.338l-0.845,6.057
			C236.144,207.965,235.893,208.103,235.611,208.095z"/>
		<path fill="#1A2E35" d="M214.51,207.467l-1.417-0.042c-0.282-0.008-0.493-0.16-0.468-0.338l0.845-6.057
			c0.025-0.177,0.276-0.315,0.558-0.307l1.417,0.042c0.282,0.008,0.493,0.16,0.468,0.337l-0.845,6.057
			C215.043,207.337,214.792,207.476,214.51,207.467z"/>
	</g>
	<path fill="#E67B62" d="M173.36,208.036l13.704,2.359l-10.011,8.432c0.138,0.085-7.599-2.9-8.375-8.28L173.36,208.036z"/>
	<path fill="#E67B62" d="M190.908,220.993l-3.025,2.28c-1.376,1.037-3.267,1.053-4.66,0.04l-6.17-4.487l10.011-8.432l4.388,4.841
		C192.998,216.942,192.746,219.607,190.908,220.993z"/>
</g>
<g>
	<g>
		<g>
			<g>
				<path fill="#FFFFFF" d="M583.939,398.986H253.056c-6.625,0-12.046-5.421-12.046-12.046V190.604
					c0-6.625,5.421-12.046,12.046-12.046h330.884c6.625,0,12.046,5.421,12.046,12.046V386.94
					C595.985,393.566,590.565,398.986,583.939,398.986z"/>
				<path d="M583.939,399.673H253.056c-7.021,0-12.732-5.712-12.732-12.732V190.604c0-7.021,5.712-12.733,12.732-12.733h330.883
					c7.02,0,12.733,5.712,12.733,12.733v196.337C596.672,393.961,590.959,399.673,583.939,399.673z M253.056,179.244
					c-6.264,0-11.36,5.096-11.36,11.361v196.337c0,6.263,5.096,11.359,11.36,11.359h330.883c6.264,0,11.36-5.096,11.36-11.359
					V190.604c0-6.265-5.096-11.361-11.36-11.361H253.056z"/>
			</g>
			<g>
				<path fill="#FFFFFF" d="M591.648,398.986H245.347c-2.754,0-5.373,1.198-7.174,3.282l-12.786,14.794
					c-5.309,6.143-0.945,15.682,7.174,15.682h371.873c8.119,0,12.482-9.539,7.174-15.682l-12.786-14.794
					C597.021,400.184,594.402,398.986,591.648,398.986z"/>
				<path d="M604.434,433.43H232.561c-4.028,0-7.57-2.276-9.246-5.938c-1.675-3.663-1.08-7.83,1.554-10.878l12.786-14.793
					c1.933-2.237,4.736-3.52,7.692-3.52h346.301c2.956,0,5.76,1.283,7.693,3.52l12.786,14.793c2.634,3.048,3.229,7.215,1.554,10.878
					C612.004,431.154,608.461,433.43,604.434,433.43z M245.347,399.673c-2.557,0-4.982,1.109-6.654,3.044l-12.786,14.793
					c-2.278,2.637-2.793,6.242-1.343,9.412c1.449,3.168,4.514,5.136,7.998,5.136h371.873c3.484,0,6.549-1.968,7.998-5.136
					c1.45-3.169,0.935-6.775-1.343-9.412l-12.786-14.793c-1.672-1.934-4.098-3.044-6.655-3.044H245.347z"/>
			</g>
			<path d="M229.222,423.137c-3.952,0-5.728,4.948-2.686,7.472c1.585,1.315,3.641,2.135,6.019,2.135h371.874
				c2.532,0,4.698-0.925,6.32-2.385c2.804-2.524,0.821-7.221-2.952-7.221H229.222z"/>
			<path fill="#FF9E3E" d="M253.055,392.125c-2.859,0-5.184-2.325-5.184-5.184V190.604c0-2.859,2.325-5.185,5.184-5.185h330.884
				c2.859,0,5.184,2.327,5.184,5.185v196.337c0,2.859-2.326,5.184-5.184,5.184H253.055z"/>
			<path opacity="0.3" fill="#FFFFFF" d="M581.321,388.401H255.675c-2.25,0-4.08-1.83-4.08-4.079V193.224
				c0-2.25,1.831-4.082,4.082-4.082H581.32c2.25,0,4.081,1.83,4.081,4.08v191.099C585.4,386.571,583.57,388.401,581.321,388.401z
				 M255.677,189.819c-1.878,0-3.405,1.527-3.405,3.405v191.098c0,1.876,1.527,3.402,3.403,3.402h325.646
				c1.876,0,3.402-1.526,3.402-3.402V193.222c0-1.876-1.527-3.403-3.404-3.403H255.677z"/>
		</g>
		<g>
			<g>
				<path fill="#EB8B23" d="M471.099,261.37c0,6.717,65.534,6.717,65.534,0C536.633,223.801,471.099,223.801,471.099,261.37z"/>
				<path fill="#FFFFFF" d="M503.866,267.14c-8.616,0-16.652-0.45-22.626-1.265c-9.746-1.333-10.873-3.209-10.873-4.505
					c0-19.862,17.366-28.91,33.5-28.91c0.001,0-0.001,0,0,0c16.135,0,33.499,9.047,33.499,28.91
					C537.365,266.862,509.46,267.14,503.866,267.14z M471.831,261.37c0,1.805,11.133,4.305,32.034,4.305
					c20.902,0,32.035-2.5,32.035-4.305c0-18.855-16.606-27.445-32.034-27.445C488.438,233.925,471.832,242.513,471.831,261.37
					L471.831,261.37z"/>
			</g>
			<g>
				<path fill="#FFFFFF" d="M542.029,176.352c5.072,10.628,11.004,35.253,11.932,54.714c0.149,3.139-3.221,5.281-5.983,3.784
					c-1.783-0.967-3.432-1.43-4.777-1.635c-1.965-0.3-3.47-3.056-3.514-6.365l-0.642-48.703
					C539.01,175.454,541.025,174.249,542.029,176.352z"/>
				<path fill="#EB8B23" d="M549.886,236.026c-0.765,0-1.529-0.19-2.235-0.574c-1.472-0.797-3.004-1.322-4.554-1.56
					c-2.324-0.356-4.047-3.313-4.096-7.033l-0.643-48.704c-0.024-1.792,0.789-3.237,1.977-3.515
					c0.922-0.213,1.786,0.315,2.313,1.415v0.001c5.031,10.544,11.053,35.151,11.998,54.975c0.083,1.734-0.753,3.324-2.235,4.255
					C551.628,235.779,550.757,236.026,549.886,236.026z M540.723,175.968c-0.025,0-0.05,0.003-0.075,0.009
					c-0.38,0.089-0.934,0.836-0.916,2.159l0.643,48.704c0.039,2.949,1.326,5.45,2.931,5.695c1.706,0.262,3.389,0.837,5,1.711
					c1.071,0.578,2.333,0.534,3.376-0.122c1.057-0.664,1.653-1.796,1.594-3.027c-0.937-19.661-6.891-44.027-11.866-54.452v0.001
					C541.33,176.48,541.058,175.968,540.723,175.968z"/>
			</g>
			<g>
				<path fill="#FFFFFF" d="M542.983,240.581c0,9.685-78.24,9.685-78.24,0V132.748c0-23.058,5.064-45.932,15.534-66.476
					c6.505-12.764,14.639-23.512,23.586-23.512c8.948,0,17.082,10.748,23.586,23.512c10.47,20.544,15.534,43.418,15.534,66.476
					V240.581z"/>
				<path fill="#EB8B23" d="M503.862,248.532c-10.284,0-19.876-0.649-27.007-1.826c-8.612-1.421-12.799-3.425-12.799-6.125V132.748
					c0-23.656,5.397-46.751,15.608-66.788c8.078-15.85,16.219-23.886,24.198-23.886s16.12,8.037,24.198,23.886
					c10.212,20.037,15.609,43.132,15.609,66.788l-0.001,107.833h-0.686h0.686C543.669,248.309,507.937,248.532,503.862,248.532z
					 M503.862,43.446c-7.421,0-15.15,7.784-22.975,23.138c-10.113,19.844-15.459,42.723-15.459,66.164v107.833
					c0,3.689,16.882,6.578,38.434,6.578s38.434-2.889,38.434-6.578l0.001-107.833c0-23.441-5.346-46.32-15.46-66.164
					C519.013,51.23,511.283,43.446,503.862,43.446z"/>
			</g>
			<path fill="#EB8B23" d="M503.863,94.829c-12.619,0-24.22-3.44-31.827-9.437l0.85-1.079c7.261,5.725,18.841,9.143,30.977,9.143
				s23.716-3.418,30.977-9.143l0.85,1.079C528.083,91.388,516.482,94.829,503.863,94.829z"/>
			<g>
				<path fill="#FFFFFF" d="M467.313,176.352c-8.735,10.914-18.994,36.591-20.12,56.277c-0.175,3.066,3.006,5.279,5.778,3.956
					c4.625-2.207,9.054-3.068,12.375-3.371c3.296-0.301,5.82-3.056,5.893-6.365l1.077-48.703
					C472.377,175.454,468.996,174.249,467.313,176.352z"/>
				<path fill="#EB8B23" d="M451.263,237.662c-0.915,0-1.826-0.274-2.628-0.812c-1.429-0.96-2.224-2.552-2.126-4.26
					c1.137-19.889,11.594-45.828,20.269-56.666l0,0c0.957-1.198,2.502-1.637,3.939-1.112c1.423,0.517,2.32,1.833,2.287,3.351
					l-1.077,48.702c-0.082,3.678-2.884,6.702-6.517,7.033c-4.28,0.391-8.365,1.505-12.142,3.307
					C452.626,237.511,451.943,237.662,451.263,237.662z M467.848,176.78c-8.544,10.677-18.847,36.256-19.97,55.889
					c-0.069,1.218,0.499,2.355,1.522,3.043c0.99,0.665,2.216,0.759,3.275,0.255c3.924-1.874,8.166-3.029,12.608-3.437
					c2.939-0.267,5.204-2.716,5.27-5.695l1.077-48.702c0.025-1.119-0.698-1.782-1.383-2.032
					C469.552,175.848,468.558,175.894,467.848,176.78L467.848,176.78z"/>
			</g>
			<ellipse fill="#FF9E3E" cx="516.33" cy="146.494" rx="22.715" ry="32.52"/>
			<ellipse fill="#FFFFFF" cx="518.479" cy="146.494" rx="17.503" ry="27.212"/>
		</g>
		<path fill="#FFFFFF" d="M317.657,392.857c-0.405,0-0.733-0.328-0.733-0.733c0-0.707-0.027-1.575-0.056-2.572
			c-0.23-7.616-0.708-23.465,9.048-32.554c5.943-5.538,14.803-7.754,26.331-6.585c36.189,3.66,56.349-6.361,71.894-35.759
			c6.899-13.049,21.883-14.867,35.103-16.47c10.114-1.227,19.667-2.385,23.97-8.351c2.629-3.645,3.201-8.893,1.749-16.047
			c-0.081-0.397,0.176-0.783,0.572-0.863c0.393-0.086,0.783,0.175,0.863,0.572c1.538,7.575,0.885,13.2-1.997,17.195
			c-4.679,6.487-14.541,7.682-24.983,8.949c-13.491,1.637-27.443,3.328-33.984,15.7c-15.876,30.026-36.444,40.27-73.338,36.531
			c-11.09-1.126-19.563,0.961-25.184,6.2c-9.27,8.636-8.806,24.036-8.583,31.438c0.03,1.013,0.057,1.896,0.057,2.615
			C318.389,392.529,318.061,392.857,317.657,392.857z"/>
		<path fill="#FFFFFF" d="M477.476,392.857c-0.399,0-0.726-0.32-0.733-0.721l-0.013-0.768c-0.228-13.49-0.541-31.964,19.963-34.603
			c12.154-1.563,19.347-4.497,21.988-8.969c2.688-4.552,0.378-10.407-1.856-16.068c-1.944-4.924-3.953-10.016-2.669-14.335
			c2.706-9.102,6.958-13.967,10.375-17.877c5.501-6.294,8.531-9.761-2.047-25.465c-0.226-0.336-0.138-0.792,0.198-1.018
			c0.334-0.226,0.791-0.136,1.017,0.198c11.209,16.639,7.718,20.632,1.936,27.249c-3.323,3.803-7.459,8.535-10.074,17.331
			c-1.139,3.833,0.69,8.469,2.627,13.379c2.364,5.988,4.808,12.182,1.755,17.35c-2.886,4.887-10.431,8.053-23.063,9.679
			c-19.203,2.47-18.904,20.187-18.685,33.124l0.013,0.77c0.007,0.405-0.316,0.738-0.721,0.744
			C477.484,392.857,477.48,392.857,477.476,392.857z"/>
	</g>
	<g>
		<path fill="#FFFFFF" d="M325.886,246.911c-0.155-0.007-0.306,0.001-0.459,0.001c-1.865-4.678-6.322-8.084-11.68-8.345
			c-1.386-0.067-2.732,0.082-4.006,0.415c-1.978-4.656-6.483-8.02-11.874-8.281c-7.096-0.344-13.184,4.812-14.138,11.717
			c-5.537,0.112-10.122,4.486-10.394,10.102c-0.285,5.864,4.239,10.849,10.103,11.134l41.537,2.016
			c5.18,0.251,9.583-3.744,9.835-8.924C335.062,251.566,331.066,247.162,325.886,246.911z"/>
		<g>
			<path fill="#FFFFFF" d="M385.757,203.697L385.757,203.697c4.317,0,8.536,1.742,11.574,4.781c5.27,5.27,6.275,13.34,2.619,19.693
				l-13.013-9.112l-6.713-14.397C381.994,204.021,383.849,203.697,385.757,203.697 M385.757,202.231
				c-2.544,0-5.108,0.543-7.508,1.663l7.526,16.14l14.588,10.214c4.937-7.05,4.091-16.721-1.995-22.807
				C394.958,204.033,390.389,202.231,385.757,202.231L385.757,202.231z"/>
			<path fill="#FFFFFF" d="M385.775,220.034l14.588,10.214c-0.595,0.849-1.262,1.645-1.995,2.378
				c-6.908,6.908-18.277,6.908-25.185,0c-6.908-6.908-6.908-18.277,0-25.185c1.469-1.469,3.184-2.67,5.066-3.547L385.775,220.034z"
				/>
		</g>
		<g>
			<path fill="#FFFFFF" d="M337.932,330.392c-0.926,0-1.826-0.288-2.593-0.838c-0.968-0.696-1.607-1.726-1.8-2.901l-4.792-29.252
				c-0.397-2.428,1.254-4.727,3.682-5.125l48.637-7.967c1.177-0.191,2.356,0.085,3.324,0.78c0.967,0.696,1.606,1.726,1.8,2.901
				l4.792,29.251c0.397,2.428-1.254,4.727-3.682,5.125l0,0l-48.636,7.967C338.419,330.373,338.175,330.392,337.932,330.392z
				 M381.794,285.715c-0.163,0-0.327,0.013-0.491,0.041l-48.637,7.967c-1.63,0.267-2.739,1.811-2.472,3.442l4.793,29.251
				c0.129,0.789,0.558,1.481,1.208,1.948c0.649,0.468,1.442,0.66,2.233,0.524l48.636-7.967c1.63-0.267,2.739-1.811,2.472-3.442
				l-4.792-29.249c-0.13-0.791-0.559-1.482-1.208-1.949C383.019,285.909,382.415,285.715,381.794,285.715z M387.181,321.643h0.013
				H387.181z"/>
			<polygon fill="#FFFFFF" points="368.822,305.854 352.378,299.641 355.219,316.989 			"/>
		</g>
		<g>
			<rect x="559.397" y="282.248" fill="#FFFFFF" width="9.866" height="29.701"/>
			<rect x="559.397" y="314.027" fill="#FFFFFF" width="9.866" height="5.591"/>
			<rect x="559.397" y="323.02" fill="#FFFFFF" width="9.866" height="2.796"/>
			<rect x="559.397" y="330.919" fill="#FFFFFF" width="9.866" height="1.398"/>
			<g>
				<polygon fill="#FFFFFF" points="554.486,284.984 564.33,267.938 574.173,284.984 				"/>
			</g>
		</g>
		<g>
			<rect x="425.226" y="234.454" fill="#FFFFFF" width="6.231" height="18.759"/>
			<rect x="425.226" y="254.526" fill="#FFFFFF" width="6.231" height="3.531"/>
			<rect x="425.226" y="260.206" fill="#FFFFFF" width="6.231" height="1.766"/>
			<rect x="425.226" y="265.195" fill="#FFFFFF" width="6.231" height="0.883"/>
			<g>
				<polygon fill="#FFFFFF" points="422.124,236.183 428.341,225.416 434.558,236.183 				"/>
			</g>
		</g>
		<g>
			<rect x="565.02" y="125.457" fill="#FF9E3E" width="7.917" height="23.833"/>
			<rect x="565.02" y="150.957" fill="#FF9E3E" width="7.917" height="4.487"/>
			<rect x="565.02" y="158.174" fill="#FF9E3E" width="7.917" height="2.243"/>
			<rect x="565.02" y="164.512" fill="#FF9E3E" width="7.917" height="1.122"/>
			<g>
				<polygon fill="#FF9E3E" points="561.079,127.653 568.978,113.974 576.876,127.653 				"/>
			</g>
		</g>
	</g>
</g>
</svg>
