<?xml version="1.0" encoding="utf-8"?>
<!-- Generator: Adobe Illustrator 17.0.0, SVG Export Plug-In . SVG Version: 6.00 Build 0)  -->
<!DOCTYPE svg PUBLIC "-//W3C//DTD SVG 1.1//EN" "http://www.w3.org/Graphics/SVG/1.1/DTD/svg11.dtd">
<svg version="1.1" id="Layer_1" xmlns="http://www.w3.org/2000/svg" xmlns:xlink="http://www.w3.org/1999/xlink" x="0px" y="0px"
	 width="760px" height="520px" viewBox="0 0 760 520" enable-background="new 0 0 760 520" xml:space="preserve">
<g>
	<rect x="45.461" y="448.126" fill="#ECECEC" width="669.078" height="0.335"/>
	<rect x="603.177" y="469.665" fill="#ECECEC" width="44.323" height="0.335"/>
	<rect x="437.205" y="469.832" fill="#ECECEC" width="11.633" height="0.335"/>
	<rect x="519.614" y="457.239" fill="#ECECEC" width="82.223" height="0.335"/>
	<rect x="329.757" y="465.137" fill="#ECECEC" width="16.986" height="0.335"/>
	<rect x="268.555" y="465.137" fill="#ECECEC" width="49.288" height="0.335"/>
	<rect x="115.659" y="459.487" fill="#ECECEC" width="34.029" height="0.335"/>
	<rect x="157.717" y="459.487" fill="#ECECEC" width="100.213" height="0.335"/>
	<path fill="#ECECEC" d="M362.622,388.446H104.226c-4.212,0-7.638-3.426-7.638-7.638V17.59c0-4.211,3.426-7.638,7.638-7.638h258.396
		c4.211,0,7.637,3.426,7.637,7.638v363.218C370.259,385.02,366.833,388.446,362.622,388.446z M104.226,10.287
		c-4.027,0-7.304,3.276-7.304,7.303v363.218c0,4.028,3.276,7.304,7.304,7.304h258.396c4.026,0,7.302-3.276,7.302-7.304V17.59
		c0-4.027-3.276-7.303-7.302-7.303H104.226z"/>
	<path fill="#ECECEC" d="M652.061,388.446H393.665c-4.211,0-7.637-3.426-7.637-7.638V17.59c0-4.211,3.426-7.638,7.637-7.638h258.396
		c4.212,0,7.638,3.426,7.638,7.638v363.218C659.7,385.02,656.273,388.446,652.061,388.446z M393.665,10.287
		c-4.026,0-7.302,3.276-7.302,7.303v363.218c0,4.028,3.276,7.304,7.302,7.304h258.396c4.028,0,7.304-3.276,7.304-7.304V17.59
		c0-4.027-3.276-7.303-7.304-7.303H393.665z"/>
</g>
<g>
	<g>
		<rect x="300.752" y="32.728" fill="#E7E7E7" width="325.226" height="237.566"/>
		<rect x="286.374" y="32.728" fill="#F0F0F0" width="336.268" height="237.566"/>
		<rect x="306.504" y="52.857" fill="#FAFAFA" width="296.01" height="197.308"/>
		<polygon fill="#FFFFFF" points="530.559,250.165 463.171,52.857 398.82,52.857 466.208,250.165 		"/>
		<polygon fill="#FFFFFF" points="452.384,250.165 384.996,52.857 359.908,52.857 427.297,250.165 		"/>
		<rect x="306.504" y="52.857" fill="#E7E7E7" width="2.556" height="197.308"/>
	</g>
	<g>
		<g>
			<rect x="131.874" y="42.86" fill="#E1E1E1" width="114.84" height="162.814"/>
			<rect x="123.741" y="42.86" fill="#F5F5F5" width="118.376" height="162.814"/>
			<rect x="135.425" y="55.69" fill="#FFFFFF" width="95.006" height="137.153"/>
		</g>
	</g>
	<g>
		<path fill="#E7E7E7" d="M176.507,319.66c8.525-21.033,28.799-28.864,35.803-42.144c9.176-17.4,9.124-43.501,1.312-52.919
			c-6.789-8.185-29.271,47.159-31.803,53.342c-8.71,21.267-11.242,37.05-12.874,52.341c0.186-12.997,0.364-24.931,0.51-34.139
			c0.477-30.032,1.071-39.692,1.343-42.664c0.939-1.452,2.047-3.143,2.691-4.051c5.441-7.671,17.512-16.802,23.545-27.953
			c8.808-16.282,7.386-35.768,1.207-43.024c-6.46-7.587-17.881,10.344-23.945,28.111c-6.063,17.767-3.472,34.772-5.173,49.527
			c-0.355,2.894-0.721,13.886-1.064,29.133c-1.839-16.405-5.504-27.396-12.293-37.638c-8.352-12.597-15.562-27.936-22.443-25.954
			c-6.881,1.982-3.177,22.279,2.267,36.529c4.848,12.69,28.766,25.346,32.289,35.549c-0.415,20.667-0.786,46.85-1.049,71.228
			c-1.886-12.592-0.589-13.649-8.316-32.927c-4.594-11.461-23.426-25.594-25.672-17.72c-2.204,7.728,1.168,22.757,8.277,33.181
			c5.735,8.409,18.46,8.399,21.404,13.617c0.687,1.218,2.958,5.884,4.256,8.567c-0.308,29.762-0.445,56.032-0.293,64.99l1.234,0.09
			c-0.059-2.313,0.09-17.453,0.332-37.487c3.09-10.661,23.892-16.884,30.318-27.97c6.725-11.602,11.558-25.141,8.674-34.208
			c-2.405-7.558-21.361,2.72-29.054,15.246c-5.124,8.342-8.254,17.246-9.715,29.208c0.176-13.648,0.374-28.312,0.569-42.15
			C170.4,333.919,173.952,325.964,176.507,319.66z"/>
		<g>
			<path fill="#F0F0F0" d="M188.723,448.126h-43.725c-2.389,0-4.448-1.683-4.922-4.024l-3.104-15.303h59.778l-3.104,15.303
				C193.171,446.443,191.112,448.126,188.723,448.126z"/>
			<path fill="#F0F0F0" d="M198,434.732h-62.279c-1.492,0-2.747-1.121-2.914-2.604l-1.274-11.313
				c-0.196-1.738,1.164-3.26,2.914-3.26h64.826c1.749,0,3.109,1.522,2.914,3.26l-1.274,11.313
				C200.746,433.611,199.492,434.732,198,434.732z"/>
		</g>
	</g>
	<g>
		<rect x="588.267" y="294.53" fill="#F0F0F0" width="13.367" height="143.841"/>
		<rect x="315.851" y="438.371" fill="#F0F0F0" width="280.65" height="9.587"/>
		<rect x="310.718" y="294.53" fill="#F5F5F5" width="277.549" height="143.841"/>
		<rect x="591.412" y="285.464" fill="#E1E1E1" width="13.814" height="9.066"/>
		<rect x="307.126" y="285.464" fill="#ECECEC" width="284.286" height="9.066"/>
		<path fill="#FFFFFF" d="M568.347,356.653h-237.71c-5.925,0-10.746-4.821-10.746-10.747v-30.804
			c0-5.926,4.821-10.747,10.746-10.747h237.71c5.926,0,10.747,4.821,10.747,10.747v30.804
			C579.094,351.833,574.273,356.653,568.347,356.653z M330.637,307.032c-4.45,0-8.069,3.621-8.069,8.071v30.804
			c0,4.45,3.62,8.071,8.069,8.071h237.71c4.45,0,8.071-3.621,8.071-8.071v-30.804c0-4.45-3.621-8.071-8.071-8.071H330.637z"/>
		<path fill="#FFFFFF" d="M568.347,421.086h-237.71c-5.925,0-10.746-4.821-10.746-10.747v-30.804
			c0-5.926,4.821-10.747,10.746-10.747h237.71c5.926,0,10.747,4.821,10.747,10.747v30.804
			C579.094,416.265,574.273,421.086,568.347,421.086z M330.637,371.465c-4.45,0-8.069,3.621-8.069,8.071v30.804
			c0,4.45,3.62,8.071,8.069,8.071h237.71c4.45,0,8.071-3.621,8.071-8.071v-30.804c0-4.45-3.621-8.071-8.071-8.071H330.637z"/>
		<path fill="#FFFFFF" d="M514.327,335.244H384.659c-1.916,0-3.475-1.559-3.475-3.475v-2.531c0-1.916,1.559-3.475,3.475-3.475
			h129.668c1.916,0,3.475,1.559,3.475,3.475v2.531C517.801,333.685,516.242,335.244,514.327,335.244z M384.659,328.44
			c-0.432,0-0.798,0.366-0.798,0.798v2.531c0,0.433,0.366,0.798,0.798,0.798h129.668c0.433,0,0.798-0.366,0.798-0.798v-2.531
			c0-0.432-0.366-0.798-0.798-0.798H384.659z"/>
		<path fill="#FFFFFF" d="M514.327,399.677H384.659c-1.916,0-3.475-1.559-3.475-3.475v-2.531c0-1.916,1.559-3.475,3.475-3.475
			h129.668c1.916,0,3.475,1.559,3.475,3.475v2.531C517.801,398.118,516.242,399.677,514.327,399.677z M384.659,392.872
			c-0.432,0-0.798,0.366-0.798,0.798v2.531c0,0.432,0.366,0.798,0.798,0.798h129.668c0.433,0,0.798-0.366,0.798-0.798v-2.531
			c0-0.432-0.366-0.798-0.798-0.798H384.659z"/>
	</g>
</g>
<ellipse id="_x3C_Path_x3E__343_" fill="#F5F5F5" cx="373.309" cy="493.409" rx="259.454" ry="15.152"/>
<g>
	<g>
		<rect x="546.711" y="160.917" transform="matrix(0.9979 0.0645 -0.0645 0.9979 11.7726 -34.9599)" width="1.338" height="7.898"/>
		
			<rect x="548.198" y="128.921" transform="matrix(0.9979 0.0644 -0.0644 0.9979 10.2755 -35.0464)" width="1.338" height="25.951"/>
		<path d="M533.139,91.29H375.833c-8.24,0-15.418,6.742-15.951,14.982l-20.316,313.796c-0.533,8.24,5.772,14.981,14.012,14.981
			h157.306c8.24,0,15.418-6.742,15.951-14.981l20.316-313.796C547.684,98.032,541.379,91.29,533.139,91.29z"/>
		<path opacity="0.7" fill="#FFFFFF" d="M528.145,91.29H375.833c-8.24,0-15.418,6.742-15.951,14.982l-20.316,313.796
			c-0.533,8.24,5.772,14.981,14.012,14.981h152.312c8.24,0,15.418-6.742,15.952-14.981l20.316-313.796
			C542.69,98.032,536.385,91.29,528.145,91.29z"/>
		<path fill="#FFFFFF" d="M515.304,411.864H347.758c-2.646,0-4.742-2.236-4.571-4.877l18.383-283.946
			c0.156-2.41,2.156-4.285,4.571-4.285h167.546c2.646,0,4.742,2.236,4.571,4.877l-18.384,283.946
			C519.719,409.989,517.719,411.864,515.304,411.864z"/>
		<path fill="#FFFFFF" d="M478.071,109.462h-60.897c-1.341,0-2.357-1.087-2.27-2.428l0,0c0.087-1.341,1.244-2.428,2.585-2.428
			h60.897c1.341,0,2.357,1.087,2.27,2.428l0,0C480.569,108.375,479.411,109.462,478.071,109.462z"/>
		<path fill="#FFFFFF" d="M430.54,423.794c-0.17,3.294-2.979,5.965-6.273,5.965c-3.294,0-5.827-2.671-5.657-5.965
			c0.17-3.294,2.979-5.965,6.273-5.965C428.178,417.829,430.71,420.499,430.54,423.794z"/>
	</g>
	<path opacity="0.2" fill="#007CFF" d="M497.05,197.406H353.981l-9.089,140.383H497.05c8.24,0,14.982-6.742,14.982-14.982V212.388
		C512.031,204.148,505.29,197.406,497.05,197.406z"/>
	<g>
		<path fill="#EB8B23" d="M483.725,325.304h-175.34c-8.24,0-14.982-6.742-14.982-14.982V199.903c0-8.24,6.742-14.982,14.982-14.982
			h175.34c8.24,0,14.981,6.742,14.981,14.982v110.419C498.707,318.562,491.965,325.304,483.725,325.304z"/>
		<g>
			<path d="M288.621,183.312c-0.342,0-0.685-0.131-0.946-0.392l-2.399-2.399c-0.523-0.523-0.523-1.37,0-1.892
				c0.523-0.523,1.369-0.523,1.892,0l2.399,2.399c0.523,0.523,0.523,1.369,0,1.892C289.306,183.181,288.964,183.312,288.621,183.312
				z"/>
			<path d="M285.005,191.708h-3.392c-0.74,0-1.338-0.599-1.338-1.338c0-0.739,0.598-1.338,1.338-1.338h3.392
				c0.74,0,1.338,0.599,1.338,1.338C286.344,191.109,285.745,191.708,285.005,191.708z"/>
			<path d="M297.138,179.691c-0.695,0-1.283-0.538-1.333-1.243l-0.242-3.384c-0.054-0.737,0.502-1.377,1.239-1.43
				c0.751-0.055,1.377,0.502,1.43,1.24l0.242,3.384c0.054,0.737-0.502,1.377-1.239,1.43
				C297.202,179.69,297.169,179.691,297.138,179.691z"/>
		</g>
		<polygon fill="#EB8B23" points="411.037,310.877 464.859,364.7 464.859,310.877 		"/>
		<g>
			<path fill="#FFFFFF" d="M425.789,287.295l-2.607-11.365c-0.683-2.981-0.691-6.078-0.023-9.063l3.627-16.189
				c3.234-14.433-4.092-28.853-16.784-35.199c0.108-0.301,0.232-0.594,0.304-0.914c0.925-4.128-1.672-8.224-5.8-9.149
				c-4.128-0.925-8.224,1.672-9.149,5.8c-0.072,0.32-0.084,0.638-0.115,0.956c-14.186,0.324-26.965,10.24-30.198,24.673
				l-3.627,16.188c-0.669,2.985-1.997,5.782-3.887,8.187l-7.207,9.167c-3.073,3.909-1.015,9.687,3.836,10.773l63.564,14.241
				C422.575,296.488,426.901,292.141,425.789,287.295z"/>
			<path fill="#FFFFFF" d="M377.785,290.805c-2.092-0.469-3.97,1.346-3.61,3.459c0.726,4.266,3.951,7.879,8.435,8.884
				c4.484,1.005,8.942-0.887,11.419-4.435c1.227-1.758,0.303-4.2-1.789-4.669L377.785,290.805z"/>
		</g>
		<g>
			<path fill="#FFFFFF" d="M328.973,268.255c-0.648,0-1.283-0.314-1.67-0.892c-6.368-9.537-8.64-20.981-6.399-32.226
				c2.241-11.245,8.728-20.944,18.264-27.311c0.921-0.616,2.167-0.367,2.784,0.555c0.616,0.922,0.367,2.169-0.554,2.784
				c-8.644,5.771-14.524,14.564-16.556,24.756c-2.031,10.192,0.029,20.567,5.8,29.211c0.615,0.923,0.367,2.168-0.554,2.783
				C329.743,268.146,329.355,268.255,328.973,268.255z"/>
			<path fill="#FFFFFF" d="M337.48,262.575c-0.648,0-1.283-0.314-1.67-0.893c-4.849-7.263-6.581-15.981-4.873-24.546
				c1.707-8.565,6.648-15.952,13.911-20.802c0.92-0.617,2.168-0.367,2.784,0.555c0.616,0.922,0.367,2.169-0.554,2.784
				c-6.372,4.254-10.705,10.735-12.204,18.247c-1.498,7.513,0.021,15.16,4.275,21.532c0.615,0.923,0.367,2.168-0.554,2.784
				C338.251,262.465,337.863,262.575,337.48,262.575z"/>
			<path fill="#FFFFFF" d="M345.988,256.895c-0.648,0-1.283-0.314-1.67-0.893c-3.334-4.991-4.523-10.981-3.349-16.867
				c1.172-5.885,4.567-10.961,9.558-14.294c0.921-0.618,2.167-0.368,2.784,0.555c0.615,0.922,0.367,2.169-0.554,2.784
				c-4.099,2.736-6.887,6.906-7.85,11.74c-0.964,4.834,0.013,9.753,2.75,13.853c0.615,0.923,0.367,2.168-0.554,2.784
				C346.759,256.786,346.372,256.895,345.988,256.895z"/>
		</g>
		<g>
			<path fill="#FFFFFF" d="M444.697,296.506c-0.726,0-1.428-0.396-1.785-1.086c-0.508-0.985-0.122-2.197,0.862-2.705
				c9.236-4.767,16.062-12.847,19.222-22.749c3.159-9.903,2.271-20.442-2.497-29.677c-0.508-0.985-0.122-2.195,0.863-2.704
				c0.985-0.506,2.195-0.123,2.705,0.863c5.26,10.188,6.239,21.814,2.754,32.738c-3.484,10.925-11.015,19.837-21.203,25.097
				C445.321,296.434,445.007,296.506,444.697,296.506z"/>
			<path fill="#FFFFFF" d="M440.004,287.417c-0.727,0-1.428-0.396-1.785-1.086c-0.508-0.985-0.121-2.197,0.862-2.705
				c6.808-3.515,11.84-9.47,14.168-16.769c2.327-7.3,1.674-15.069-1.841-21.876c-0.508-0.985-0.122-2.196,0.862-2.704
				c0.985-0.506,2.195-0.124,2.705,0.863c4.007,7.76,4.752,16.616,2.097,24.936c-2.654,8.32-8.39,15.109-16.149,19.117
				C440.629,287.345,440.315,287.417,440.004,287.417z"/>
			<path fill="#FFFFFF" d="M435.311,278.327c-0.727,0-1.428-0.396-1.785-1.086c-0.508-0.985-0.122-2.197,0.862-2.705
				c4.38-2.261,7.617-6.092,9.115-10.788c1.498-4.697,1.078-9.694-1.184-14.073c-0.508-0.985-0.122-2.197,0.862-2.705
				c0.987-0.506,2.195-0.123,2.705,0.862c5.683,11.007,1.351,24.586-9.656,30.271C435.936,278.255,435.622,278.327,435.311,278.327z
				"/>
		</g>
	</g>
</g>
<g>
	<g>
		<path fill="#007CFF" d="M317.586,104.821h-10.223c-0.536,0-1.02,0.438-1.076,0.974l-2.144,20.393
			c-0.056,0.536,0.336,0.974,0.871,0.974h10.223c0.536,0,1.02-0.438,1.076-0.974l2.144-20.393
			C318.514,105.259,318.122,104.821,317.586,104.821z"/>
		<path opacity="0.4" fill="#FFFFFF" d="M316.668,104.821h-9.304c-0.536,0-1.02,0.438-1.076,0.974l-2.144,20.393
			c-0.056,0.536,0.336,0.974,0.871,0.974h9.304c0.536,0,1.02-0.438,1.076-0.974l2.144-20.393
			C317.595,105.259,317.203,104.821,316.668,104.821z"/>
	</g>
	<path d="M266.35,481.913c1.391,0,2.726-0.191,3.148-0.816c0.148-0.219,0.256-0.591-0.071-1.122c-0.182-0.298-0.466-0.5-0.839-0.6
		c-1.825-0.49-5.517,1.668-5.674,1.76c-0.09,0.053-0.136,0.158-0.114,0.264c0.022,0.105,0.107,0.189,0.212,0.21
		C263.71,481.747,265.054,481.913,266.35,481.913z M267.976,479.812c0.181,0,0.349,0.018,0.499,0.059
		c0.24,0.065,0.409,0.182,0.518,0.359c0.195,0.319,0.136,0.477,0.075,0.568c-0.474,0.7-3.212,0.717-5.239,0.432
		C264.812,480.713,266.71,479.812,267.976,479.812z"/>
	<path d="M263.063,481.614c0.036,0,0.071-0.008,0.104-0.023c1.282-0.587,3.77-2.931,3.519-4.156
		c-0.059-0.288-0.279-0.646-0.987-0.717c-0.529-0.054-0.998,0.095-1.404,0.44c-1.329,1.132-1.493,4.051-1.5,4.175
		c-0.005,0.091,0.04,0.18,0.116,0.233C262.957,481.597,263.011,481.614,263.063,481.614z M265.515,477.221
		c0.05,0,0.102,0.003,0.154,0.008c0.464,0.047,0.501,0.229,0.513,0.289c0.151,0.735-1.529,2.577-2.828,3.379
		c0.102-0.852,0.411-2.599,1.284-3.342C264.901,477.331,265.19,477.221,265.515,477.221z"/>
	<polygon fill="#FF8B7B" points="251.137,481.357 261.973,481.357 261.955,456.264 251.119,456.264 	"/>
	<polygon fill="#FF8B7B" points="172.516,469.397 183.34,470.568 190.401,446.21 179.578,445.039 	"/>
	<path d="M188.374,473.036c1.363,0.343,2.718,0.489,3.287-0.006c0.199-0.173,0.397-0.503,0.208-1.092
		c-0.105-0.33-0.333-0.594-0.674-0.782c-1.667-0.92-5.819,0.237-5.995,0.287c-0.101,0.029-0.172,0.118-0.177,0.225
		c-0.005,0.107,0.058,0.208,0.156,0.254C185.829,472.225,187.105,472.716,188.374,473.036z M190.487,471.423
		c0.177,0.045,0.337,0.104,0.474,0.179c0.219,0.121,0.356,0.275,0.419,0.472c0.113,0.354,0.016,0.49-0.067,0.562
		c-0.637,0.554-3.324-0.106-5.24-0.879C187.163,471.506,189.247,471.111,190.487,471.423z"/>
	<path d="M185.228,471.938c0.035,0.009,0.071,0.01,0.108,0.004c1.402-0.246,4.419-1.878,4.475-3.114
		c0.013-0.29-0.114-0.688-0.79-0.931c-0.505-0.182-1.002-0.155-1.484,0.075c-1.582,0.757-2.464,3.513-2.502,3.631
		c-0.027,0.086-0.006,0.182,0.056,0.252C185.128,471.896,185.176,471.925,185.228,471.938z M188.716,468.333
		c0.049,0.012,0.1,0.028,0.149,0.046c0.443,0.159,0.434,0.343,0.431,0.403c-0.034,0.742-2.135,2.092-3.606,2.54
		c0.31-0.792,1.046-2.389,2.084-2.885C188.087,468.287,188.397,468.253,188.716,468.333z"/>
	<path d="M183.92,469.567l-11.838-3.398c-0.431-0.124-0.877,0.065-1.073,0.453l-4.365,8.651c-0.453,0.897,0.087,2.025,1.086,2.293
		c4.15,1.116,6.217,1.453,11.423,2.947c3.203,0.919,9.721,3.142,14.144,4.411c4.326,1.242,6.067-2.883,4.353-3.794
		c-7.686-4.084-10.147-7.38-12.177-10.434C185.107,470.147,184.551,469.748,183.92,469.567z"/>
	<path d="M261.847,480.102h-11.833c-0.443,0-0.813,0.308-0.89,0.74l-1.719,9.632c-0.178,0.998,0.621,1.945,1.643,1.927
		c4.266-0.072,10.423-0.323,15.788-0.323c6.273,0,9.705,0.342,17.062,0.342c4.448,0,5.486-4.497,3.607-4.905
		c-8.558-1.854-13.487-2.053-21.009-6.57C263.676,480.456,262.782,480.102,261.847,480.102z"/>
	<g>
		<polygon opacity="0.2" points="261.953,456.27 261.964,469.205 251.124,469.205 251.112,456.27 		"/>
		<polygon opacity="0.2" points="179.573,445.045 190.401,446.217 186.478,459.729 175.928,457.6 		"/>
	</g>
	<path fill="#0F140B" d="M244.133,206.763c0,0-5.972,81.775-11.366,112.798c-5.907,33.973-40.237,137.997-40.237,137.997
		l-19.676-3.589c0,0,24.793-97.691,27.541-131.328c2.982-36.507,6.569-111.759,6.569-111.759L244.133,206.763z"/>
	<path opacity="0.3" d="M234.056,240.721c1.082-4.506,3.542,1.156,6.402,10.968c-2.164,24.276-4.994,52.391-7.692,67.879
		c-0.608,3.468-1.512,7.677-2.638,12.435C231.121,297.366,231.151,252.874,234.056,240.721z"/>
	<path fill="#0F140B" d="M264.568,204.499c0,0,7.864,82.246,8.131,115.291c0.277,34.371-6.806,146.911-6.806,146.911h-18.356
		c0,0-5.508-110.532-7.801-144.288c-2.5-36.799-13.034-113.718-13.034-113.718L264.568,204.499z"/>
	<g>
		<path d="M196.68,450.94c0.084,0.015-3.082,7.124-3.082,7.124l-22.138-4.038l1.344-6.615L196.68,450.94z"/>
	</g>
	<g>
		<path d="M269.105,459.388c0.085,0-0.702,7.621-0.702,7.621h-22.329l-0.901-6.801L269.105,459.388z"/>
	</g>
	<path fill="#FF8B7B" d="M207.537,131.199c-1.47,2.857-3.086,5.849-4.568,8.81l-4.495,8.907c-1.456,2.978-2.881,5.957-4.261,8.936
		c-1.331,2.989-2.639,5.964-3.796,8.934l-0.1-4.69c0.83,2.348,1.651,4.747,2.813,7.046c0.523,1.172,1.181,2.294,1.763,3.461
		c0.662,1.125,1.298,2.273,2.025,3.379c1.397,2.244,2.938,4.44,4.598,6.567c0.833,1.059,1.665,2.133,2.548,3.159
		c0.863,1.001,1.843,2.069,2.624,2.938l0.268,0.299c1.424,1.585,1.293,4.025-0.292,5.449c-1.256,1.129-3.054,1.277-4.453,0.502
		c-1.531-0.851-2.757-1.64-4.051-2.549c-1.267-0.892-2.519-1.809-3.72-2.79c-2.406-1.957-4.651-4.121-6.769-6.441
		c-2.103-2.327-4.086-4.816-5.819-7.512c-1.793-2.655-3.288-5.551-4.635-8.534c-0.599-1.327-0.664-2.76-0.286-4.057l0.186-0.634
		c1.022-3.491,2.158-6.883,3.417-10.2c1.253-3.31,2.594-6.563,4.012-9.767c1.409-3.205,2.911-6.357,4.469-9.475
		c1.604-3.118,3.145-6.169,4.961-9.286c2.158-3.703,6.91-4.956,10.614-2.798c3.579,2.086,4.869,6.594,3.003,10.238L207.537,131.199z
		"/>
	<g>
		<path d="M215.223,126.461c0.533,10.204-11.057,28.958-11.057,28.958l-23.862-11.923c0,0,4.071-12.934,13.217-23.052
			C206.153,106.472,214.73,117.01,215.223,126.461z"/>
	</g>
	<path fill="#FF8B7B" d="M199.051,192.989l4.804,8.031l9.995-6.397c0,0-2.656-5.108-7.77-6.995c-1.52-0.561-3.244,0.162-4.065,1.697
		L199.051,192.989z"/>
	<path fill="#FF8B7B" d="M207.864,204.438l4.644-0.869c1.645-0.308,2.723-1.898,2.401-3.54l-1.059-5.405l-9.995,6.397l0.676,1.618
		C205.079,203.949,206.467,204.699,207.864,204.438z"/>
	<path fill="#1A2E35" d="M236.048,75.13c0.105,0.876,0.647,1.55,1.212,1.505c0.565-0.045,0.938-0.791,0.833-1.667
		c-0.105-0.876-0.647-1.55-1.212-1.505C236.316,73.508,235.943,74.254,236.048,75.13z"/>
	<path fill="#FF5551" d="M236.616,76.687c0,0,2.568,4.898,5.022,7.165c-1.355,1.568-4.033,1.113-4.033,1.113L236.616,76.687z"/>
	<path fill="#1A2E35" d="M232.304,70.517c0.137,0.017,0.278-0.021,0.387-0.118c1.658-1.472,3.452-0.977,3.527-0.957
		c0.275,0.077,0.55-0.078,0.618-0.35c0.068-0.272-0.096-0.558-0.369-0.639c-0.094-0.029-2.392-0.685-4.468,1.158
		c-0.208,0.184-0.221,0.51-0.03,0.727C232.059,70.441,232.18,70.501,232.304,70.517z"/>
	<path fill="#FF8B7B" d="M209.078,84.822c2.559,7.74,5.957,22.03,1.104,27.747c0,0,3.185,7.802,17.862,6.566
		c16.14-1.359,6.688-8.632,6.688-8.632c-9.078-1.354-9.687-7.885-8.937-14.129L209.078,84.822z"/>
	<path d="M206.727,115.4c-1.522-2.422-3.207-5.196-0.342-6.227c3.152-1.134,20.807-2.982,27.095-1.436
		c6.288,1.546,5.014,6.666,5.014,6.666L206.727,115.4z"/>
	<path fill="#FF8B7B" d="M258.442,118.661c2.303,2.117,4.792,4.451,7.265,6.598c2.473,2.194,4.983,4.336,7.496,6.451
		c2.535,2.08,5.088,4.108,7.665,6.047c2.599,1.885,5.202,3.701,7.833,5.293l-5.368-0.501c1.984-0.501,4.126-1.458,6.217-2.882
		c2.085-1.422,4.171-3.179,6.115-5.192c1.978-1.984,3.839-4.206,5.636-6.519c0.893-1.162,1.792-2.339,2.635-3.555
		c0.829-1.195,1.691-2.5,2.43-3.62l0.146-0.221c1.175-1.782,3.573-2.274,5.355-1.099c1.449,0.955,2.042,2.723,1.583,4.306
		c-0.506,1.739-1.036,3.224-1.659,4.786c-0.613,1.54-1.251,3.075-1.98,4.576c-1.456,3.001-3.131,5.933-5.121,8.758
		c-2.006,2.804-4.288,5.546-7.096,7.99c-2.791,2.441-6.129,4.652-10.093,6.05c-1.679,0.592-3.441,0.441-4.924-0.283l-0.444-0.218
		c-3.395-1.668-6.595-3.501-9.658-5.47c-3.049-1.968-5.981-4.045-8.825-6.205c-2.841-2.157-5.584-4.412-8.26-6.734
		c-2.67-2.374-5.246-4.655-7.852-7.315c-2.999-3.062-2.949-7.975,0.113-10.974c2.959-2.899,7.648-2.949,10.667-0.185
		L258.442,118.661z"/>
	<g>
		<path d="M250.272,111.725c0,0,13.482,13.091,15.042,94.043c-21.559,5.222-42.322,7.152-58.351,5.114
			c-0.77-10.155-1.899-45.397-12.207-82.563c-1.838-6.626,2.332-13.401,9.083-14.704c2.05-0.396,4.203-0.762,6.343-1.047
			c7.334-0.976,17.987-2.11,24.55-2.067C243.386,110.559,250.272,111.725,250.272,111.725z"/>
	</g>
	<g>
		<path d="M239.798,125.82c1.294,10.136,18.671,29.599,18.671,29.599l20.652-21.403c0,0-8.931-9.608-19.841-17.794
			C244.214,104.918,238.6,116.432,239.798,125.82z"/>
	</g>
	<path fill="#FF8B7B" d="M312.188,127.317l6.9-6.322l-8.277-8.504c0,0-4.469,3.63-5.288,9.019c-0.243,1.602,0.812,3.145,2.481,3.641
		L312.188,127.317z"/>
	<path fill="#FF8B7B" d="M321.629,116.38l-1.786-4.374c-0.633-1.549-2.407-2.286-3.951-1.64l-5.082,2.125l8.277,8.504l1.449-0.988
		C321.711,119.207,322.166,117.695,321.629,116.38z"/>
	<path fill="#FF8B7B" d="M207.014,75.558c1.938,10.707,2.537,17.049,8.555,22.146c9.053,7.667,21.559,1.702,22.807-9.238
		c1.123-9.847-2.235-25.702-13.131-29.159C214.51,55.901,205.076,64.851,207.014,75.558z"/>
	<path d="M228.124,79.435c3.762,0.865,6.727-3.481,7.081-4.72c-1.829,0.177-5.075-0.767-5.724-1.593
		c2.006,0.177,3.953-2.301,4.189-3.245c-2.183-0.295-4.603-2.183-5.252-3.422c3.245-0.059,7.16-5.783,3.58-10.916
		s-18.509-0.826-20.633-4.484c-3.127,1.829-0.354,4.248-0.354,4.248s-21.124,3.953-11.388,12.155
		c-7.14,0.649-8.143,9.097-2.183,13.399c5.96,4.303,6.255,7.135,3.894,6.781c0.944,1.829,5.185,2.065,5.425,0.295
		c1.007,3.717,3.898,8.733,10.566,7.907C223.994,95.013,230.543,85.69,228.124,79.435z"/>
	<path d="M201.505,66.223c-5.027,0.692-7.324-2.148-6.06-4.646C189.212,64.759,196.019,71.803,201.505,66.223z"/>
	<path fill="#FF8B7B" d="M222.91,77.812c0.861,2.334,2.632,4.326,4.39,5.502c2.645,1.769,5.104,0.019,4.642-2.72
		c-0.416-2.465-2.293-6.356-5.079-7.05C224.12,72.86,221.926,75.144,222.91,77.812z"/>
</g>
<g>
	<g>
		<g>
			<path fill="#CAF9D6" d="M563.039,454.975c-9.903-23.365-13.905-50.815-2.569-49.711c11.628,1.133,10.258,42.559,12.15,47.109
				C568.985,455.489,563.039,454.975,563.039,454.975z"/>
			<path fill="#1A2E35" d="M566.246,410.647c-2.443,8.905-5.014,22.68-6.992,34.35c1.125,3.343,2.395,6.703,3.777,9.982
				c0,0,5.948,0.514,9.596-2.604C571.132,448.79,571.663,422.236,566.246,410.647z"/>
		</g>
		<path fill="#CAF9D6" d="M566.293,450.698c-3.094-49.65,5.394-95.663,27.625-93.586c19.11,1.786-8.751,85.37-8.216,95.014
			C576.951,455.52,566.293,450.698,566.293,450.698z"/>
		<path fill="#CAF9D6" d="M580.745,450.373c3.504-35.681,22.32-77.322,30.409-63.411c10.268,17.658-16.036,59.734-16.763,66.658
			C587.774,455.028,580.745,450.373,580.745,450.373z"/>
		<path fill="#007CFF" d="M577.201,370.363c-2.253-0.37-3.511-1.78-3.369-3.771c0.162-2.242,2.007-4.476,3.726-4.51
			c0.818,0.006,2.215,0.425,2.56,3.528l-1.33,0.149c-0.163-1.468-0.608-2.339-1.192-2.339c-0.004,0-0.008,0-0.012,0
			c-0.913,0.017-2.301,1.667-2.416,3.267c-0.094,1.303,0.664,2.095,2.25,2.356L577.201,370.363z"/>
		<path fill="#007CFF" d="M601.239,379.364c-0.675,0-1.567-0.263-2.735-1.029l0.732-1.119c1.244,0.811,2.204,1.025,2.57,0.561
			c0.568-0.715,0.18-2.836-0.979-3.943c-0.946-0.903-2.039-0.825-3.251,0.234l-0.878-1.009c1.718-1.499,3.611-1.571,5.053-0.194
			c1.626,1.553,2.172,4.397,1.103,5.743C602.577,378.96,602.075,379.364,601.239,379.364z"/>
		<path fill="#007CFF" d="M568.433,399.557c-1.807,0-3.089-0.943-3.5-2.627c-0.533-2.184,0.54-4.874,2.165-5.432
			c0.764-0.26,2.236-0.276,3.517,2.576l-1.221,0.549c-0.608-1.355-1.298-2.049-1.862-1.86c-0.864,0.297-1.679,2.292-1.299,3.851
			c0.308,1.268,1.275,1.786,2.862,1.554l0.199,1.322C568.995,399.534,568.708,399.557,568.433,399.557z"/>
		<path fill="#007CFF" d="M554.193,427.271c-1.372,0-2.466-0.694-3.067-2.003c-0.937-2.044-0.392-4.89,1.098-5.746
			c0.703-0.401,2.146-0.694,3.941,1.865l-1.095,0.768c-0.853-1.215-1.67-1.765-2.18-1.471c-0.792,0.455-1.215,2.568-0.548,4.026
			c0.546,1.189,1.592,1.516,3.106,0.984l0.444,1.262C555.293,427.167,554.722,427.271,554.193,427.271z"/>
		<path fill="#FFFFFF" d="M577.897,386.869c-0.135,0-0.271-0.041-0.389-0.124c-1.839-1.315-2.5-3.131-1.767-4.859
			c0.774-1.823,2.874-3.034,4.677-2.705c0.826,0.152,2.761,0.889,2.896,4.451c0.013,0.369-0.274,0.68-0.644,0.694
			c-0.359,0.01-0.68-0.276-0.694-0.644c-0.069-1.853-0.708-2.985-1.799-3.185c-1.181-0.216-2.679,0.676-3.204,1.912
			c-0.484,1.142-0.017,2.295,1.315,3.246c0.301,0.216,0.37,0.634,0.156,0.934C578.311,386.772,578.105,386.869,577.897,386.869z"/>
		<path fill="#FFFFFF" d="M593.763,422.986c-0.31,0-0.588-0.217-0.653-0.533c-0.076-0.362,0.157-0.716,0.519-0.791
			c1.815-0.378,2.824-1.197,2.84-2.305c0.018-1.202-1.112-2.529-2.419-2.84c-1.201-0.287-2.266,0.365-2.983,1.836
			c-0.161,0.335-0.565,0.468-0.894,0.308c-0.332-0.162-0.47-0.562-0.308-0.894c0.99-2.033,2.663-2.99,4.497-2.552
			c1.926,0.459,3.472,2.325,3.446,4.161c-0.012,0.839-0.417,2.87-3.906,3.595C593.854,422.982,593.808,422.986,593.763,422.986z"/>
		<path fill="#007CFF" d="M612.57,411.71c-0.768,0-1.799-0.46-2.961-2.19l1.111-0.745c0.828,1.234,1.626,1.79,2.15,1.517
			c0.801-0.439,1.269-2.543,0.631-4.016c-0.519-1.2-1.559-1.549-3.084-1.048l-0.418-1.27c2.165-0.715,3.936-0.046,4.729,1.786
			c0.895,2.063,0.291,4.896-1.217,5.721C613.274,411.595,612.956,411.71,612.57,411.71z"/>
	</g>
	<path d="M608.585,463.482c0-7.438-2.723-14.232-7.215-19.456c0.93-0.156,1.657-0.933,1.657-1.906c0-1.084-0.886-1.97-1.97-1.97
		h-44.803c-1.084,0-1.97,0.887-1.97,1.97c0,0.976,0.732,1.756,1.666,1.908c-4.502,5.224-7.225,12.017-7.225,19.454
		c0,11.478,6.472,21.445,15.96,26.466c-0.694,0.365-1.175,1.085-1.175,1.92c0,1.197,0.98,2.177,2.177,2.177h25.937
		c1.197,0,2.177-0.98,2.177-2.177c0-0.834-0.48-1.553-1.172-1.919C602.12,484.93,608.585,474.961,608.585,463.482z"/>
</g>
</svg>
