<?xml version="1.0" encoding="utf-8"?>
<!-- Generator: Adobe Illustrator 17.0.0, SVG Export Plug-In . SVG Version: 6.00 Build 0)  -->
<!DOCTYPE svg PUBLIC "-//W3C//DTD SVG 1.1//EN" "http://www.w3.org/Graphics/SVG/1.1/DTD/svg11.dtd">
<svg version="1.1" id="Layer_1" xmlns="http://www.w3.org/2000/svg" xmlns:xlink="http://www.w3.org/1999/xlink" x="0px" y="0px"
	 width="760px" height="520px" viewBox="0 0 760 520" enable-background="new 0 0 760 520" xml:space="preserve">
<g>
	<rect x="190.815" y="110.663" fill="#E0E0E0" width="258.136" height="171.226"/>
	<g>
		<g>
			<path fill="#F5F5F5" d="M-15.36,123.173c-0.387-24.226,18.917-44.252,43.031-44.641c24.114-0.389,44.048,19.004,44.436,43.229
				c0.387,24.226-18.916,44.252-43.031,44.641C4.961,166.792-14.973,147.399-15.36,123.173z M49.284,122.13
				c-0.185-11.583-9.716-20.856-21.246-20.67c-11.53,0.186-20.76,9.761-20.575,21.344c0.185,11.583,9.716,20.856,21.246,20.67
				C40.239,143.288,49.469,133.713,49.284,122.13z"/>
		</g>
		<g>
			<path fill="#E0E0E0" d="M-15.36,123.174c-0.387-24.226,18.916-44.252,43.03-44.641l0.367,22.928
				c-11.53,0.186-20.76,9.762-20.575,21.345c0.185,11.583,9.716,20.855,21.246,20.669l0.367,22.928
				C4.961,166.791-14.972,147.399-15.36,123.174z"/>
		</g>
		<g>
			<path fill="#EBEBEB" d="M23.744,75.006c28.212-0.455,50.718,21.44,51.171,49.782l-26.701,0.431
				c-0.217-13.551-10.528-22.084-24.017-21.866L23.744,75.006z"/>
		</g>
	</g>
	<g>
		<rect x="601.428" y="137.351" fill="#E0E0E0" width="11.326" height="45.243"/>
		<rect x="618.085" y="147.22" fill="#E0E0E0" width="11.326" height="35.374"/>
		<rect x="634.996" y="155.3" fill="#E0E0E0" width="11.326" height="27.293"/>
		<rect x="650.652" y="166.385" fill="#E0E0E0" width="11.326" height="16.208"/>
	</g>
	<g>
		<g>
			<g>
				<g>
					<rect x="175.339" y="114.961" fill="#FAFAFA" width="267.329" height="175.346"/>
				</g>
			</g>
			<g>
				<g>
					<g>
						<path fill="#263238" d="M442.669,290.306c-0.002-1.688-0.081-68.4-0.207-175.345l0.207,0.207
							c-73.361,0.015-166.394,0.033-267.308,0.053h-0.021l0.26-0.26c-0.008,62.358-0.015,121.7-0.021,175.345l-0.239-0.239
							C332.633,290.208,440.526,290.305,442.669,290.306c-2.141,0.002-110.036,0.099-267.329,0.239l-0.239,0v-0.24
							c-0.007-53.645-0.014-112.987-0.021-175.345v-0.26h0.26h0.021c100.914,0.02,193.947,0.039,267.308,0.053h0.207l0,0.207
							C442.75,221.906,442.671,288.619,442.669,290.306z"/>
					</g>
				</g>
			</g>
		</g>
		<g>
			<g>
				<g>
					<g>
						<path fill="#455A64" d="M257.039,211.791l26.294,0.362c-0.201,14.013-12.008,25.433-26.294,25.433
							c-0.051,0-0.103,0-0.154-0.001L257.039,211.791z"/>
					</g>
				</g>
				<g>
					<g>
						<g>
							<path fill="#263238" d="M300.516,247.393c0,0.016-0.194,0.031-0.562,0.045c-0.416,0.011-0.949,0.025-1.608,0.042
								c-1.45,0.017-3.446,0.04-5.875,0.068l-0.074,0.001l-0.048-0.06c-2.346-2.956-5.373-6.769-8.674-10.928
								c-2.564-3.27-4.962-6.327-6.992-8.916l0.135,0.066c-3.166-0.029-5.817-0.054-7.738-0.072
								c-0.893-0.02-1.615-0.035-2.164-0.048c-0.499-0.017-0.765-0.035-0.765-0.053s0.266-0.036,0.765-0.053
								c0.549-0.012,1.271-0.028,2.164-0.048c1.921-0.018,4.572-0.042,7.738-0.072l0.083-0.001l0.053,0.066
								c2.044,2.579,4.457,5.624,7.038,8.881c3.274,4.181,6.275,8.015,8.602,10.986l-0.122-0.059
								c2.429,0.028,4.425,0.051,5.875,0.068c0.659,0.017,1.192,0.031,1.608,0.042C300.322,247.363,300.516,247.378,300.516,247.393
								z"/>
						</g>
					</g>
				</g>
				<g>
					<g>
						<g>
							<ellipse fill="#263238" cx="301.441" cy="250.425" rx="8.507" ry="0.201"/>
						</g>
					</g>
				</g>
				<g>
					<g>
						<g>
							<ellipse fill="#263238" cx="301.441" cy="253.575" rx="8.507" ry="0.202"/>
						</g>
					</g>
				</g>
			</g>
			<g>
				<g>
					<g>
						<g>
							<path fill="#FFC285" d="M252.88,208.049l-0.369,25.793c-14.285-0.197-25.927-11.779-25.927-25.793
								c0-14.151,11.871-25.795,26.297-25.795c14.426,0,26.297,11.644,26.297,25.795H252.88z"/>
						</g>
					</g>
				</g>
				<g>
					<g>
						<g>
							<path fill="#263238" d="M242.613,199.613c0.002,0.017-0.156,0.053-0.456,0.107c-0.357,0.057-0.79,0.126-1.308,0.209
								c-1.207,0.169-2.811,0.394-4.723,0.663l-0.078,0.011l-0.059-0.057c-1.798-1.749-3.964-3.856-6.3-6.129
								c-3.027-2.969-5.75-5.672-7.708-7.644c-0.934-0.952-1.709-1.743-2.303-2.349c-0.538-0.561-0.826-0.881-0.806-0.901
								s0.345,0.262,0.916,0.789c0.618,0.583,1.423,1.342,2.393,2.258c2.009,1.919,4.764,4.59,7.791,7.559
								c2.318,2.293,4.466,4.418,6.249,6.181l-0.136-0.046c1.919-0.212,3.53-0.389,4.741-0.523c0.523-0.048,0.959-0.087,1.319-0.12
								C242.449,199.6,242.611,199.596,242.613,199.613z"/>
						</g>
					</g>
				</g>
				<g>
					<g>
						<g>
							<ellipse fill="#263238" cx="203.704" cy="182.388" rx="8.507" ry="0.201"/>
						</g>
					</g>
				</g>
				<g>
					<g>
						<g>
							<ellipse fill="#263238" cx="203.704" cy="185.539" rx="8.507" ry="0.202"/>
						</g>
					</g>
				</g>
			</g>
		</g>
		<g>
			<g>
				<g>
					<g>
						<g>
							<path fill="#E8505B" d="M344.872,157.09l-0.104-16.029c-4.72,0.027-9.533,1.894-13.224,5.156
								c-4.347,3.842-7.132,9.619-6.373,16.601c0.083,0.763,0.204,1.538,0.374,2.329c0.004,0.019,0.007,0.037,0.011,0.056
								l0.002-0.001l19.314-4.346V157.09z"/>
						</g>
					</g>
					<g opacity="0.3">
						<g>
							<path fill="#FFFFFF" d="M344.872,157.09l-0.104-16.029c-4.72,0.027-9.533,1.894-13.224,5.156
								c-4.347,3.842-7.132,9.619-6.373,16.601c0.083,0.763,0.204,1.538,0.374,2.329c0.004,0.019,0.007,0.037,0.011,0.056
								l0.002-0.001l19.314-4.346V157.09z"/>
						</g>
					</g>
					<g>
						<g>
							<path fill="#E8505B" d="M364.778,152.155c-2.699-5.637-8.017-10.153-15.588-10.913c-0.203-0.02-0.406-0.039-0.612-0.054
								c-0.13-0.009-0.258-0.022-0.389-0.03c-0.382-0.021-0.77-0.032-1.163-0.034c-0.018,0-0.035-0.001-0.053-0.001
								c-0.001,0-0.002,0-0.003,0c-0.016,0-0.032-0.001-0.049-0.001v0.003v0l0.104,16.029l0.025,3.767l19.319,4.215l0.024,0.005v0
								c0.295-1.354,0.436-2.75,0.429-4.156C366.807,157.981,366.108,154.934,364.778,152.155z"/>
						</g>
					</g>
					<g>
						<g>
							<g>
								<path fill="#FF9E3E" d="M364.778,152.155c-2.699-5.637-8.017-10.153-15.588-10.913c-0.203-0.02-0.406-0.039-0.612-0.054
									c-0.13-0.009-0.258-0.022-0.389-0.03c-0.382-0.021-0.77-0.032-1.163-0.034c-0.018,0-0.035-0.001-0.053-0.001
									c-0.001,0-0.002,0-0.003,0c-0.016,0-0.032-0.001-0.049-0.001v0.003v0l0.104,16.029l0.025,3.767l19.319,4.215l0.024,0.005v0
									c0.295-1.354,0.436-2.75,0.429-4.156C366.807,157.981,366.108,154.934,364.778,152.155z"/>
							</g>
						</g>
					</g>
				</g>
				<g>
					<g>
						<g>
							<path fill="#FFC285" d="M345.907,162.857l-19.314,4.346c1.982,8.843,9.873,15.452,19.314,15.452
								c9.487,0,17.411-6.674,19.344-15.582l-19.319-4.215"/>
						</g>
					</g>
				</g>
			</g>
			<g>
				<g>
					<g>
						<ellipse fill="#263238" cx="398.785" cy="159.972" rx="22.302" ry="0.26"/>
					</g>
				</g>
			</g>
			<g>
				<g>
					<g>
						<ellipse fill="#263238" cx="398.785" cy="154.887" rx="22.302" ry="0.261"/>
					</g>
				</g>
			</g>
			<g>
				<g>
					<g>
						<ellipse fill="#263238" cx="398.785" cy="149.803" rx="22.302" ry="0.261"/>
					</g>
				</g>
			</g>
			<g>
				<g>
					<g>
						<ellipse fill="#263238" cx="398.785" cy="164.702" rx="22.302" ry="0.26"/>
					</g>
				</g>
			</g>
			<g>
				<g>
					<g>
						<ellipse fill="#263238" cx="391.958" cy="169.85" rx="15.318" ry="0.26"/>
					</g>
				</g>
			</g>
		</g>
		<g>
			<g>
				<g>
					<g>
						<rect x="329.707" y="206.652" fill="#FF9E3E" width="4.594" height="51.309"/>
					</g>
				</g>
			</g>
			<g>
				<g>
					<g>
						<rect x="338.576" y="224.078" fill="#E8505B" width="4.594" height="33.882"/>
					</g>
				</g>
			</g>
			<g>
				<g>
					<g>
						<rect x="347.446" y="213.029" fill="#FF9E3E" width="4.594" height="45.192"/>
					</g>
				</g>
			</g>
			<g>
				<g>
					<g>
						<rect x="356.315" y="208.633" fill="#E8505B" width="4.594" height="49.327"/>
					</g>
				</g>
			</g>
			<g>
				<g>
					<g>
						<rect x="365.185" y="225.121" fill="#FF9E3E" width="4.594" height="32.839"/>
					</g>
				</g>
			</g>
			<g>
				<g>
					<g>
						<rect x="374.055" y="231.562" fill="#E8505B" width="4.594" height="26.399"/>
					</g>
				</g>
			</g>
			<g>
				<g>
					<g>
						<rect x="382.924" y="211.918" fill="#FF9E3E" width="4.594" height="46.042"/>
					</g>
				</g>
			</g>
			<g>
				<g>
					<g>
						<rect x="391.794" y="220.219" fill="#E8505B" width="4.594" height="37.742"/>
					</g>
				</g>
			</g>
			<g>
				<g>
					<g>
						<rect x="400.663" y="213.586" fill="#FF9E3E" width="4.594" height="44.375"/>
					</g>
				</g>
			</g>
			<g>
				<g>
					<g>
						<rect x="409.533" y="227.729" fill="#E8505B" width="4.594" height="30.232"/>
					</g>
				</g>
			</g>
			<g>
				<g>
					<g>
						<rect x="418.403" y="221.976" fill="#FF9E3E" width="4.594" height="35.984"/>
					</g>
				</g>
			</g>
			<g>
				<g>
					<g>
						<g>
							<path fill="#263238" d="M424.872,261.534c0,0.104-21.792,0.189-48.668,0.189c-26.885,0-48.673-0.085-48.673-0.189
								c0-0.104,21.788-0.189,48.673-0.189C403.08,261.345,424.872,261.43,424.872,261.534z"/>
						</g>
					</g>
				</g>
			</g>
			<g>
				<g>
					<g>
						<g>
							<ellipse fill="#263238" cx="332.85" cy="265.573" rx="3.409" ry="0.189"/>
						</g>
					</g>
				</g>
			</g>
			<g>
				<g>
					<g>
						<g>
							<ellipse fill="#263238" cx="343.494" cy="265.778" rx="4.075" ry="0.189"/>
						</g>
					</g>
				</g>
			</g>
			<g>
				<g>
					<g>
						<g>
							<ellipse fill="#263238" cx="353.141" cy="265.778" rx="4.075" ry="0.189"/>
						</g>
					</g>
				</g>
			</g>
			<g>
				<g>
					<g>
						<g>
							<ellipse fill="#263238" cx="362.787" cy="265.778" rx="4.075" ry="0.189"/>
						</g>
					</g>
				</g>
			</g>
			<g>
				<g>
					<g>
						<g>
							<ellipse fill="#263238" cx="372.433" cy="265.778" rx="4.075" ry="0.189"/>
						</g>
					</g>
				</g>
			</g>
			<g>
				<g>
					<g>
						<g>
							<ellipse fill="#263238" cx="382.079" cy="265.778" rx="4.075" ry="0.189"/>
						</g>
					</g>
				</g>
			</g>
			<g>
				<g>
					<g>
						<g>
							<ellipse fill="#263238" cx="391.725" cy="265.778" rx="4.075" ry="0.189"/>
						</g>
					</g>
				</g>
			</g>
			<g>
				<g>
					<g>
						<g>
							<ellipse fill="#263238" cx="401.371" cy="265.778" rx="4.075" ry="0.189"/>
						</g>
					</g>
				</g>
			</g>
			<g>
				<g>
					<g>
						<g>
							<ellipse fill="#263238" cx="411.018" cy="265.778" rx="4.075" ry="0.189"/>
						</g>
					</g>
				</g>
			</g>
			<g>
				<g>
					<g>
						<g>
							<ellipse fill="#263238" cx="420.664" cy="265.778" rx="4.075" ry="0.189"/>
						</g>
					</g>
				</g>
			</g>
			<g opacity="0.3">
				<g>
					<g>
						<rect x="338.576" y="224.078" fill="#FFC285" width="4.594" height="33.882"/>
					</g>
				</g>
			</g>
			<g opacity="0.3">
				<g>
					<g>
						<rect x="356.315" y="208.633" fill="#FFC285" width="4.594" height="49.327"/>
					</g>
				</g>
			</g>
			<g opacity="0.3">
				<g>
					<g>
						<rect x="374.055" y="231.562" fill="#FFC285" width="4.594" height="26.399"/>
					</g>
				</g>
			</g>
			<g opacity="0.3">
				<g>
					<g>
						<rect x="391.794" y="220.219" fill="#FFC285" width="4.594" height="37.742"/>
					</g>
				</g>
			</g>
			<g opacity="0.3">
				<g>
					<g>
						<rect x="409.533" y="227.729" fill="#FFC285" width="4.594" height="30.232"/>
					</g>
				</g>
			</g>
		</g>
		<g>
			<g>
				<g>
					<circle fill="#FFC285" cx="203.397" cy="147.918" r="4.422"/>
				</g>
			</g>
		</g>
		<g>
			<g>
				<g>
					<path fill="#FFC285" d="M283.848,144.43c0,0.144-14.911,0.26-33.3,0.26c-18.395,0-33.303-0.117-33.303-0.26
						c0-0.144,14.908-0.26,33.303-0.26C268.937,144.17,283.848,144.287,283.848,144.43z"/>
				</g>
			</g>
		</g>
		<g>
			<g>
				<g>
					<path fill="#FFC285" d="M243.984,149.778c0,0.036-0.367,0.07-1.032,0.101c-0.664,0.031-1.625,0.059-2.813,0.083
						c-2.375,0.047-5.657,0.076-9.281,0.076c-3.625,0-6.907-0.029-9.282-0.076c-1.188-0.023-2.149-0.052-2.813-0.083
						c-0.664-0.031-1.031-0.065-1.031-0.101c0-0.036,0.367-0.07,1.031-0.101c0.664-0.031,1.625-0.059,2.813-0.083
						c2.375-0.047,5.657-0.076,9.282-0.076c3.624,0,6.905,0.029,9.281,0.076c1.188,0.023,2.149,0.052,2.813,0.083
						C243.616,149.708,243.984,149.742,243.984,149.778z"/>
				</g>
			</g>
		</g>
	</g>
	<g>
		<g>
			<g>
				<rect x="29.983" y="130.834" fill="#FAFAFA" width="139.912" height="159.678"/>
			</g>
		</g>
		<g>
			<g>
				<g>
					<path fill="#263238" d="M169.895,290.511c0,0-0.009-0.26-0.013-0.759c-0.003-0.506-0.007-1.246-0.013-2.219
						c-0.006-1.96-0.015-4.852-0.027-8.618c-0.014-7.539-0.035-18.57-0.061-32.58c-0.028-27.997-0.068-67.887-0.116-115.502
						l0.23,0.23c-41.202,0.009-89.073,0.019-139.898,0.03h-0.014l0.26-0.26c-0.015,58.87-0.029,113.768-0.04,159.678l-0.22-0.22
						c42.092,0.047,77.043,0.086,101.48,0.113c12.229,0.025,21.825,0.044,28.373,0.057c3.271,0.011,5.779,0.02,7.478,0.025
						C169.009,290.495,169.895,290.511,169.895,290.511s-0.853,0.016-2.532,0.025c-1.69,0.006-4.184,0.014-7.436,0.025
						c-6.537,0.013-16.116,0.032-28.324,0.057c-24.471,0.027-59.47,0.066-101.62,0.113l-0.22,0l0-0.22
						c-0.012-45.909-0.025-100.807-0.04-159.678l0-0.26h0.261h0.014c50.825,0.011,98.696,0.021,139.898,0.03h0.23l0,0.23
						c-0.048,47.675-0.088,87.617-0.116,115.65c-0.026,13.987-0.047,25.001-0.061,32.528c-0.012,3.747-0.021,6.624-0.027,8.573
						c-0.006,0.962-0.01,1.694-0.013,2.194C169.904,290.269,169.895,290.511,169.895,290.511z"/>
				</g>
			</g>
		</g>
	</g>
	<g>
		<g>
			<g>
				<g>
					<path fill="#FFC285" d="M157.868,212.367c-0.046,0.095-1.549-0.776-4.499-1.71c-2.926-0.907-7.441-1.784-12.903-0.958
						c-2.709,0.434-5.643,1.253-8.51,2.735c-2.886,1.446-5.636,3.591-8.367,6.018c-2.744,2.421-5.467,5.17-8.609,7.712
						c-3.142,2.501-6.747,4.867-10.988,5.947c-2.105,0.542-4.309,0.683-6.416,0.387c-2.111-0.288-4.105-0.978-5.945-1.835
						c-3.685-1.737-6.837-4.019-9.958-5.922c-3.099-1.941-6.215-3.48-9.366-4.199c-3.132-0.762-6.173-0.916-8.909-0.683
						c-5.506,0.481-9.672,2.43-12.298,4.004c-2.639,1.613-3.883,2.826-3.954,2.741c-0.022-0.024,0.285-0.326,0.893-0.879
						c0.598-0.563,1.553-1.322,2.863-2.178c2.601-1.691,6.802-3.781,12.432-4.361c2.797-0.283,5.923-0.166,9.158,0.585
						c3.254,0.704,6.506,2.281,9.64,4.217c3.163,1.904,6.315,4.155,9.892,5.823c3.54,1.705,7.704,2.464,11.733,1.373
						c4.029-1.023,7.546-3.305,10.636-5.751c3.092-2.484,5.828-5.216,8.612-7.642c2.774-2.431,5.602-4.604,8.592-6.064
						c2.967-1.494,5.991-2.296,8.77-2.696c5.604-0.759,10.186,0.245,13.116,1.273c1.48,0.512,2.581,1.035,3.305,1.422
						C157.513,212.119,157.883,212.339,157.868,212.367z"/>
				</g>
			</g>
		</g>
		<g>
			<g>
				<g>
					<g>
						<rect x="68.493" y="233.813" fill="#FFC285" width="11.895" height="32.17"/>
					</g>
				</g>
			</g>
			<g>
				<g>
					<g>
						<rect x="118.967" y="233.813" fill="#FFC285" width="11.895" height="32.17"/>
					</g>
				</g>
			</g>
			<g>
				<g>
					<g>
						<rect x="135.792" y="214.922" fill="#FFC285" width="11.895" height="51.062"/>
					</g>
				</g>
			</g>
			<g>
				<g>
					<g>
						<rect x="53.1" y="255.856" fill="#FFC285" width="11.895" height="10.827"/>
					</g>
				</g>
			</g>
			<g>
				<g>
					<rect x="85.318" y="248.34" fill="#FFC285" width="11.895" height="17.643"/>
				</g>
			</g>
			<g>
				<g>
					<rect x="102.143" y="244.29" fill="#FFC285" width="11.895" height="21.693"/>
				</g>
			</g>
		</g>
		<g>
			<g>
				<g>
					<g>
						<ellipse fill="#263238" cx="74.441" cy="269.775" rx="6.426" ry="0.478"/>
					</g>
				</g>
			</g>
			<g>
				<g>
					<g>
						<ellipse fill="#263238" cx="59.639" cy="269.775" rx="6.427" ry="0.478"/>
					</g>
				</g>
			</g>
			<g>
				<g>
					<g>
						<ellipse fill="#263238" cx="142.766" cy="269.775" rx="7.264" ry="0.478"/>
					</g>
				</g>
			</g>
			<g>
				<g>
					<g>
						<ellipse fill="#263238" cx="125.095" cy="269.775" rx="7.265" ry="0.478"/>
					</g>
				</g>
			</g>
			<g>
				<g>
					<g>
						<ellipse fill="#263238" cx="107.611" cy="269.775" rx="6.426" ry="0.479"/>
					</g>
				</g>
			</g>
			<g>
				<g>
					<g>
						<ellipse fill="#263238" cx="90.227" cy="269.775" rx="6.427" ry="0.479"/>
					</g>
				</g>
			</g>
		</g>
	</g>
	<g>
		<g>
			<g>
				<rect x="52.82" y="154.112" fill="#E0E0E0" width="97.21" height="40.37"/>
			</g>
		</g>
		<g>
			<g>
				<g>
					<circle fill="#263238" cx="68.485" cy="166.871" r="4.532"/>
				</g>
			</g>
			<g>
				<g>
					<rect x="77.548" y="163.741" fill="#263238" width="31.576" height="1.753"/>
				</g>
			</g>
			<g>
				<g>
					<rect x="77.548" y="167.725" fill="#FFFFFF" width="61.426" height="1.753"/>
				</g>
			</g>
		</g>
		<g>
			<g>
				<g>
					<circle fill="#FFC285" cx="68.485" cy="180.804" r="4.532"/>
				</g>
			</g>
			<g>
				<g>
					<g>
						<rect x="77.548" y="177.673" fill="#FFC285" width="16.125" height="1.753"/>
					</g>
				</g>
			</g>
			<g>
				<g>
					<rect x="77.548" y="181.657" fill="#FFFFFF" width="61.426" height="1.753"/>
				</g>
			</g>
		</g>
	</g>
	<g>
		<g>
			<g>
				<g>
					<rect x="455.785" y="102.17" fill="#FAFAFA" width="153.641" height="175.346"/>
				</g>
			</g>
			<g>
				<g>
					<g>
						<path fill="#263238" d="M609.425,277.516c0,0-0.009-0.285-0.013-0.833c-0.003-0.554-0.007-1.366-0.013-2.435
							c-0.006-2.15-0.015-5.326-0.027-9.462c-0.014-8.276-0.034-20.39-0.061-35.774c-0.028-30.744-0.068-74.552-0.116-126.842
							l0.23,0.23c-45.244,0.009-97.812,0.019-153.625,0.03h-0.016l0.26-0.26c-0.015,64.647-0.029,124.932-0.04,175.345l-0.22-0.22
							c46.226,0.047,84.609,0.086,111.445,0.113c13.429,0.025,23.966,0.044,31.155,0.057c3.592,0.011,6.346,0.02,8.21,0.025
							C608.454,277.499,609.425,277.516,609.425,277.516s-0.939,0.016-2.783,0.024c-1.855,0.006-4.594,0.014-8.168,0.025
							c-7.177,0.013-17.698,0.033-31.105,0.057c-26.869,0.027-65.3,0.066-111.584,0.113l-0.22,0v-0.221
							c-0.012-50.413-0.025-110.698-0.04-175.345v-0.261h0.26h0.016c55.812,0.011,108.381,0.021,153.625,0.031h0.23l0,0.23
							c-0.048,52.351-0.088,96.21-0.116,126.99c-0.026,15.362-0.047,27.458-0.061,35.722c-0.012,4.116-0.021,7.277-0.027,9.417
							c-0.006,1.058-0.01,1.862-0.013,2.41C609.434,277.248,609.425,277.516,609.425,277.516z"/>
					</g>
				</g>
			</g>
		</g>
		<g>
			<g>
				<g>
					<rect x="468.076" y="116.189" fill="#E0E0E0" width="124.465" height="99.845"/>
				</g>
			</g>
			<g>
				<g>
					<g>
						<g>
							<rect x="476.775" y="198.283" fill="#263238" width="4.085" height="1.177"/>
						</g>
					</g>
					<g>
						<g>
							<rect x="486.016" y="204.576" fill="#263238" width="5.224" height="1.177"/>
						</g>
					</g>
					<g>
						<g>
							<rect x="504.201" y="204.576" fill="#263238" width="5.224" height="1.177"/>
						</g>
					</g>
					<g>
						<g>
							<rect x="522.386" y="204.576" fill="#263238" width="5.224" height="1.177"/>
						</g>
					</g>
					<g>
						<g>
							<rect x="540.571" y="204.576" fill="#263238" width="5.224" height="1.177"/>
						</g>
					</g>
					<g>
						<g>
							<rect x="558.757" y="204.576" fill="#263238" width="5.224" height="1.177"/>
						</g>
					</g>
					<g>
						<g>
							<rect x="576.942" y="204.576" fill="#263238" width="5.224" height="1.177"/>
						</g>
					</g>
					<g>
						<g>
							<rect x="476.775" y="182.562" fill="#263238" width="4.085" height="1.177"/>
						</g>
					</g>
					<g>
						<g>
							<rect x="476.775" y="152.972" fill="#263238" width="4.085" height="1.177"/>
						</g>
					</g>
					<g>
						<g>
							<rect x="476.775" y="138.102" fill="#263238" width="4.085" height="1.177"/>
						</g>
					</g>
					<g>
						<g>
							<rect x="476.982" y="167.767" fill="#263238" width="4.085" height="1.177"/>
						</g>
					</g>
					<g>
						<g>
							<g>
								<path fill="#263238" d="M582.019,199.46c0,0.009-0.148,0.018-0.438,0.027c-0.313,0.006-0.739,0.015-1.285,0.026
									c-1.156,0.011-2.817,0.028-4.943,0.049c-4.318,0.02-10.523,0.048-18.178,0.083c-15.371,0.02-36.565,0.046-59.973,0.076
									c-4.868-0.001-9.641-0.003-14.212-0.004h-0.257l0-0.257c0.035-20.048,0.066-37.691,0.088-50.352
									c0.033-6.299,0.059-11.358,0.077-14.869c0.019-1.722,0.034-3.064,0.044-4.002c0.01-0.438,0.018-0.781,0.023-1.036
									c0.008-0.233,0.016-0.352,0.024-0.352c0.008,0,0.016,0.119,0.024,0.352c0.006,0.256,0.013,0.599,0.023,1.036
									c0.01,0.938,0.025,2.28,0.044,4.002c0.018,3.512,0.045,8.57,0.077,14.869c0.022,12.661,0.053,30.305,0.088,50.352
									l-0.257-0.257c4.571-0.001,9.344-0.002,14.212-0.004c23.408,0.03,44.602,0.057,59.973,0.076
									c7.656,0.035,13.86,0.063,18.178,0.083c2.126,0.021,3.786,0.037,4.943,0.049c0.546,0.011,0.972,0.02,1.285,0.026
									C581.871,199.442,582.019,199.451,582.019,199.46z"/>
							</g>
						</g>
					</g>
					<g>
						<g>
							<g>
								<path fill="#263238" d="M583.17,168.355c0,0.144-21.543,0.26-48.112,0.26c-26.578,0-48.117-0.117-48.117-0.26
									c0-0.144,21.539-0.26,48.117-0.26C561.627,168.095,583.17,168.212,583.17,168.355z"/>
							</g>
						</g>
					</g>
					<g>
						<g>
							<g>
								<path fill="#263238" d="M583.17,153.561c0,0.144-21.543,0.26-48.112,0.26c-26.578,0-48.117-0.117-48.117-0.26
									s21.539-0.26,48.117-0.26C561.627,153.3,583.17,153.417,583.17,153.561z"/>
							</g>
						</g>
					</g>
					<g>
						<g>
							<g>
								<path fill="#263238" d="M583.17,138.691c0,0.144-21.543,0.26-48.112,0.26c-26.578,0-48.117-0.117-48.117-0.26
									c0-0.144,21.539-0.26,48.117-0.26C561.627,138.431,583.17,138.547,583.17,138.691z"/>
							</g>
						</g>
					</g>
					<g>
						<g>
							<g>
								<path fill="#263238" d="M583.17,183.15c0,0.144-21.543,0.26-48.112,0.26c-26.578,0-48.117-0.117-48.117-0.26
									s21.539-0.26,48.117-0.26C561.627,182.89,583.17,183.006,583.17,183.15z"/>
							</g>
						</g>
					</g>
					<g>
						<g>
							<path d="M487.933,196.277c0-2.477,0-13.126,0-13.126l8.181-12.701l5.552,4.26l11.396-17.701l6.721,4.733l9.35-16.329
								l7.597,6.189l11.396-21.662l12.272,24.211l9.935-12.114l11.688-3.344v57.586H487.933z"/>
						</g>
					</g>
				</g>
				<g>
					<g>
						<g>
							<path fill="#FF9E3E" d="M583.17,134.03c0,0.007-0.07,0.013-0.206,0.02c-0.16,0.005-0.358,0.011-0.609,0.019
								c-0.567,0.009-1.357,0.021-2.372,0.038c-2.106,0.016-5.138,0.039-8.968,0.068l0.114-0.056
								c-2.613,3.423-5.862,7.678-9.597,12.571l-0.061,0.08l-0.102,0c-6.987,0.013-15.169,0.028-24.062,0.044l0.214-0.121
								c-3.166,5.273-6.582,10.962-10.114,16.843c-3.447,5.727-6.783,11.271-9.934,16.507l-0.195,0.325l-0.222-0.306
								c-4.75-6.537-9.142-12.583-13.025-17.928l0.35-0.011c-4.953,7.699-9.042,14.054-11.91,18.512
								c-1.425,2.189-2.546,3.911-3.328,5.113c-0.376,0.565-0.671,1.008-0.886,1.332c-0.203,0.299-0.322,0.444-0.322,0.444
								s0.082-0.169,0.267-0.479c0.203-0.333,0.48-0.786,0.834-1.366c0.759-1.217,1.848-2.96,3.231-5.175
								c2.831-4.482,6.867-10.87,11.757-18.61l0.166-0.263l0.185,0.252c3.902,5.331,8.315,11.362,13.087,17.883l-0.417,0.018
								c3.146-5.239,6.477-10.786,9.918-16.517c3.538-5.878,6.959-11.563,10.131-16.833l0.073-0.122l0.141,0
								c8.893,0.016,17.075,0.031,24.062,0.044l-0.163,0.08c3.773-4.864,7.055-9.094,9.694-12.497l0.044-0.057l0.071,0
								c3.831,0.029,6.862,0.052,8.968,0.068c1.014,0.016,1.805,0.029,2.372,0.037c0.251,0.008,0.45,0.014,0.609,0.02
								C583.1,134.017,583.17,134.024,583.17,134.03z"/>
						</g>
					</g>
				</g>
				<g>
					<g>
						<ellipse fill="#E8505B" cx="507.222" cy="166.215" rx="0.923" ry="0.889"/>
					</g>
				</g>
				<g>
					<g>
						<ellipse fill="#E8505B" cx="534.976" cy="150.441" rx="0.923" ry="0.889"/>
					</g>
				</g>
				<g>
					<g>
						<ellipse fill="#E8505B" cx="556.552" cy="146.565" rx="0.923" ry="0.889"/>
					</g>
				</g>
			</g>
		</g>
		<g>
			<g>
				<g>
					<path fill="#263238" d="M586.931,230.878c0,0.144-26.264,0.26-58.654,0.26c-32.402,0-58.66-0.117-58.66-0.26
						c0-0.144,26.258-0.26,58.66-0.26C560.668,230.618,586.931,230.735,586.931,230.878z"/>
				</g>
			</g>
		</g>
		<g>
			<g>
				<g>
					<path fill="#263238" d="M586.931,237.221c0,0.144-26.264,0.26-58.654,0.26c-32.402,0-58.66-0.117-58.66-0.26
						c0-0.144,26.258-0.26,58.66-0.26C560.668,236.96,586.931,237.077,586.931,237.221z"/>
				</g>
			</g>
		</g>
		<g>
			<g>
				<g>
					<path fill="#263238" d="M586.931,243.563c0,0.144-26.264,0.26-58.654,0.26c-32.402,0-58.66-0.117-58.66-0.26
						s26.258-0.26,58.66-0.26C560.668,243.303,586.931,243.419,586.931,243.563z"/>
				</g>
			</g>
		</g>
		<g>
			<g>
				<g>
					<path fill="#263238" d="M586.931,249.905c0,0.144-26.264,0.26-58.654,0.26c-32.402,0-58.66-0.117-58.66-0.26
						s26.258-0.26,58.66-0.26C560.668,249.645,586.931,249.761,586.931,249.905z"/>
				</g>
			</g>
		</g>
	</g>
</g>
<g>
	<path d="M524.65,266.224v-18.275c0-13.525,10.964-24.489,24.489-24.489s24.489,10.964,24.489,24.489l0,0v18.275
		c-0.002,1.816-1.474,3.288-3.29,3.29H527.94C526.124,269.512,524.652,268.04,524.65,266.224z"/>
	<polygon fill="#FFB8B8" points="585.351,504.058 576.713,506.449 563.382,474.271 576.13,470.743 	"/>
	<path fill="#2F2E41" d="M569.86,505.688l16.658-4.61l0,0l2.903,10.488l0,0l-27.146,7.513l0,0l0,0
		C560.672,513.287,564.068,507.291,569.86,505.688z"/>
	<polygon fill="#FFB8B8" points="495.299,510.702 486.337,510.702 482.073,476.134 495.301,476.134 	"/>
	<path fill="#2F2E41" d="M479.935,508.141h17.284l0,0v10.883l0,0h-28.167l0,0l0,0C469.053,513.014,473.925,508.141,479.935,508.141z
		"/>
	<path fill="#FFB8B8" d="M484.492,317.511c2.417,3.262,7.02,3.948,10.283,1.531c0.348-0.258,0.672-0.546,0.969-0.86l23.824,10.715
		l-2.167-13.401l-22.291-8.121c-3.147-2.6-7.805-2.156-10.405,0.991C482.53,310.999,482.442,314.78,484.492,317.511L484.492,317.511
		z"/>
	<path fill="#2F2E41" d="M533.993,398.097c-7.485,0-15.234-1.115-21.747-4.431c-6.989-3.488-12.21-9.731-14.407-17.227
		c-3.394-10.745,0.885-21.302,5.023-31.511c2.564-6.326,4.986-12.301,5.614-18.191l0.22-2.091
		c0.979-9.392,1.824-17.503,6.504-20.545c2.426-1.577,5.687-1.667,9.972-0.276l40.239,13.072l-1.479,76.384l-0.245,0.082
		C563.475,393.435,549.29,398.097,533.993,398.097z"/>
	<path fill="#FF9E3E" d="M524.467,280.046c0,0,19.737-5.848,35.089-3.655c0,0-8.772,48.247-5.848,64.33s-50.806,6.214-39.84-9.138
		l3.655-18.275c0,0-7.31-7.31-0.731-16.082L524.467,280.046z"/>
	<path fill="#2F2E41" d="M514.759,396.649l-24.326-4.561l8.493-65.358c0.571-1.825,13.727-43.235,19.702-45.475
		c4.338-1.528,8.775-2.76,13.28-3.689l0.865-0.173l-4.878,7.317l-19.419,46.532L514.759,396.649z"/>
	<path fill="#2F2E41" d="M502.084,502.693l-31.43-5.238l17.638-72.023l26.246-98.495l0.259,1.749
		c0.021,0.13,2.472,12.997,38.854,7.288l0.32-0.05l0.088,0.312l43.972,155.369l-35.813,5.969l-32.664-113.357L502.084,502.693z"/>
	<path fill="#2F2E41" d="M545.648,408.88l0.02-0.553c0.022-0.614,2.184-61.678,1.462-86.236
		c-0.725-24.642,7.253-45.982,7.334-46.194l0.065-0.171l0.176-0.051c10.322-2.949,19.276,5.852,19.365,5.941l0.126,0.126
		l-2.94,24.252l12.585,88.191L545.648,408.88z"/>
	<circle fill="#FFB8B8" cx="544.107" cy="251.134" r="17.955"/>
	<path d="M518.857,249.411c0.012-10.694,8.678-19.36,19.372-19.372h3.655c10.694,0.012,19.36,8.678,19.372,19.372v0.366h-7.724
		l-2.635-7.377l-0.527,7.377h-3.992l-1.329-3.722l-0.266,3.722h-25.926V249.411z"/>
	<path d="M542.34,271.569c-0.74-1.002-0.84-2.34-0.258-3.441c3.873-7.367,9.297-20.98,2.098-29.376l-0.517-0.603h20.898v31.375
		l-18.984,3.35c-0.192,0.034-0.387,0.051-0.582,0.051C543.944,272.925,542.956,272.421,542.34,271.569z"/>
	<path fill="#3F3D56" d="M458.202,142.029c-41.661-35.154-103.933-29.88-139.087,11.782s-29.88,103.933,11.782,139.087
		c38.968,32.882,96.569,30.671,132.902-5.102l121.07,102.158c3.836,3.243,9.575,2.763,12.818-1.073
		c3.243-3.836,2.763-9.575-1.073-12.818l-0.013-0.011l-121.07-102.158C504.676,232.06,497.167,174.912,458.202,142.029z
		 M450.397,264.056c-26.338,31.213-72.992,35.166-104.205,8.828c-31.213-26.338-35.166-72.992-8.828-104.205
		c26.338-31.213,72.992-35.166,104.205-8.828h0C472.782,186.189,476.734,232.843,450.397,264.056
		C450.397,264.056,450.397,264.056,450.397,264.056z"/>
	<path opacity="0.3" enable-background="new    " d="M346.192,272.884c-29.415-24.822-34.872-68.057-12.548-99.41
		c-1.414,1.424-2.781,2.915-4.101,4.474c-26.338,31.213-22.385,77.868,8.828,104.205c31.213,26.338,77.867,22.385,104.205-8.828
		c1.317-1.561,2.557-3.159,3.72-4.795C419.145,295.81,375.609,297.704,346.192,272.884z"/>
	<path fill="#FFB8B8" d="M549.872,348.899c3.944,0.964,7.922-1.451,8.886-5.395c0.103-0.421,0.168-0.849,0.196-1.281l25.171-6.987
		l-10.232-8.921l-22.334,8.002c-4.082,0.012-7.381,3.331-7.369,7.412C544.199,345.146,546.549,348.11,549.872,348.899z"/>
	<path fill="#2F2E41" d="M560.334,345.201l-1.532-14.552l21.026-11.601l-13.708-16.594l2.237-18.641l5.57-2.387l0.173,0.223
		c2.627,3.377,25.663,33.101,25.663,36.775c0,3.774-4.407,14.857-10.436,17.871c-5.816,2.908-27.655,8.56-28.582,8.799
		L560.334,345.201z"/>
	<path fill="#CCCCCC" d="M669.431,520H390.913c-0.404,0-0.731-0.327-0.731-0.731s0.327-0.731,0.731-0.731h278.518
		c0.404,0,0.731,0.327,0.731,0.731S669.835,520,669.431,520z"/>
</g>
</svg>
