<?xml version="1.0" encoding="utf-8"?>
<!-- Generator: Adobe Illustrator 17.0.0, SVG Export Plug-In . SVG Version: 6.00 Build 0)  -->
<!DOCTYPE svg PUBLIC "-//W3C//DTD SVG 1.1//EN" "http://www.w3.org/Graphics/SVG/1.1/DTD/svg11.dtd">
<svg version="1.1" id="Layer_1" xmlns="http://www.w3.org/2000/svg" xmlns:xlink="http://www.w3.org/1999/xlink" x="0px" y="0px"
	 width="356.962px" height="203.335px" viewBox="0 0 356.962 203.335" enable-background="new 0 0 356.962 203.335"
	 xml:space="preserve">
<rect x="-2.148" y="-0.487" display="none" fill="#8C7D6D" width="359.462" height="203.335"/>
<rect y="17.482" width="1" height="1"/>
<rect x="95.402" y="12" width="1" height="1"/>
<rect x="113.925" y="68.569" width="1" height="1"/>
<rect y="110.669" width="1" height="1"/>
<g>
	<circle fill="#FFFFFF" stroke="#CCC2C8" stroke-width="0.25" stroke-miterlimit="10" cx="29.05" cy="91.569" r="23"/>
	<g>
		<path fill="#ED8D22" d="M29.05,84.861c-1.63,0-2.876,1.244-2.876,2.873v0.962h5.752v-0.962
			C31.925,86.105,30.681,84.861,29.05,84.861z"/>
		<path fill="#000621" d="M42.084,81.221c-0.287-0.191-0.574-0.288-0.862-0.098c-4.121,1.342-8.338,0.287-11.5-2.683
			c-0.384-0.383-0.958-0.383-1.342,0c-3.162,2.971-7.379,4.025-11.501,2.683c-0.288-0.19-0.574-0.094-0.861,0.098
			c-0.194,0.19-0.384,0.477-0.384,0.764c0,15.048,6.612,20.029,13.032,22.908c0.097,0.094,0.288,0.094,0.384,0.094
			c0.098,0,0.288,0,0.385-0.094c6.419-2.879,13.031-7.86,13.031-22.908C42.467,81.698,42.276,81.411,42.084,81.221z M34.801,95.404
			c0,1.627-1.247,2.873-2.875,2.873h-5.752c-1.627,0-2.873-1.246-2.873-2.873v-3.835c0-0.862,0.383-1.632,0.958-2.11v-1.725
			c0-2.68,2.107-4.79,4.792-4.79s4.792,2.109,4.792,4.79v1.725c0.574,0.48,0.958,1.248,0.958,2.11L34.801,95.404L34.801,95.404z"/>
		<path fill="#ED8D22" d="M29.05,91.569c-0.574,0-0.958,0.381-0.958,0.955v1.918c0,0.575,0.384,0.962,0.958,0.962
			s0.958-0.387,0.958-0.962v-1.918C30.01,91.951,29.624,91.569,29.05,91.569z"/>
	</g>
</g>
<circle fill="#FFFFFF" stroke="#CCC2C8" stroke-width="0.25" stroke-miterlimit="10" cx="95.902" cy="91.569" r="23"/>
<g>
	<path fill="#ED8D22" d="M99.267,83.13l1.235-2.476h1.621c0.212,0.607,0.827,0.993,1.487,0.895c0.744-0.114,1.258-0.809,1.14-1.555
		c-0.11-0.745-0.805-1.256-1.552-1.141c-0.513,0.077-0.913,0.434-1.074,0.893h-1.904c-0.17,0-0.327,0.098-0.403,0.251l-1.243,2.476
		H97.04v0.911h1.816C99.031,83.382,99.189,83.283,99.267,83.13z"/>
	<path fill="#ED8D22" d="M105.764,84.745c0.187,0.531,0.685,0.913,1.282,0.913c0.752,0,1.365-0.612,1.365-1.367
		c0-0.752-0.612-1.366-1.365-1.366c-0.597,0-1.095,0.38-1.282,0.91h-1.903c-0.151,0-0.294,0.073-0.377,0.202l-0.779,1.162h-1.119
		v0.908h1.365c0.149,0,0.293-0.077,0.379-0.2l0.775-1.164L105.764,84.745L105.764,84.745z"/>
	<path fill="#ED8D22" d="M107.956,90.205c-0.593,0-1.093,0.38-1.282,0.908h-2.814v0.913h2.814c0.189,0.524,0.688,0.908,1.282,0.908
		c0.75,0,1.363-0.612,1.363-1.365C109.319,90.817,108.705,90.205,107.956,90.205z"/>
	<path fill="#ED8D22" d="M108.411,99.3c0-0.752-0.612-1.365-1.365-1.365c-0.597,0-1.095,0.38-1.282,0.909h-1.14l-0.794-1.987
		c-0.07-0.172-0.236-0.286-0.421-0.286h-1.365v0.908h1.056l0.795,1.988c0.067,0.174,0.236,0.288,0.421,0.288h1.449
		c0.187,0.528,0.685,0.908,1.279,0.908C107.798,100.665,108.411,100.052,108.411,99.3z"/>
	<path fill="#ED8D22" d="M103.407,104.759c0.75,0,1.365-0.612,1.365-1.365c0-0.756-0.614-1.366-1.365-1.366
		c-0.595,0-1.097,0.38-1.282,0.908h-1.558l-0.817-2.852c-0.056-0.198-0.233-0.33-0.436-0.33H97.04v0.908h1.93l0.816,2.855
		c0.057,0.195,0.233,0.33,0.436,0.33h1.904C102.311,104.376,102.812,104.759,103.407,104.759z"/>
	<path fill="#000621" d="M88.396,91.569c0,4.012,3.268,7.276,7.28,7.276c4.014,0,7.276-3.264,7.276-7.276
		c0-4.014-3.262-7.278-7.276-7.278C91.665,84.292,88.396,87.555,88.396,91.569z M98.855,90.66l1.368-0.455l0.455,1.819l-0.911,1.365
		l1.394,1.392c-1.033,1.759-2.887,2.979-5.035,3.132V96.57l1.821-0.456v-1.363l-1.365-1.363l-2.272,1.818l-1.823-1.368l-2.388,0.8
		c-0.503-0.91-0.79-1.959-0.79-3.072c0-0.029,0.002-0.058,0.002-0.088l2.271,0.544l0.454-1.365h1.817l1.366-2.276L93.4,87.472
		l-0.754-1.505c0.903-0.491,1.934-0.768,3.03-0.768c1.732,0,3.3,0.693,4.448,1.819H97.95l-0.455,1.816L98.855,90.66z"/>
	<path fill="#000621" d="M90.654,103.901l0.754-1.303c0.78,0.302,1.599,0.527,2.449,0.658v1.505h1.819v-4.552
		c-4.772,0-8.644-3.864-8.644-8.638s3.873-8.642,8.644-8.642v-4.548h-1.819v1.505c-0.85,0.131-1.667,0.356-2.449,0.657l-0.754-1.304
		l-3.15,1.817l0.756,1.306c-0.659,0.531-1.259,1.131-1.791,1.791l-1.305-0.752l-1.82,3.15l1.304,0.756
		c-0.301,0.777-0.526,1.596-0.657,2.441h-1.505v3.643h1.505c0.131,0.849,0.356,1.666,0.657,2.448l-1.304,0.749l1.82,3.152
		l1.305-0.752c0.532,0.659,1.135,1.259,1.791,1.793l-0.756,1.303L90.654,103.901z"/>
</g>
<g>
	<circle fill="#FFFFFF" stroke="#CCC2C8" stroke-width="0.25" stroke-miterlimit="10" cx="29.05" cy="35" r="23"/>
	<g id="XMLID_455_">
		<path id="XMLID_458_" fill="#000621" d="M16.859,45.042h10.275c1.576,1.991,4.013,3.273,6.745,3.273
			c4.734,0.001,8.589-3.854,8.589-8.592c0-4.734-3.854-8.589-8.589-8.589c-2.821,0-5.332,1.369-6.898,3.476
			c-0.635-0.135-1.283-0.207-1.937-0.207c-5.188,0-9.41,4.222-9.41,9.407C15.634,44.491,16.184,45.042,16.859,45.042z M33.879,33.59
			c3.38,0,6.131,2.751,6.131,6.131c0,3.383-2.751,6.135-6.131,6.135c-3.383,0-6.136-2.753-6.136-6.135
			C27.741,36.342,30.496,33.59,33.879,33.59z"/>
		<path id="XMLID_461_" fill="#000621" d="M25.044,21.684c-2.833,0-5.135,2.302-5.135,5.132s2.302,5.136,5.133,5.136
			c2.829,0,5.133-2.306,5.133-5.136S27.873,21.684,25.044,21.684z"/>
		<path id="XMLID_462_" fill="#ED8D22" d="M31.423,40.953h1.226v1.224c0,0.677,0.548,1.227,1.23,1.227
			c0.679,0,1.228-0.55,1.228-1.227v-1.224h1.224c0.68,0,1.231-0.55,1.231-1.231c0-0.677-0.55-1.225-1.231-1.225h-1.224V37.27
			c0-0.679-0.55-1.231-1.228-1.231c-0.681,0-1.23,0.55-1.23,1.231v1.227h-1.226c-0.676,0-1.226,0.548-1.226,1.225
			C30.198,40.404,30.748,40.953,31.423,40.953z"/>
	</g>
</g>
<g>
	<circle fill="#FFFFFF" stroke="#CCC2C8" stroke-width="0.25" stroke-miterlimit="10" cx="95.902" cy="35" r="23"/>
	<g>
		<path fill="#000621" d="M106.443,23.501H85.358c-1.628,0-2.873,1.246-2.873,2.873v17.252c0,1.628,1.245,2.873,2.873,2.873h21.085
			c1.63,0,2.875-1.246,2.875-2.873V26.374C109.318,24.747,108.074,23.501,106.443,23.501z M89.287,26.949
			c0.1-0.094,0.1-0.191,0.193-0.287c0.096-0.094,0.193-0.192,0.288-0.192c0.381-0.191,0.767-0.097,1.055,0.192
			c0.093,0.097,0.192,0.194,0.192,0.287c0.097,0.097,0.097,0.288,0.097,0.384c0,0.287-0.097,0.48-0.288,0.671
			c-0.193,0.191-0.384,0.287-0.673,0.287c-0.287,0-0.477-0.096-0.67-0.287s-0.287-0.384-0.287-0.671
			C89.191,27.237,89.191,27.045,89.287,26.949z M86.318,27.333c0-0.288,0.096-0.478,0.288-0.671l0.096-0.094
			c0.094,0,0.094-0.097,0.193-0.097c0.093-0.098,0.093-0.098,0.189-0.098s0.288,0,0.384,0s0.096,0,0.192,0.098
			c0.097,0,0.097,0.097,0.189,0.097l0.1,0.094c0.097,0.097,0.189,0.195,0.189,0.288c0.1,0.096,0.1,0.287,0.1,0.383
			c0,0.097,0,0.287-0.1,0.384c0,0.096-0.093,0.191-0.189,0.287c-0.192,0.191-0.384,0.287-0.673,0.287
			c-0.286,0-0.48-0.097-0.667-0.287C86.414,27.813,86.318,27.62,86.318,27.333z M91.779,40.078c0.387,0.384,0.387,0.958,0,1.343
			c-0.189,0.191-0.381,0.287-0.667,0.287c-0.288,0-0.481-0.097-0.673-0.287l-2.874-2.876c-0.383-0.381-0.383-0.958,0-1.341
			l2.874-2.875c0.384-0.384,0.958-0.384,1.342,0c0.385,0.384,0.385,0.958,0,1.343l-2.205,2.203L91.779,40.078z M92.641,28.195
			c-0.094-0.094-0.189-0.094-0.288-0.191c-0.094-0.097-0.189-0.191-0.189-0.288c-0.098-0.097-0.098-0.287-0.098-0.383
			c0-0.096,0-0.288,0.098-0.384c0.096-0.094,0.096-0.19,0.189-0.287c0.387-0.381,0.959-0.381,1.343,0
			c0.097,0.097,0.193,0.194,0.193,0.287c0.096,0.097,0.096,0.288,0.096,0.384s0,0.287-0.096,0.383
			c-0.097,0.097-0.097,0.191-0.193,0.288c-0.192,0.191-0.383,0.287-0.669,0.287C92.93,28.292,92.741,28.292,92.641,28.195z
			 M98.68,34.426l-3.833,7.667c-0.191,0.382-0.477,0.574-0.862,0.574c-0.192,0-0.288,0-0.383-0.096
			c-0.478-0.19-0.671-0.765-0.384-1.246l3.834-7.667c0.193-0.479,0.767-0.67,1.248-0.381C98.68,33.467,98.874,34.043,98.68,34.426z
			 M104.24,38.546l-2.874,2.876c-0.192,0.191-0.387,0.287-0.673,0.287c-0.286,0-0.48-0.097-0.669-0.287
			c-0.385-0.385-0.385-0.959,0-1.343l2.205-2.203l-2.205-2.203c-0.385-0.384-0.385-0.959,0-1.343c0.383-0.383,0.955-0.383,1.342,0
			l2.877,2.875C104.62,37.587,104.62,38.163,104.24,38.546z"/>
		<path fill="#ED8D22" d="M86.322,27.323c0-0.287,0.094-0.479,0.288-0.671l0.092-0.096c0.098,0,0.098-0.094,0.195-0.094
			c0.096-0.097,0.096-0.097,0.189-0.097c0.098,0,0.288,0,0.387,0c0.094,0,0.094,0,0.187,0.097c0.1,0,0.1,0.094,0.195,0.094
			l0.094,0.096c0.1,0.097,0.192,0.193,0.192,0.287c0.097,0.096,0.097,0.288,0.097,0.383s0,0.287-0.097,0.383
			c0,0.094-0.093,0.191-0.192,0.287c-0.189,0.191-0.381,0.287-0.67,0.287c-0.287,0-0.479-0.096-0.668-0.287
			C86.416,27.801,86.322,27.61,86.322,27.323z"/>
		<path fill="#ED8D22" d="M89.201,27.323c0-0.287,0.096-0.479,0.288-0.671l0.096-0.096c0.094,0,0.094-0.094,0.193-0.094
			c0.096-0.097,0.096-0.097,0.189-0.097c0.1,0,0.288,0,0.384,0s0.096,0,0.192,0.097c0.097,0,0.097,0.094,0.192,0.094l0.097,0.096
			c0.097,0.097,0.189,0.193,0.189,0.287c0.098,0.096,0.098,0.288,0.098,0.383s0,0.287-0.098,0.383c0,0.094-0.096,0.191-0.189,0.287
			c-0.192,0.191-0.387,0.288-0.673,0.288c-0.286,0-0.48-0.096-0.669-0.288C89.297,27.8,89.201,27.61,89.201,27.323z"/>
		<path fill="#ED8D22" d="M92.081,27.323c0-0.287,0.096-0.479,0.288-0.671l0.093-0.096c0.1,0,0.1-0.094,0.195-0.094
			c0.093-0.097,0.093-0.097,0.192-0.097c0.094,0,0.288,0,0.381,0c0.096,0,0.096,0,0.193,0.097c0.096,0,0.096,0.094,0.189,0.094
			l0.1,0.096c0.094,0.097,0.189,0.193,0.189,0.287c0.098,0.096,0.098,0.288,0.098,0.383s0,0.287-0.098,0.383
			c0,0.094-0.096,0.191-0.189,0.287c-0.195,0.191-0.387,0.288-0.674,0.288c-0.288,0-0.477-0.096-0.669-0.288
			C92.177,27.801,92.081,27.61,92.081,27.323z"/>
		<path fill="#ED8D22" d="M91.799,40.122c0.383,0.386,0.383,0.962,0,1.346c-0.195,0.193-0.385,0.288-0.676,0.288
			c-0.288,0-0.477-0.096-0.67-0.288l-2.887-2.885c-0.383-0.384-0.383-0.961,0-1.346l2.887-2.885c0.381-0.384,0.96-0.384,1.345,0
			c0.383,0.384,0.383,0.961,0,1.347l-2.213,2.21L91.799,40.122z"/>
		<path fill="#ED8D22" d="M98.637,34.433L94.802,42.1c-0.193,0.384-0.479,0.574-0.86,0.574c-0.196,0-0.288,0-0.384-0.094
			c-0.48-0.194-0.67-0.767-0.384-1.247l3.835-7.667c0.192-0.481,0.767-0.672,1.246-0.384C98.637,33.473,98.827,34.05,98.637,34.433z
			"/>
		<path fill="#ED8D22" d="M104.216,38.57l-2.877,2.873c-0.189,0.194-0.384,0.287-0.67,0.287c-0.287,0-0.481-0.095-0.668-0.287
			c-0.387-0.382-0.387-0.958,0-1.34l2.203-2.205l-2.203-2.204c-0.387-0.384-0.387-0.959,0-1.342c0.381-0.382,0.956-0.382,1.338,0
			l2.877,2.875C104.597,37.611,104.597,38.186,104.216,38.57z"/>
	</g>
</g>
<path fill="#9BA2AD" d="M25.157,141.949c0.013,0.178,0.013,0.355,0.013,0.533c0,5.419-4.124,11.662-11.662,11.662
	c-2.322,0-4.48-0.673-6.294-1.84c0.33,0.038,0.647,0.051,0.99,0.051c1.916,0,3.68-0.647,5.089-1.751
	c-1.802-0.038-3.312-1.218-3.833-2.843c0.254,0.038,0.508,0.063,0.774,0.063c0.368,0,0.736-0.051,1.079-0.14
	c-1.878-0.381-3.287-2.03-3.287-4.023v-0.051c0.546,0.305,1.18,0.495,1.853,0.52c-1.104-0.736-1.827-1.992-1.827-3.414
	c0-0.761,0.203-1.459,0.558-2.069c2.018,2.487,5.051,4.112,8.452,4.289c-0.063-0.305-0.102-0.622-0.102-0.939
	c0-2.259,1.827-4.099,4.099-4.099c1.18,0,2.246,0.495,2.995,1.294c0.926-0.178,1.815-0.52,2.602-0.99
	c-0.305,0.952-0.952,1.751-1.802,2.259c0.825-0.089,1.624-0.317,2.36-0.634C26.654,140.641,25.956,141.365,25.157,141.949z"/>
<path fill="#9BA2AD" d="M75.023,140.896c-2.838,0-5.127,2.289-5.127,5.127s2.289,5.127,5.127,5.127s5.127-2.289,5.127-5.127
	C80.15,143.184,77.861,140.896,75.023,140.896z M75.023,149.355c-1.834,0-3.333-1.495-3.333-3.333s1.495-3.333,3.333-3.333
	s3.333,1.495,3.333,3.333S76.857,149.355,75.023,149.355z M81.555,140.686c0,0.665-0.535,1.196-1.196,1.196
	c-0.665,0-1.196-0.535-1.196-1.196c0-0.66,0.535-1.196,1.196-1.196S81.555,140.026,81.555,140.686z M84.951,141.899
	c-0.076-1.602-0.442-3.021-1.615-4.19c-1.169-1.169-2.588-1.535-4.19-1.615c-1.651-0.094-6.599-0.094-8.25,0
	c-1.597,0.076-3.016,0.442-4.19,1.611s-1.535,2.588-1.615,4.19c-0.094,1.651-0.094,6.599,0,8.25c0.076,1.602,0.442,3.021,1.615,4.19
	s2.588,1.535,4.19,1.615c1.651,0.094,6.599,0.094,8.25,0c1.602-0.076,3.021-0.442,4.19-1.615c1.169-1.169,1.535-2.588,1.615-4.19
	C85.044,148.494,85.044,143.55,84.951,141.899z M82.818,151.916c-0.348,0.875-1.022,1.548-1.901,1.901
	c-1.316,0.522-4.439,0.402-5.894,0.402c-1.455,0-4.582,0.116-5.894-0.402c-0.875-0.348-1.548-1.022-1.901-1.901
	c-0.522-1.316-0.402-4.439-0.402-5.894s-0.116-4.582,0.402-5.894c0.348-0.875,1.022-1.548,1.901-1.901
	c1.316-0.522,4.439-0.402,5.894-0.402c1.455,0,4.582-0.116,5.894,0.402c0.875,0.348,1.548,1.022,1.901,1.901
	c0.522,1.316,0.402,4.439,0.402,5.894C83.219,147.477,83.34,150.604,82.818,151.916z"/>
<path fill="#EC8C22" d="M25.157,168.761c0.013,0.178,0.013,0.355,0.013,0.533c0,5.419-4.124,11.662-11.662,11.662
	c-2.322,0-4.48-0.673-6.294-1.84c0.33,0.038,0.647,0.051,0.99,0.051c1.916,0,3.68-0.647,5.089-1.751
	c-1.802-0.038-3.312-1.218-3.833-2.843c0.254,0.038,0.508,0.063,0.774,0.063c0.368,0,0.736-0.051,1.079-0.14
	c-1.878-0.381-3.287-2.03-3.287-4.023v-0.051c0.546,0.305,1.18,0.495,1.853,0.52c-1.104-0.736-1.827-1.992-1.827-3.414
	c0-0.761,0.203-1.459,0.558-2.069c2.018,2.487,5.051,4.112,8.452,4.289c-0.063-0.305-0.102-0.622-0.102-0.939
	c0-2.259,1.827-4.099,4.099-4.099c1.18,0,2.246,0.495,2.995,1.294c0.926-0.178,1.815-0.52,2.602-0.99
	c-0.305,0.952-0.952,1.751-1.802,2.259c0.825-0.089,1.624-0.317,2.36-0.635C26.654,167.454,25.956,168.177,25.157,168.761z"/>
<path fill="#EC8C22" d="M75.023,167.708c-2.838,0-5.127,2.289-5.127,5.127s2.289,5.127,5.127,5.127s5.127-2.289,5.127-5.127
	S77.861,167.708,75.023,167.708z M75.023,176.167c-1.834,0-3.333-1.495-3.333-3.333s1.495-3.333,3.333-3.333
	s3.333,1.495,3.333,3.333S76.857,176.167,75.023,176.167z M81.555,167.498c0,0.665-0.535,1.196-1.196,1.196
	c-0.665,0-1.196-0.535-1.196-1.196c0-0.66,0.535-1.196,1.196-1.196S81.555,166.838,81.555,167.498z M84.951,168.712
	c-0.076-1.602-0.442-3.021-1.615-4.19c-1.169-1.169-2.588-1.535-4.19-1.615c-1.651-0.094-6.599-0.094-8.25,0
	c-1.597,0.076-3.016,0.442-4.19,1.611s-1.535,2.588-1.615,4.19c-0.094,1.651-0.094,6.599,0,8.25c0.076,1.602,0.442,3.021,1.615,4.19
	s2.588,1.535,4.19,1.615c1.651,0.094,6.599,0.094,8.25,0c1.602-0.076,3.021-0.442,4.19-1.615c1.169-1.169,1.535-2.588,1.615-4.19
	C85.044,175.306,85.044,170.363,84.951,168.712z M82.818,178.729c-0.348,0.875-1.022,1.548-1.901,1.901
	c-1.316,0.522-4.439,0.402-5.894,0.402c-1.455,0-4.582,0.116-5.894-0.402c-0.875-0.348-1.548-1.022-1.901-1.901
	c-0.522-1.316-0.402-4.439-0.402-5.894s-0.116-4.582,0.402-5.894c0.348-0.875,1.022-1.548,1.901-1.901
	c1.316-0.522,4.439-0.402,5.894-0.402c1.455,0,4.582-0.116,5.894,0.402c0.875,0.348,1.548,1.022,1.901,1.901
	c0.522,1.316,0.402,4.439,0.402,5.894S83.34,177.417,82.818,178.729z"/>
<path fill="#EC8C22" d="M215-57.853c0-2.624,2.126-4.75,4.75-4.75h28.5c2.62,0,4.75,2.126,4.75,4.75v19c0,2.62-2.13,4.75-4.75,4.75
	h-28.5c-2.624,0-4.75-2.13-4.75-4.75V-57.853z M218.563-57.853v1.64l12.803,10.509c1.529,1.262,3.741,1.262,5.27,0l12.803-10.509
	v-1.707c0-0.586-0.534-1.188-1.188-1.188h-28.5c-0.656,0-1.188,0.601-1.188,1.188L218.563-57.853L218.563-57.853z M218.563-51.604
	v12.751c0,0.653,0.531,1.188,1.188,1.188h28.5c0.653,0,1.188-0.534,1.188-1.188v-12.751L238.9-42.95
	c-2.85,2.338-6.947,2.338-9.864,0L218.563-51.604z"/>
<path fill="#EC8C22" d="M177.465,21.79c-1.967,0-3.563,1.596-3.563,3.563c0,1.121,0.527,2.175,1.425,2.85l16.15,12.113
	c0.846,0.631,2.004,0.631,2.85,0l16.15-12.113c0.898-0.675,1.425-1.729,1.425-2.85c0-1.967-1.596-3.563-3.563-3.563
	C208.34,21.79,177.465,21.79,177.465,21.79z M173.903,30.102V45.54c0,2.62,2.13,4.75,4.75,4.75h28.5c2.62,0,4.75-2.13,4.75-4.75
	V30.102l-16.15,12.113c-1.692,1.269-4.008,1.269-5.7,0L173.903,30.102z"/>
<path fill="#EC8C22" d="M152.148,54.186c3.817-4.777,12.523-16.356,12.523-22.859c0-7.888-6.399-14.287-14.287-14.287
	s-14.287,6.399-14.287,14.287c0,6.504,8.706,18.082,12.523,22.859C149.536,55.324,151.232,55.324,152.148,54.186z M150.384,36.089
	c-2.627,0-4.762-2.136-4.762-4.762s2.136-4.762,4.762-4.762s4.762,2.136,4.762,4.762S153.011,36.089,150.384,36.089z"/>
<path fill="#FFFFFF" d="M18.415,193.805c0.293,0.293,0.293,0.769,0,1.062l-4.499,4.499c-0.293,0.293-0.769,0.293-1.062,0
	s-0.293-0.769,0-1.062l3.97-3.97l-3.967-3.97c-0.293-0.293-0.293-0.769,0-1.062s0.769-0.293,1.062,0l4.499,4.499L18.415,193.805z"/>
<path fill="#EC8C22" d="M40.898,193.805c0.293,0.293,0.293,0.769,0,1.062l-4.499,4.499c-0.293,0.293-0.769,0.293-1.062,0
	s-0.293-0.769,0-1.062l3.97-3.97l-3.967-3.97c-0.293-0.293-0.293-0.769,0-1.062s0.769-0.293,1.062,0l4.499,4.499L40.898,193.805z"/>
<path fill="#319536" d="M29.415,193.805c0.293,0.293,0.293,0.769,0,1.062l-4.499,4.499c-0.293,0.293-0.769,0.293-1.062,0
	s-0.293-0.769,0-1.062l3.97-3.97l-3.967-3.97c-0.293-0.293-0.293-0.769,0-1.062s0.769-0.293,1.062,0l4.499,4.499L29.415,193.805z"/>
<path fill="#FFFFFF" d="M242.598,35.387c1.87-1.87,1.87-4.898,0-6.768c-1.655-1.655-4.262-1.87-6.165-0.51l-0.053,0.036
	c-0.477,0.341-0.586,1.003-0.245,1.476s1.003,0.586,1.476,0.245l0.053-0.036c1.062-0.758,2.515-0.639,3.435,0.285
	c1.042,1.042,1.042,2.73,0,3.773l-3.713,3.72c-1.042,1.042-2.73,1.042-3.773,0c-0.923-0.923-1.042-2.376-0.285-3.435l0.036-0.053
	c0.341-0.477,0.228-1.138-0.245-1.476s-1.138-0.228-1.476,0.245l-0.036,0.053c-1.363,1.9-1.148,4.507,0.506,6.162
	c1.87,1.87,4.898,1.87,6.768,0L242.598,35.387z M225.402,34.613c-1.87,1.87-1.87,4.898,0,6.768c1.655,1.655,4.262,1.87,6.165,0.51
	l0.053-0.036c0.477-0.341,0.586-1.003,0.245-1.476s-1.003-0.586-1.476-0.245l-0.053,0.036c-1.062,0.758-2.515,0.639-3.435-0.285
	c-1.042-1.046-1.042-2.734,0-3.776l3.713-3.716c1.042-1.042,2.73-1.042,3.773,0c0.923,0.923,1.042,2.376,0.285,3.438l-0.036,0.053
	c-0.341,0.477-0.228,1.138,0.245,1.476c0.473,0.338,1.138,0.228,1.476-0.245l0.036-0.053c1.363-1.903,1.148-4.511-0.506-6.165
	c-1.87-1.87-4.898-1.87-6.768,0L225.402,34.613z"/>
<path fill="#FFFFFF" d="M257.335,28.296c-0.39-0.39-1.025-0.39-1.415,0l-4.998,4.998c-0.39,0.39-0.39,1.025,0,1.415
	s1.025,0.39,1.415,0l3.292-3.296v9.584c0,0.553,0.447,1,1,1s1-0.447,1-1v-9.584l3.292,3.292c0.39,0.39,1.025,0.39,1.415,0
	s0.39-1.025,0-1.415l-4.998-4.998L257.335,28.296z"/>
<path fill="#FFFFFF" d="M278.136,36.645c0.335-0.335,0.335-0.879,0-1.213l-4.286-4.286c-0.335-0.335-0.879-0.335-1.213,0
	c-0.335,0.335-0.335,0.879,0,1.213l2.826,2.823h-8.218c-0.474,0-0.857,0.383-0.857,0.857s0.383,0.857,0.857,0.857h8.216
	l-2.821,2.823c-0.335,0.335-0.335,0.879,0,1.213c0.335,0.335,0.879,0.335,1.213,0l4.286-4.286L278.136,36.645z"/>
<path fill="#000621" d="M296.186,28.281c-0.39-0.39-1.025-0.39-1.415,0l-4.998,4.998c-0.39,0.39-0.39,1.025,0,1.415
	s1.025,0.39,1.415,0l3.292-3.296v9.584c0,0.553,0.447,1,1,1s1-0.447,1-1v-9.584l3.292,3.292c0.39,0.39,1.025,0.39,1.415,0
	s0.39-1.025,0-1.415l-4.998-4.998L296.186,28.281z"/>
<path fill="#000621" d="M316.987,36.63c0.335-0.335,0.335-0.879,0-1.213l-4.286-4.286c-0.335-0.335-0.879-0.335-1.213,0
	c-0.335,0.335-0.335,0.879,0,1.213l2.826,2.823h-8.218c-0.474,0-0.857,0.383-0.857,0.857s0.383,0.857,0.857,0.857h8.216
	l-2.821,2.823c-0.335,0.335-0.335,0.879,0,1.213c0.335,0.335,0.879,0.335,1.213,0l4.286-4.286L316.987,36.63z"/>
<path fill="#FFFFFF" d="M335.487,36.63c0.335-0.335,0.335-0.879,0-1.213l-4.286-4.286c-0.335-0.335-0.879-0.335-1.213,0
	c-0.335,0.335-0.335,0.879,0,1.213l2.826,2.823h-8.218c-0.474,0-0.857,0.383-0.857,0.857s0.383,0.857,0.857,0.857h8.216
	l-2.821,2.823c-0.335,0.335-0.335,0.879,0,1.213c0.335,0.335,0.879,0.335,1.213,0l4.286-4.286L335.487,36.63z"/>
<circle fill="#FFFFFF" stroke="#CCC2C8" stroke-width="0.25" stroke-miterlimit="10" cx="157.799" cy="91.99" r="23"/>
<g>
	<g id="XMLID_39_">
		<g>
			<polygon fill="#E7ECED" points="154.25,99.57 154.25,101.183 148.444,101.183 154.25,94.731 154.25,97.312 			"/>
			<polygon fill="#E7ECED" points="161.347,94.731 167.154,101.183 161.347,101.183 161.347,99.57 161.347,97.312 			"/>
			<path fill="#737779" d="M157.799,84.086c1.071,0,1.935,0.864,1.935,1.935s-0.864,1.935-1.935,1.935s-1.935-0.864-1.935-1.935
				C155.863,84.951,156.728,84.086,157.799,84.086z"/>
			<path fill="#FFFFFF" stroke="#CCC2C8" stroke-width="0.25" stroke-miterlimit="10" d="M163.928,84.731v3.226h-1.916
				c-0.026,0.077-0.058,0.155-0.091,0.226l1.355,1.355l-2.284,2.284l-1.355-1.355c-0.071,0.031-0.148,0.064-0.226,0.089v1.917
				h-3.226v-1.917c-0.077-0.025-0.155-0.058-0.226-0.089l-1.355,1.348l-2.284-2.278l1.355-1.355
				c-0.032-0.071-0.065-0.148-0.09-0.226h-1.916V84.73h1.916c0.026-0.077,0.058-0.155,0.09-0.226l-1.348-1.355l2.277-2.284
				l1.355,1.355c0.071-0.031,0.148-0.064,0.226-0.089v-1.917h3.226v1.917c0.077,0.025,0.155,0.058,0.226,0.089l1.355-1.355
				l2.284,2.284l-1.355,1.355c0.033,0.071,0.065,0.148,0.091,0.226L163.928,84.731L163.928,84.731L163.928,84.731z M159.734,86.022
				c0-1.071-0.864-1.935-1.935-1.935s-1.935,0.864-1.935,1.935s0.864,1.935,1.935,1.935S159.734,87.093,159.734,86.022z"/>
			<path fill="#EC8C22" d="M166.831,86.344c0,3.729-2.258,6.929-5.484,8.31v0.077v2.581h-7.097v-2.581v-0.077
				c-3.226-1.38-5.484-4.581-5.484-8.31c0-4.987,4.045-9.032,9.032-9.032C162.786,77.312,166.831,81.357,166.831,86.344z
				 M163.928,87.957v-3.226h-1.916c-0.026-0.077-0.058-0.155-0.091-0.226l1.355-1.355l-2.284-2.284l-1.355,1.355
				c-0.071-0.031-0.148-0.064-0.226-0.089v-1.917h-3.226v1.917c-0.077,0.025-0.155,0.058-0.226,0.089l-1.355-1.355l-2.277,2.284
				l1.348,1.355c-0.032,0.071-0.065,0.148-0.09,0.226h-1.916v3.226h1.916c0.026,0.077,0.058,0.155,0.09,0.226l-1.355,1.355
				l2.284,2.278l1.355-1.348c0.071,0.031,0.148,0.064,0.226,0.089v1.917h3.226v-1.917c0.077-0.025,0.155-0.058,0.226-0.089
				l1.355,1.355l2.284-2.284l-1.355-1.355c0.033-0.071,0.065-0.148,0.091-0.226h1.916L163.928,87.957L163.928,87.957z"/>
			<polygon fill="#AFB6BB" points="161.347,101.183 161.347,102.151 160.057,102.151 155.541,102.151 154.25,102.151 
				154.25,101.183 154.25,99.57 161.347,99.57 			"/>
			<rect x="154.25" y="97.312" fill="#E7ECED" width="7.097" height="2.258"/>
			<rect x="155.541" y="102.151" fill="#546A79" width="4.516" height="3.226"/>
		</g>
		<g>
			<path fill="#231F20" d="M155.06,92.273l0.481-0.478v0.679c0,0.356,0.289,0.645,0.645,0.645h3.226
				c0.356,0,0.645-0.289,0.645-0.645V91.8l0.48,0.479c0.252,0.252,0.66,0.252,0.912,0l2.284-2.284c0.252-0.252,0.252-0.66,0-0.912
				l-0.479-0.479h0.675c0.356,0,0.645-0.289,0.645-0.645v-3.226c0-0.356-0.289-0.645-0.645-0.645h-0.675l0.479-0.479
				c0.252-0.252,0.252-0.66,0-0.912l-2.284-2.284c-0.252-0.252-0.66-0.252-0.912,0l-0.48,0.479v-0.675
				c0-0.356-0.289-0.645-0.645-0.645h-3.226c-0.356,0-0.645,0.289-0.645,0.645v0.675l-0.479-0.479
				c-0.121-0.121-0.285-0.189-0.456-0.189c0,0,0,0-0.001,0c-0.171,0-0.335,0.068-0.456,0.19l-2.277,2.284
				c-0.251,0.252-0.251,0.659-0.001,0.911l0.478,0.481h-0.679c-0.356,0-0.645,0.289-0.645,0.645v3.226
				c0,0.356,0.289,0.645,0.645,0.645h0.675l-0.479,0.479c-0.121,0.121-0.189,0.285-0.189,0.457c0,0.171,0.068,0.335,0.19,0.456
				l2.284,2.278C154.401,92.523,154.808,92.524,155.06,92.273z M153.234,89.537l0.898-0.898c0.19-0.19,0.242-0.479,0.131-0.724
				c-0.029-0.063-0.05-0.115-0.064-0.16c-0.087-0.265-0.334-0.443-0.613-0.443h-1.271v-1.935h1.271c0.279,0,0.526-0.179,0.613-0.443
				c0.015-0.045,0.036-0.097,0.064-0.16c0.111-0.244,0.06-0.532-0.13-0.722l-0.895-0.9l1.367-1.371l0.898,0.898
				c0.189,0.189,0.474,0.242,0.718,0.133c0.048-0.021,0.11-0.048,0.163-0.065c0.266-0.086,0.446-0.334,0.446-0.614v-1.271h1.935
				v1.271c0,0.279,0.18,0.527,0.446,0.614c0.053,0.017,0.115,0.044,0.162,0.065c0.244,0.109,0.53,0.056,0.719-0.133l0.899-0.899
				l1.372,1.372l-0.899,0.899c-0.192,0.192-0.243,0.482-0.129,0.728c0.026,0.056,0.048,0.111,0.064,0.158
				c0.088,0.263,0.334,0.441,0.612,0.441h1.271v1.935h-1.271c-0.278,0-0.524,0.178-0.612,0.441
				c-0.016,0.047-0.038,0.102-0.064,0.158c-0.114,0.246-0.063,0.536,0.129,0.728l0.899,0.899l-1.372,1.372l-0.899-0.899
				c-0.189-0.189-0.475-0.242-0.719-0.133c-0.047,0.021-0.109,0.048-0.162,0.065c-0.266,0.086-0.446,0.334-0.446,0.614v1.271h-1.935
				v-1.271c0-0.279-0.18-0.527-0.446-0.614c-0.053-0.017-0.115-0.044-0.163-0.065c-0.243-0.108-0.528-0.056-0.717,0.132
				l-0.899,0.895L153.234,89.537z"/>
			<path fill="#231F20" d="M157.799,88.602c1.423,0,2.581-1.158,2.581-2.581c0-1.423-1.158-2.581-2.581-2.581
				c-1.423,0-2.581,1.158-2.581,2.581C155.218,87.445,156.376,88.602,157.799,88.602z M157.799,84.731c0.711,0,1.29,0.579,1.29,1.29
				s-0.579,1.29-1.29,1.29s-1.29-0.579-1.29-1.29C156.508,85.31,157.087,84.731,157.799,84.731z"/>
			<path fill="#231F20" d="M167.633,100.751l-5.28-5.866c3.137-1.673,5.123-4.94,5.123-8.541c0-5.336-4.341-9.677-9.677-9.677
				s-9.677,4.341-9.677,9.677c0,3.601,1.986,6.868,5.123,8.541l-5.28,5.866c-0.17,0.189-0.213,0.461-0.11,0.694
				c0.104,0.233,0.335,0.383,0.589,0.383h5.161v0.323c0,0.356,0.289,0.645,0.645,0.645h0.645v2.581c0,0.356,0.289,0.645,0.645,0.645
				h1.613v1.29h1.29v-1.29h1.613c0.356,0,0.645-0.289,0.645-0.645v-2.581h0.645c0.356,0,0.645-0.289,0.645-0.645v-0.323h5.161
				c0.255,0,0.486-0.15,0.589-0.383C167.847,101.213,167.804,100.941,167.633,100.751z M154.896,97.957h5.806v0.968h-5.806V97.957z
				 M149.412,86.344c0-4.625,3.762-8.387,8.387-8.387s8.387,3.762,8.387,8.387c0,3.364-1.999,6.393-5.092,7.716
				c-0.237,0.102-0.391,0.335-0.391,0.593v2.013h-5.806v-2.013c0-0.258-0.154-0.492-0.391-0.593
				C151.411,92.737,149.412,89.708,149.412,86.344z M149.893,100.538l3.713-4.125v4.125H149.893z M159.412,104.731h-3.226v-1.935
				h3.226V104.731z M160.702,101.506h-5.806v-1.29h5.806V101.506z M161.992,100.538v-4.125l3.713,4.125H161.992z"/>
		</g>
	</g>
</g>
<g>
	<circle fill="#FFFFFF" stroke="#CCC2C8" stroke-width="0.25" stroke-miterlimit="10" cx="220.41" cy="90.888" r="23"/>
	<g>
		<path fill="#EC8C22" stroke="#000000" stroke-width="1.5" stroke-miterlimit="10" d="M232.426,92.035
			c-0.179-0.269-0.448-0.448-0.806-0.448c-1.969,0-3.849,0.895-5.012,2.506l-0.806,1.074c-0.984,1.164-2.506,1.79-4.028,1.79h-2.685
			c-0.537,0-0.895-0.358-0.895-0.895s0.358-0.895,0.895-0.895h1.701c1.432,0,2.775-1.164,2.775-2.596v-0.09
			c0-0.448-0.447-0.895-0.895-0.895h-5.46c-3.222,0-5.818,1.432-7.25,3.759l-2.417,3.759c-0.179,0.269-0.179,0.627,0,0.895
			l2.685,4.475c0.089,0.179,0.358,0.358,0.537,0.448c0.089,0,0.089,0,0.179,0c0.179,0,0.358-0.09,0.537-0.179
			c3.401-2.238,7.339-3.401,11.367-3.401c2.954,0,5.639-1.611,7.071-4.207l2.417-4.296
			C232.515,92.661,232.515,92.303,232.426,92.035z"/>
		<path fill="#EC8C22" stroke="#000000" stroke-width="1.5" stroke-miterlimit="10" d="M209.693,92.482c0.09,0,0.269,0,0.358,0
			c1.074-0.985,2.417-1.701,3.849-2.148c-0.089-0.448-0.179-0.985-0.179-1.432c0-3.938,3.222-7.16,7.16-7.16s7.16,3.222,7.16,7.16
			c0,0.627-0.09,1.253-0.269,1.88c1.164-0.627,2.506-0.985,3.849-0.985c0.627,0,1.253,0.269,1.701,0.627
			c0.089-0.537,0.089-0.985,0.089-1.522c0-0.985-0.089-1.969-0.358-2.954c-0.089-0.448-0.537-0.716-0.985-0.716
			c-1.074,0.179-2.148-0.358-2.685-1.343c-0.537-0.895-0.448-2.148,0.179-2.954c0.268-0.358,0.268-0.895-0.09-1.164
			c-1.432-1.343-3.133-2.327-5.012-2.864c-0.448-0.09-0.895,0.09-1.074,0.537c-0.447,0.985-1.432,1.611-2.506,1.611
			c-1.074,0-2.059-0.627-2.506-1.611c-0.179-0.448-0.627-0.716-1.074-0.537c-1.88,0.537-3.58,1.522-5.012,2.954
			c-0.358,0.269-0.358,0.806-0.09,1.164c0.627,0.895,0.716,2.059,0.179,2.954c-0.537,0.895-1.611,1.432-2.685,1.343
			c-0.447-0.09-0.895,0.269-0.984,0.716c-0.269,0.895-0.358,1.88-0.358,2.864c0,0.985,0.09,1.969,0.358,2.954
			C208.798,92.303,209.245,92.572,209.693,92.482z"/>
	</g>
</g>
<g>
	<circle fill="#FFFFFF" stroke="#CCC2C8" stroke-width="0.25" stroke-miterlimit="10" cx="285.314" cy="91.439" r="23"/>
	<g>
		<path fill="#EC8C22" d="M297.353,86.474c-0.67-1.583-1.628-3.005-2.849-4.225c-1.22-1.22-2.642-2.179-4.224-2.848
			c-1.639-0.694-3.38-1.045-5.174-1.045s-3.535,0.351-5.174,1.045c-1.583,0.669-3.005,1.628-4.225,2.848s-2.178,2.642-2.848,4.225
			c-0.693,1.639-1.045,3.38-1.045,5.174s0.351,3.535,1.045,5.174c0.67,1.582,1.628,3.005,2.848,4.225s2.642,2.178,4.225,2.848
			c1.639,0.693,3.379,1.044,5.174,1.044c1.794,0,3.535-0.351,5.174-1.044c1.582-0.67,3.004-1.628,4.224-2.848
			c1.221-1.22,2.179-2.643,2.849-4.225c0.693-1.639,1.044-3.38,1.044-5.174S298.046,88.113,297.353,86.474z"/>
		<path fill="#E6E9ED" d="M291.514,85.239c-1.712-1.712-3.987-2.654-6.408-2.654s-4.697,0.943-6.408,2.654
			c-1.712,1.712-2.654,3.988-2.654,6.408c0,2.421,0.943,4.696,2.654,6.408c1.712,1.712,3.987,2.654,6.408,2.654
			s4.696-0.943,6.408-2.654c1.712-1.712,2.655-3.988,2.655-6.408S293.226,86.951,291.514,85.239z"/>
		<path fill="#EC8C22" d="M285.106,86.814c-2.665,0-4.834,2.168-4.834,4.834c0,2.665,2.168,4.833,4.834,4.833
			c2.665,0,4.833-2.168,4.833-4.833C289.939,88.982,287.771,86.814,285.106,86.814z"/>
		<path fill="#F6BB42" d="M300.781,80.615c-0.077-0.219-0.273-0.374-0.504-0.4l-3.365-0.374l-0.374-3.364
			c-0.026-0.231-0.181-0.427-0.401-0.504c-0.219-0.077-0.463-0.021-0.627,0.143l-4.272,4.273c-0.098,0.098-0.16,0.228-0.173,0.367
			l-0.309,3.109c-0.023,0.235,0.093,0.463,0.297,0.582c0.095,0.055,0.199,0.081,0.304,0.081c0.122,0,0.244-0.036,0.349-0.111
			l2.14-1.512l-1.512,2.141c-0.136,0.193-0.148,0.448-0.028,0.652c0.109,0.188,0.308,0.3,0.521,0.3c0.02,0,0.04-0.001,0.06-0.003
			l3.11-0.308c0.139-0.014,0.268-0.075,0.367-0.174l4.272-4.272C300.802,81.079,300.857,80.834,300.781,80.615z"/>
		<path fill="#434A54" d="M285.106,92.251c-0.155,0-0.309-0.058-0.427-0.177c-0.236-0.235-0.236-0.618,0-0.854l1.86-1.86
			c0.236-0.236,0.619-0.236,0.855,0c0.235,0.235,0.235,0.619,0,0.854l-1.861,1.86C285.415,92.193,285.26,92.251,285.106,92.251z"/>
		<path fill="#FFCE54" d="M296.793,79.961c-0.103-0.103-0.284-0.225-0.566-0.225c-0.556,0-1.612,0.488-5.538,4.024
			c-2.131,1.92-4.125,3.866-4.145,3.885c-0.116,0.114-0.182,0.27-0.182,0.433v1.708c0,0.334,0.271,0.605,0.604,0.605h1.709
			c0.163,0,0.319-0.065,0.432-0.182c0.021-0.021,2.144-2.196,4.146-4.435c1.183-1.323,2.096-2.412,2.713-3.237
			c0.386-0.516,0.655-0.925,0.823-1.252C296.901,81.068,297.24,80.408,296.793,79.961z"/>
	</g>
</g>
<g>
	<rect x="124.097" y="178.711" fill="#EC8C22" width="20" height="2.245"/>
	<rect x="124.097" y="171.23" fill="#EC8C22" width="20" height="2.245"/>
	<rect x="124.097" y="163.748" fill="#EC8C22" width="20" height="2.245"/>
</g>
<g>
	<path fill="#ED8D22" d="M160.2,145.066c-0.039-0.322-0.058-0.641-0.058-0.922c0-4.195,3.46-7.656,7.656-7.656
		c1.957,0,3.789,0.788,5.136,2.019l-0.675,0.688c-0.153,0.152-0.211,0.374-0.153,0.585c0.07,0.199,0.234,0.352,0.446,0.398
		c0.118,0.023,3.992,1.273,3.746,1.223c0.314,0.104,0.778-0.231,0.691-0.692c-0.024-0.119-0.882-4.422-0.832-4.175
		c-0.047-0.212-0.2-0.387-0.41-0.446c-0.2-0.058-0.422,0-0.575,0.152l-0.574,0.563c-1.769-1.652-4.199-2.661-6.801-2.661
		c-5.496,0-10,4.504-10,10.001v0.023c0,0.33,0.016,0.585,0.033,0.781c0.023,0.259,0.214,0.471,0.469,0.522l1.204,0.241
		C159.896,145.79,160.248,145.461,160.2,145.066"/>
	<path fill="#ED8D22" d="M177.301,142.817l-1.208-0.246c-0.392-0.08-0.747,0.249-0.699,0.645c0.042,0.342,0.06,0.675,0.06,0.927
		c0,4.196-3.46,7.657-7.656,7.657c-1.957,0-3.789-0.79-5.137-2.032l0.676-0.675c0.152-0.153,0.211-0.375,0.152-0.587
		c-0.07-0.199-0.234-0.351-0.446-0.398c-0.118-0.025-3.993-1.272-3.746-1.224c-0.199-0.035-0.398,0.024-0.528,0.165
		c-0.139,0.128-0.199,0.34-0.163,0.527c0.024,0.118,0.882,4.383,0.832,4.137c0.046,0.21,0.199,0.387,0.41,0.445
		c0.244,0.061,0.449-0.012,0.574-0.151l0.563-0.563c1.77,1.652,4.2,2.699,6.813,2.699c5.496,0,10-4.504,10-10.001v-0.034
		c0-0.261-0.01-0.514-0.031-0.768C177.745,143.081,177.555,142.869,177.301,142.817"/>
</g>
<g>
	<path fill="#ED8D22" d="M191.032,142.05c0.105,0.361,0.251,0.709,0.436,1.035l-0.526,0.663c-0.171,0.217-0.152,0.526,0.041,0.721
		l0.906,0.905c0.195,0.196,0.504,0.213,0.721,0.042l0.658-0.522c0.339,0.195,0.699,0.348,1.075,0.455l0.099,0.848
		c0.031,0.275,0.263,0.48,0.538,0.48h1.281c0.275,0,0.507-0.206,0.54-0.48l0.094-0.818c0.403-0.105,0.79-0.262,1.152-0.466
		l0.638,0.504c0.216,0.172,0.525,0.152,0.721-0.041l0.905-0.906c0.195-0.195,0.212-0.504,0.041-0.721l-0.496-0.628
		c0.206-0.356,0.367-0.736,0.474-1.133l0.764-0.088c0.275-0.032,0.481-0.264,0.481-0.538v-1.281c0-0.274-0.206-0.506-0.481-0.539
		l-0.753-0.088c-0.103-0.393-0.258-0.768-0.455-1.121l0.464-0.585c0.172-0.217,0.152-0.526-0.04-0.721l-0.903-0.904
		c-0.196-0.195-0.505-0.212-0.721-0.04l-0.569,0.451c-0.369-0.217-0.764-0.383-1.178-0.494l-0.085-0.736
		c-0.032-0.275-0.265-0.48-0.539-0.48h-1.281c-0.275,0-0.506,0.205-0.538,0.48l-0.085,0.736c-0.425,0.114-0.831,0.286-1.209,0.511
		l-0.59-0.468c-0.217-0.172-0.526-0.153-0.721,0.04l-0.906,0.906c-0.195,0.195-0.212,0.504-0.041,0.721l0.494,0.624
		c-0.198,0.357-0.347,0.736-0.446,1.131l-0.79,0.09c-0.275,0.032-0.48,0.263-0.48,0.538v1.282c0,0.275,0.205,0.506,0.48,0.538
		L191.032,142.05z M195.673,138.585c1.167,0,2.118,0.951,2.118,2.118c0,1.166-0.951,2.117-2.118,2.117s-2.118-0.951-2.118-2.117
		C193.555,139.536,194.506,138.585,195.673,138.585"/>
	<path fill="#ED8D22" d="M208.335,142.365l-0.675-0.571c-0.208-0.175-0.515-0.166-0.713,0.02l-0.373,0.35
		c-0.316-0.152-0.65-0.259-0.996-0.321l-0.105-0.515c-0.054-0.266-0.3-0.45-0.571-0.429l-0.881,0.075
		c-0.271,0.023-0.483,0.245-0.492,0.517l-0.017,0.524c-0.339,0.122-0.659,0.289-0.951,0.499l-0.446-0.296
		c-0.228-0.151-0.53-0.107-0.706,0.101l-0.57,0.68c-0.176,0.208-0.169,0.515,0.019,0.712l0.391,0.416
		c-0.136,0.305-0.232,0.625-0.287,0.953l-0.558,0.114c-0.266,0.053-0.45,0.3-0.429,0.57l0.075,0.882
		c0.023,0.27,0.244,0.482,0.517,0.491l0.603,0.02c0.109,0.287,0.253,0.56,0.427,0.815l-0.338,0.509
		c-0.15,0.228-0.107,0.53,0.102,0.706l0.676,0.57c0.208,0.176,0.516,0.167,0.712-0.019l0.442-0.415
		c0.29,0.136,0.595,0.236,0.908,0.297l0.122,0.604c0.054,0.267,0.3,0.451,0.57,0.429l0.882-0.074
		c0.271-0.024,0.483-0.244,0.492-0.517l0.019-0.592c0.322-0.114,0.627-0.269,0.907-0.46l0.487,0.323
		c0.228,0.15,0.53,0.106,0.706-0.102l0.571-0.676c0.176-0.208,0.167-0.515-0.019-0.712l-0.392-0.416
		c0.143-0.305,0.249-0.627,0.309-0.956l0.536-0.11c0.266-0.054,0.45-0.3,0.429-0.571l-0.075-0.882
		c-0.023-0.27-0.245-0.483-0.517-0.492l-0.539-0.017c-0.112-0.313-0.262-0.61-0.448-0.885l0.294-0.441
		C208.587,142.846,208.544,142.542,208.335,142.365 M205.012,147.464c-0.952,0.081-1.793-0.63-1.872-1.581
		c-0.081-0.953,0.628-1.795,1.581-1.873c0.953-0.082,1.794,0.628,1.873,1.581C206.675,146.543,205.965,147.384,205.012,147.464"/>
	<path fill="#ED8D22" d="M194.117,149.837c-0.27,0.028-0.479,0.256-0.48,0.528l-0.007,0.542c-0.004,0.273,0.198,0.504,0.468,0.54
		l0.399,0.05c0.067,0.244,0.161,0.475,0.283,0.694l-0.258,0.317c-0.171,0.213-0.158,0.517,0.032,0.713l0.38,0.388
		c0.19,0.195,0.496,0.217,0.712,0.049l0.32-0.247c0.226,0.134,0.464,0.239,0.712,0.311l0.043,0.411
		c0.028,0.271,0.256,0.479,0.529,0.482l0.542,0.006c0.272,0.004,0.504-0.198,0.539-0.468l0.049-0.391
		c0.271-0.066,0.528-0.167,0.772-0.3l0.3,0.242c0.213,0.173,0.517,0.159,0.713-0.032l0.389-0.379
		c0.195-0.191,0.216-0.496,0.049-0.712l-0.23-0.299c0.142-0.235,0.252-0.487,0.326-0.751l0.357-0.037
		c0.27-0.027,0.478-0.256,0.48-0.528l0.007-0.542c0.005-0.273-0.198-0.504-0.468-0.539l-0.348-0.045
		c-0.066-0.261-0.165-0.514-0.294-0.751l0.217-0.267c0.171-0.212,0.159-0.516-0.032-0.712l-0.38-0.388
		c-0.191-0.196-0.495-0.217-0.712-0.051l-0.26,0.2c-0.244-0.149-0.506-0.262-0.781-0.339l-0.034-0.338
		c-0.028-0.27-0.256-0.478-0.528-0.481l-0.543-0.006c-0.272-0.004-0.503,0.198-0.538,0.468l-0.042,0.334
		c-0.284,0.074-0.556,0.186-0.81,0.331l-0.268-0.219c-0.213-0.172-0.517-0.159-0.713,0.032l-0.391,0.381
		c-0.195,0.192-0.217,0.496-0.049,0.713l0.23,0.296c-0.133,0.236-0.238,0.487-0.307,0.751L194.117,149.837z M197.621,149.223
		c0.779,0.008,1.403,0.65,1.395,1.429c-0.009,0.779-0.651,1.403-1.429,1.395c-0.78-0.009-1.404-0.651-1.395-1.429
		C196.2,149.839,196.842,149.214,197.621,149.223"/>
</g>
<g>
	<path fill="#ED8D22" d="M232.068,150.059h-9.166c-0.23,0-0.417,0.186-0.417,0.417v1.666c0,0.23,0.186,0.416,0.417,0.416h9.166
		c0.23,0,0.417-0.186,0.417-0.416v-1.666C232.484,150.246,232.297,150.059,232.068,150.059"/>
	<path fill="#ED8D22" d="M241.234,139.225c0.69,0,1.25,0.561,1.25,1.251c0,0.691-0.56,1.251-1.25,1.251s-1.25-0.56-1.25-1.251
		C239.984,139.786,240.544,139.225,241.234,139.225"/>
	<path fill="#ED8D22" d="M231.234,145.893h-1.249v-0.833c0-1.379-1.122-2.501-2.5-2.501s-2.5,1.122-2.5,2.501v0.833h-1.25
		c-0.23,0-0.417,0.187-0.417,0.417v2.917h8.333v-2.917C231.651,146.08,231.465,145.893,231.234,145.893 M225.818,147.976
		c0,0.23-0.186,0.417-0.417,0.417c-0.23,0-0.416-0.187-0.416-0.417v-0.833c0-0.23,0.187-0.416,0.416-0.416
		c0.231,0,0.417,0.185,0.417,0.416V147.976z M227.484,147.976c0,0.23-0.187,0.417-0.417,0.417c-0.23,0-0.417-0.187-0.417-0.417
		v-0.833c0-0.23,0.187-0.416,0.417-0.416c0.23,0,0.417,0.185,0.417,0.416V147.976z"/>
	<path fill="#ED8D22" d="M241.113,144.765l-0.753-0.753c0.018-0.066,0.041-0.131,0.041-0.203c0-0.074-0.024-0.139-0.042-0.208
		l0.826-1.046c-0.644-0.015-1.211-0.326-1.582-0.8l-0.369,1.295c-0.16,0.07-0.282,0.195-0.371,0.343h-0.961
		c-0.23,0-0.417,0.186-0.417,0.417v1.667c0,0.229,0.187,0.416,0.417,0.416c0.229,0,0.417-0.187,0.417-0.416v-1.251h0.545
		c0.146,0.244,0.401,0.417,0.705,0.417c0.071,0,0.137-0.025,0.203-0.041l0.458,0.458l-0.955,0.955c-0.162,0.161-0.162,0.426,0,0.589
		c0.081,0.081,0.188,0.122,0.294,0.122c0.107,0,0.214-0.041,0.295-0.121l1.251-1.251
		C241.275,145.192,241.275,144.928,241.113,144.765"/>
	<path fill="#ED8D22" d="M232.901,137.559c-1.088,0-2.028-0.605-2.528-1.49l-3.636,5.749c0.241-0.056,0.489-0.091,0.747-0.091
		c1.328,0,2.467,0.785,3.002,1.911l2.749-6.111C233.124,137.539,233.016,137.559,232.901,137.559"/>
	<path fill="#ED8D22" d="M232.901,132.559c1.151,0,2.083,0.932,2.083,2.084c0,1.15-0.932,2.083-2.083,2.083
		s-2.084-0.932-2.084-2.083C230.818,133.492,231.751,132.559,232.901,132.559"/>
	<path fill="#ED8D22" d="M235.774,135.073c-0.135,0.902-0.68,1.662-1.443,2.095l4.848,3.034c0.09-0.672,0.497-1.239,1.071-1.55
		L235.774,135.073z"/>
</g>
<path fill="#ED8D22" d="M273.909,137.501c-0.023-0.51-0.023-0.998-0.023-1.484c0-0.394-0.301-0.695-0.696-0.695
	c-2.897,0-5.098-0.834-6.93-2.619c-0.278-0.255-0.695-0.255-0.973,0c-1.832,1.785-4.033,2.619-6.93,2.619
	c-0.394,0-0.695,0.301-0.695,0.695c0,0.486,0,0.973-0.023,1.484c-0.092,4.866-0.231,11.541,7.903,14.345l0.231,0.047l0.232-0.047
	C274.118,149.042,274.002,142.39,273.909,137.501 M265.218,144.244c-0.139,0.117-0.301,0.186-0.487,0.186h-0.022
	c-0.186,0-0.371-0.093-0.487-0.231l-2.155-2.388l1.043-0.927l1.692,1.878l3.755-3.57l0.951,1.019L265.218,144.244z"/>
<g>
	<path fill="#ED8D22" d="M178.198,165.956v-2.929c0-0.97-0.789-1.758-1.757-1.758h-16.484c-0.97,0-1.758,0.789-1.758,1.758v2.929
		H178.198z M171.713,163.613h3.516c0.324,0,0.586,0.263,0.586,0.586c0,0.324-0.262,0.585-0.586,0.585h-3.516
		c-0.323,0-0.587-0.262-0.587-0.585C171.127,163.875,171.39,163.613,171.713,163.613 M165.854,163.613
		c0.323,0,0.586,0.263,0.586,0.586c0,0.324-0.263,0.585-0.586,0.585c-0.324,0-0.586-0.262-0.586-0.585
		C165.268,163.875,165.53,163.613,165.854,163.613 M163.51,163.613c0.324,0,0.586,0.263,0.586,0.586
		c0,0.324-0.262,0.585-0.586,0.585c-0.323,0-0.585-0.262-0.585-0.585C162.924,163.875,163.187,163.613,163.51,163.613
		 M161.166,163.613c0.325,0,0.587,0.263,0.587,0.586c0,0.324-0.262,0.585-0.587,0.585c-0.323,0-0.585-0.262-0.585-0.585
		C160.581,163.875,160.843,163.613,161.166,163.613"/>
	<path fill="#ED8D22" d="M158.198,167.129v12.305c0,0.969,0.787,1.758,1.757,1.758h16.484c0.969,0,1.758-0.789,1.758-1.758v-12.305
		H158.198z M165.048,175.46c0.253,0.202,0.294,0.571,0.092,0.824c-0.202,0.253-0.571,0.293-0.824,0.09l-2.93-2.343
		c-0.293-0.234-0.294-0.681,0-0.915l2.93-2.343c0.252-0.203,0.622-0.162,0.824,0.091c0.202,0.253,0.161,0.622-0.092,0.824
		l-2.357,1.886L165.048,175.46z M170.494,169.703l-3.516,8.203c-0.127,0.297-0.471,0.436-0.769,0.308
		c-0.297-0.127-0.435-0.473-0.307-0.77l3.516-8.203c0.127-0.298,0.472-0.435,0.769-0.308
		C170.484,169.061,170.622,169.405,170.494,169.703 M175.009,174.031l-2.929,2.343c-0.252,0.203-0.622,0.162-0.825-0.09
		c-0.201-0.253-0.161-0.622,0.092-0.824l2.358-1.886l-2.358-1.886c-0.253-0.202-0.294-0.571-0.092-0.824
		c0.203-0.253,0.572-0.294,0.825-0.092l2.929,2.343C175.302,173.35,175.302,173.797,175.009,174.031"/>
</g>
<path fill="#ED8D22" d="M207.523,162.353c-0.081-0.078-0.179-0.117-0.293-0.117c-2.131,0-3.891,0.291-5.279,0.869
	c-1.388,0.58-2.849,1.633-4.384,3.16c-0.653,0.661-1.372,1.458-2.155,2.388l-4.642,0.245c-0.131,0.017-0.237,0.081-0.319,0.196
	l-2.743,4.704c-0.098,0.162-0.078,0.321,0.061,0.477l0.784,0.784c0.074,0.073,0.167,0.112,0.282,0.112
	c0.049,0,0.085-0.005,0.11-0.013l3.381-1.042l3.441,3.442l-1.041,3.379c-0.041,0.148-0.008,0.278,0.098,0.392l0.784,0.784
	c0.09,0.073,0.184,0.11,0.282,0.11c0.074,0,0.138-0.016,0.196-0.05l4.704-2.742c0.114-0.083,0.179-0.188,0.195-0.319l0.245-4.642
	c0.931-0.783,1.727-1.502,2.388-2.155c1.454-1.462,2.488-2.934,3.105-4.415c0.617-1.482,0.925-3.24,0.925-5.273
	C207.646,162.522,207.606,162.431,207.523,162.353 M204.559,166.988c-0.228,0.228-0.506,0.343-0.833,0.343
	c-0.326,0-0.604-0.115-0.833-0.343c-0.228-0.229-0.343-0.506-0.343-0.833c0-0.326,0.114-0.604,0.343-0.833
	c0.229-0.228,0.506-0.342,0.833-0.342s0.605,0.114,0.833,0.342c0.229,0.229,0.343,0.507,0.343,0.833
	C204.903,166.482,204.789,166.76,204.559,166.988"/>
<g>
	<path fill="#ED8D22" d="M227.255,172.795c-1.563,0-3.134-0.219-4.273-0.683v1.465c0.236,0.279,1.539,0.849,3.805,0.919
		c0.133-0.08,0.27-0.155,0.412-0.222c0.151-0.526,0.375-1.027,0.662-1.49C227.66,172.791,227.457,172.795,227.255,172.795"/>
	<path fill="#ED8D22" d="M227.255,169.377c-1.563,0-3.134-0.218-4.273-0.683v1.465c0.019,0.022,0.045,0.046,0.078,0.072
		c0.401,0.316,1.832,0.854,4.195,0.854c1.03,0,1.882-0.103,2.549-0.244c0.416-0.258,0.86-0.462,1.323-0.611
		c0.132-0.043,0.266-0.08,0.401-0.114v-1.424C230.389,169.158,228.818,169.377,227.255,169.377"/>
	<path fill="#ED8D22" d="M227.255,165.958c-1.563,0-3.134-0.218-4.273-0.682v1.465c0.019,0.023,0.045,0.047,0.078,0.073
		c0.401,0.315,1.832,0.854,4.195,0.854s3.794-0.539,4.195-0.854c0.032-0.026,0.059-0.05,0.078-0.073v-1.465
		C230.389,165.74,228.818,165.958,227.255,165.958"/>
	<path fill="#ED8D22" d="M227.255,162.539c-2.362,0-3.794,0.539-4.196,0.855c0.402,0.316,1.834,0.854,4.196,0.854
		c2.363,0,3.795-0.538,4.196-0.854C231.049,163.078,229.618,162.539,227.255,162.539"/>
	<path fill="#ED8D22" d="M236.875,174.222c-0.633-1.454-2.032-2.451-3.637-2.556c-0.095-0.006-0.189-0.011-0.285-0.011
		c-0.192,0-0.383,0.014-0.569,0.039l-0.065,0.008c-0.272,0.042-0.536,0.108-0.79,0.197c-0.376,0.133-0.728,0.319-1.048,0.546
		c-0.682,0.485-1.216,1.164-1.522,1.957c-0.109,0.282-0.187,0.578-0.234,0.885c-0.014,0.092-0.027,0.186-0.034,0.279
		c-0.517,0.102-0.988,0.329-1.383,0.647c-0.731,0.589-1.2,1.49-1.2,2.5c0,1.769,1.44,3.207,3.208,3.207h7.488
		c2.123,0,3.85-1.727,3.85-3.849C240.653,175.972,238.965,174.26,236.875,174.222"/>
</g>
<path fill="#EC8C22" d="M47.082,193.763c0.293,0.293,0.293,0.769,0,1.062l-4.499,4.499c-0.293,0.293-0.769,0.293-1.062,0
	s-0.293-0.769,0-1.062l3.97-3.97l-3.967-3.97c-0.293-0.293-0.293-0.769,0-1.062s0.769-0.293,1.062,0l4.499,4.499L47.082,193.763z"/>
<path d="M60.831,193.805c0.293,0.293,0.293,0.769,0,1.062l-4.499,4.499c-0.293,0.293-0.769,0.293-1.062,0s-0.293-0.769,0-1.062
	l3.97-3.97l-3.967-3.97c-0.293-0.293-0.293-0.769,0-1.062s0.769-0.293,1.062,0l4.499,4.499L60.831,193.805z"/>
<path d="M67.015,193.763c0.293,0.293,0.293,0.769,0,1.062l-4.499,4.499c-0.293,0.293-0.769,0.293-1.062,0s-0.293-0.769,0-1.062
	l3.97-3.97l-3.967-3.97c-0.293-0.293-0.293-0.769,0-1.062s0.769-0.293,1.062,0l4.499,4.499L67.015,193.763z"/>
<path fill="#FFFFFF" d="M82.174,193.805c0.293,0.293,0.293,0.769,0,1.062l-4.499,4.499c-0.293,0.293-0.769,0.293-1.062,0
	s-0.293-0.769,0-1.062l3.97-3.97l-3.967-3.97c-0.293-0.293-0.293-0.769,0-1.062s0.769-0.293,1.062,0l4.499,4.499L82.174,193.805z"/>
<path fill="#FFFFFF" d="M88.357,193.763c0.293,0.293,0.293,0.769,0,1.062l-4.499,4.499c-0.293,0.293-0.769,0.293-1.062,0
	s-0.293-0.769,0-1.062l3.97-3.97l-3.967-3.97c-0.293-0.293-0.293-0.769,0-1.062s0.769-0.293,1.062,0l4.499,4.499L88.357,193.763z"/>
<path fill="#9BA2AD" d="M44.135,155.699h3.513v-7.036h3.166l0.348-3.496h-3.514v-1.766c0-0.233,0.092-0.456,0.257-0.621
	s0.388-0.257,0.621-0.257h2.636v-3.514h-2.636c-1.165,0-2.282,0.462-3.106,1.286c-0.823,0.823-1.286,1.941-1.286,3.106v1.766h-1.757
	l-0.348,3.496h2.105L44.135,155.699L44.135,155.699z"/>
<path fill="#EC8C22" d="M44.468,182.699h3.513v-7.036h3.166l0.348-3.496h-3.514v-1.766c0-0.233,0.092-0.456,0.257-0.621
	s0.388-0.257,0.621-0.257h2.636v-3.514h-2.636c-1.165,0-2.282,0.462-3.106,1.286c-0.823,0.823-1.286,1.941-1.286,3.106v1.766H42.71
	l-0.348,3.496h2.105L44.468,182.699L44.468,182.699z"/>
<path fill="#EC8C22" d="M100.728,169.026c0,0.431-0.172,0.845-0.477,1.15s-0.719,0.476-1.151,0.476c-0.431,0-0.845-0.172-1.15-0.477
	c-0.305-0.305-0.477-0.719-0.476-1.151c0-0.431,0.172-0.845,0.477-1.15s0.719-0.476,1.151-0.476c0.431,0,0.845,0.172,1.15,0.477
	C100.557,168.18,100.728,168.595,100.728,169.026z M100.777,171.858h-3.254v10.186h3.254V171.858L100.777,171.858z M105.919,171.858
	h-3.238v10.186h3.206v-5.346c0-2.978,3.881-3.254,3.881,0v5.346h3.214v-6.452c0-5.02-5.744-4.833-7.095-2.368L105.919,171.858z"/>
<path fill="#9BA2AD" d="M100.728,138.693c0,0.431-0.172,0.845-0.477,1.15s-0.719,0.476-1.151,0.476c-0.431,0-0.845-0.172-1.15-0.477
	c-0.305-0.305-0.477-0.719-0.476-1.151c0-0.431,0.172-0.845,0.477-1.15s0.719-0.476,1.151-0.476c0.431,0,0.845,0.172,1.15,0.477
	S100.728,138.261,100.728,138.693z M100.777,141.524h-3.254v10.186h3.254V141.524L100.777,141.524z M105.919,141.524h-3.238v10.186
	h3.206v-5.346c0-2.978,3.881-3.254,3.881,0v5.346h3.214v-6.452c0-5.02-5.744-4.833-7.095-2.368L105.919,141.524z"/>
</svg>
